solid 
   facet normal 9.829731e-01 -1.837495e-01 0.000000e+00
      outer loop
         vertex 2.440517e+01 2.216745e+01 0.000000e+00
         vertex 2.440517e+01 2.216745e+01 2.000000e+00
         vertex 2.400000e+01 2.000000e+01 2.000000e+00
      endloop
   endfacet
   facet normal 9.829731e-01 -1.837495e-01 0.000000e+00
      outer loop
         vertex 2.400000e+01 2.000000e+01 0.000000e+00
         vertex 2.440517e+01 2.216745e+01 0.000000e+00
         vertex 2.400000e+01 2.000000e+01 2.000000e+00
      endloop
   endfacet
   facet normal 8.502171e-01 -5.264323e-01 0.000000e+00
      outer loop
         vertex 2.556595e+01 2.404217e+01 0.000000e+00
         vertex 2.556595e+01 2.404217e+01 2.000000e+00
         vertex 2.440517e+01 2.216745e+01 2.000000e+00
      endloop
   endfacet
   facet normal 8.502171e-01 -5.264323e-01 0.000000e+00
      outer loop
         vertex 2.440517e+01 2.216745e+01 0.000000e+00
         vertex 2.556595e+01 2.404217e+01 0.000000e+00
         vertex 2.440517e+01 2.216745e+01 2.000000e+00
      endloop
   endfacet
   facet normal 6.026348e-01 -7.980171e-01 0.000000e+00
      outer loop
         vertex 2.732557e+01 2.537098e+01 0.000000e+00
         vertex 2.732557e+01 2.537098e+01 2.000000e+00
         vertex 2.556595e+01 2.404217e+01 2.000000e+00
      endloop
   endfacet
   facet normal 6.026348e-01 -7.980171e-01 0.000000e+00
      outer loop
         vertex 2.556595e+01 2.404217e+01 0.000000e+00
         vertex 2.732557e+01 2.537098e+01 0.000000e+00
         vertex 2.556595e+01 2.404217e+01 2.000000e+00
      endloop
   endfacet
   facet normal 2.736631e-01 -9.618256e-01 0.000000e+00
      outer loop
         vertex 2.944639e+01 2.597441e+01 0.000000e+00
         vertex 2.944639e+01 2.597441e+01 2.000000e+00
         vertex 2.732557e+01 2.537098e+01 2.000000e+00
      endloop
   endfacet
   facet normal 2.736631e-01 -9.618256e-01 0.000000e+00
      outer loop
         vertex 2.732557e+01 2.537098e+01 0.000000e+00
         vertex 2.944639e+01 2.597441e+01 0.000000e+00
         vertex 2.732557e+01 2.537098e+01 2.000000e+00
      endloop
   endfacet
   facet normal -9.226838e-02 -9.957342e-01 -0.000000e+00
      outer loop
         vertex 3.164198e+01 2.577095e+01 0.000000e+00
         vertex 3.164198e+01 2.577095e+01 2.000000e+00
         vertex 2.944639e+01 2.597441e+01 2.000000e+00
      endloop
   endfacet
   facet normal -9.226838e-02 -9.957342e-01 0.000000e+00
      outer loop
         vertex 2.944639e+01 2.597441e+01 0.000000e+00
         vertex 3.164198e+01 2.577095e+01 0.000000e+00
         vertex 2.944639e+01 2.597441e+01 2.000000e+00
      endloop
   endfacet
   facet normal -4.457387e-01 -8.951631e-01 -0.000000e+00
      outer loop
         vertex 3.361581e+01 2.478810e+01 0.000000e+00
         vertex 3.361581e+01 2.478810e+01 2.000000e+00
         vertex 3.164198e+01 2.577095e+01 2.000000e+00
      endloop
   endfacet
   facet normal -4.457387e-01 -8.951631e-01 0.000000e+00
      outer loop
         vertex 3.164198e+01 2.577095e+01 0.000000e+00
         vertex 3.361581e+01 2.478810e+01 0.000000e+00
         vertex 3.164198e+01 2.577095e+01 2.000000e+00
      endloop
   endfacet
   facet normal -7.390087e-01 -6.736959e-01 -0.000000e+00
      outer loop
         vertex 3.510130e+01 2.315859e+01 0.000000e+00
         vertex 3.510130e+01 2.315859e+01 2.000000e+00
         vertex 3.361581e+01 2.478810e+01 2.000000e+00
      endloop
   endfacet
   facet normal -7.390087e-01 -6.736959e-01 0.000000e+00
      outer loop
         vertex 3.361581e+01 2.478810e+01 0.000000e+00
         vertex 3.510130e+01 2.315859e+01 0.000000e+00
         vertex 3.361581e+01 2.478810e+01 2.000000e+00
      endloop
   endfacet
   facet normal -9.324722e-01 -3.612417e-01 -0.000000e+00
      outer loop
         vertex 3.589784e+01 2.110250e+01 0.000000e+00
         vertex 3.589784e+01 2.110250e+01 2.000000e+00
         vertex 3.510130e+01 2.315859e+01 2.000000e+00
      endloop
   endfacet
   facet normal -9.324722e-01 -3.612417e-01 0.000000e+00
      outer loop
         vertex 3.510130e+01 2.315859e+01 0.000000e+00
         vertex 3.589784e+01 2.110250e+01 0.000000e+00
         vertex 3.510130e+01 2.315859e+01 2.000000e+00
      endloop
   endfacet
   facet normal -1.000000e+00 0.000000e+00 0.000000e+00
      outer loop
         vertex 3.589784e+01 1.889750e+01 0.000000e+00
         vertex 3.589784e+01 1.889750e+01 2.000000e+00
         vertex 3.589784e+01 2.110250e+01 2.000000e+00
      endloop
   endfacet
   facet normal -1.000000e+00 0.000000e+00 0.000000e+00
      outer loop
         vertex 3.589784e+01 2.110250e+01 0.000000e+00
         vertex 3.589784e+01 1.889750e+01 0.000000e+00
         vertex 3.589784e+01 2.110250e+01 2.000000e+00
      endloop
   endfacet
   facet normal -9.324722e-01 3.612417e-01 0.000000e+00
      outer loop
         vertex 3.510130e+01 1.684141e+01 0.000000e+00
         vertex 3.510130e+01 1.684141e+01 2.000000e+00
         vertex 3.589784e+01 1.889750e+01 2.000000e+00
      endloop
   endfacet
   facet normal -9.324722e-01 3.612417e-01 0.000000e+00
      outer loop
         vertex 3.589784e+01 1.889750e+01 0.000000e+00
         vertex 3.510130e+01 1.684141e+01 0.000000e+00
         vertex 3.589784e+01 1.889750e+01 2.000000e+00
      endloop
   endfacet
   facet normal -7.390087e-01 6.736959e-01 0.000000e+00
      outer loop
         vertex 3.361581e+01 1.521190e+01 0.000000e+00
         vertex 3.361581e+01 1.521190e+01 2.000000e+00
         vertex 3.510130e+01 1.684141e+01 2.000000e+00
      endloop
   endfacet
   facet normal -7.390087e-01 6.736959e-01 0.000000e+00
      outer loop
         vertex 3.510130e+01 1.684141e+01 0.000000e+00
         vertex 3.361581e+01 1.521190e+01 0.000000e+00
         vertex 3.510130e+01 1.684141e+01 2.000000e+00
      endloop
   endfacet
   facet normal -4.457387e-01 8.951631e-01 0.000000e+00
      outer loop
         vertex 3.164198e+01 1.422905e+01 0.000000e+00
         vertex 3.164198e+01 1.422905e+01 2.000000e+00
         vertex 3.361581e+01 1.521190e+01 2.000000e+00
      endloop
   endfacet
   facet normal -4.457387e-01 8.951631e-01 0.000000e+00
      outer loop
         vertex 3.361581e+01 1.521190e+01 0.000000e+00
         vertex 3.164198e+01 1.422905e+01 0.000000e+00
         vertex 3.361581e+01 1.521190e+01 2.000000e+00
      endloop
   endfacet
   facet normal -9.226838e-02 9.957342e-01 0.000000e+00
      outer loop
         vertex 2.944639e+01 1.402559e+01 0.000000e+00
         vertex 2.944639e+01 1.402559e+01 2.000000e+00
         vertex 3.164198e+01 1.422905e+01 2.000000e+00
      endloop
   endfacet
   facet normal -9.226838e-02 9.957342e-01 0.000000e+00
      outer loop
         vertex 3.164198e+01 1.422905e+01 0.000000e+00
         vertex 2.944639e+01 1.402559e+01 0.000000e+00
         vertex 3.164198e+01 1.422905e+01 2.000000e+00
      endloop
   endfacet
   facet normal 2.736631e-01 9.618256e-01 0.000000e+00
      outer loop
         vertex 2.732557e+01 1.462902e+01 0.000000e+00
         vertex 2.732557e+01 1.462902e+01 2.000000e+00
         vertex 2.944639e+01 1.402559e+01 2.000000e+00
      endloop
   endfacet
   facet normal 2.736631e-01 9.618256e-01 0.000000e+00
      outer loop
         vertex 2.944639e+01 1.402559e+01 0.000000e+00
         vertex 2.732557e+01 1.462902e+01 0.000000e+00
         vertex 2.944639e+01 1.402559e+01 2.000000e+00
      endloop
   endfacet
   facet normal 6.026348e-01 7.980171e-01 0.000000e+00
      outer loop
         vertex 2.556595e+01 1.595783e+01 0.000000e+00
         vertex 2.556595e+01 1.595783e+01 2.000000e+00
         vertex 2.732557e+01 1.462902e+01 2.000000e+00
      endloop
   endfacet
   facet normal 6.026348e-01 7.980171e-01 0.000000e+00
      outer loop
         vertex 2.732557e+01 1.462902e+01 0.000000e+00
         vertex 2.556595e+01 1.595783e+01 0.000000e+00
         vertex 2.732557e+01 1.462902e+01 2.000000e+00
      endloop
   endfacet
   facet normal 8.502171e-01 5.264323e-01 0.000000e+00
      outer loop
         vertex 2.440517e+01 1.783255e+01 0.000000e+00
         vertex 2.440517e+01 1.783255e+01 2.000000e+00
         vertex 2.556595e+01 1.595783e+01 2.000000e+00
      endloop
   endfacet
   facet normal 8.502171e-01 5.264323e-01 0.000000e+00
      outer loop
         vertex 2.556595e+01 1.595783e+01 0.000000e+00
         vertex 2.440517e+01 1.783255e+01 0.000000e+00
         vertex 2.556595e+01 1.595783e+01 2.000000e+00
      endloop
   endfacet
   facet normal 9.829731e-01 1.837495e-01 0.000000e+00
      outer loop
         vertex 2.400000e+01 2.000000e+01 0.000000e+00
         vertex 2.400000e+01 2.000000e+01 2.000000e+00
         vertex 2.440517e+01 1.783255e+01 2.000000e+00
      endloop
   endfacet
   facet normal 9.829731e-01 1.837495e-01 0.000000e+00
      outer loop
         vertex 2.440517e+01 1.783255e+01 0.000000e+00
         vertex 2.400000e+01 2.000000e+01 0.000000e+00
         vertex 2.440517e+01 1.783255e+01 2.000000e+00
      endloop
   endfacet
   facet normal -1.837495e-01 0.000000e+00 9.829731e-01
      outer loop
         vertex 3.216745e+01 8.171241e-14 2.140517e+01
         vertex 3.216745e+01 2.000000e+00 2.140517e+01
         vertex 3.000000e+01 2.000000e+00 2.100000e+01
      endloop
   endfacet
   facet normal -1.837495e-01 0.000000e+00 9.829731e-01
      outer loop
         vertex 3.000000e+01 8.348877e-14 2.100000e+01
         vertex 3.216745e+01 8.171241e-14 2.140517e+01
         vertex 3.000000e+01 2.000000e+00 2.100000e+01
      endloop
   endfacet
   facet normal -5.264319e-01 0.000000e+00 8.502173e-01
      outer loop
         vertex 3.404218e+01 7.815970e-14 2.256595e+01
         vertex 3.404218e+01 2.000000e+00 2.256595e+01
         vertex 3.216745e+01 2.000000e+00 2.140517e+01
      endloop
   endfacet
   facet normal -5.264319e-01 0.000000e+00 8.502173e-01
      outer loop
         vertex 3.216745e+01 8.171241e-14 2.140517e+01
         vertex 3.404218e+01 7.815970e-14 2.256595e+01
         vertex 3.216745e+01 2.000000e+00 2.140517e+01
      endloop
   endfacet
   facet normal -7.980175e-01 0.000000e+00 6.026343e-01
      outer loop
         vertex 3.537098e+01 7.105427e-14 2.432557e+01
         vertex 3.537098e+01 2.000000e+00 2.432557e+01
         vertex 3.404218e+01 2.000000e+00 2.256595e+01
      endloop
   endfacet
   facet normal -7.980175e-01 0.000000e+00 6.026343e-01
      outer loop
         vertex 3.404218e+01 7.815970e-14 2.256595e+01
         vertex 3.537098e+01 7.105427e-14 2.432557e+01
         vertex 3.404218e+01 2.000000e+00 2.256595e+01
      endloop
   endfacet
   facet normal -9.618258e-01 0.000000e+00 2.736623e-01
      outer loop
         vertex 3.597440e+01 6.394885e-14 2.644639e+01
         vertex 3.597440e+01 2.000000e+00 2.644639e+01
         vertex 3.537098e+01 2.000000e+00 2.432557e+01
      endloop
   endfacet
   facet normal -9.618258e-01 0.000000e+00 2.736623e-01
      outer loop
         vertex 3.537098e+01 7.105427e-14 2.432557e+01
         vertex 3.597440e+01 6.394885e-14 2.644639e+01
         vertex 3.537098e+01 2.000000e+00 2.432557e+01
      endloop
   endfacet
   facet normal -9.957343e-01 -0.000000e+00 -9.226752e-02
      outer loop
         vertex 3.577095e+01 5.684342e-14 2.864198e+01
         vertex 3.577095e+01 2.000000e+00 2.864198e+01
         vertex 3.597440e+01 2.000000e+00 2.644639e+01
      endloop
   endfacet
   facet normal -9.957343e-01 0.000000e+00 -9.226752e-02
      outer loop
         vertex 3.597440e+01 6.394885e-14 2.644639e+01
         vertex 3.577095e+01 5.684342e-14 2.864198e+01
         vertex 3.597440e+01 2.000000e+00 2.644639e+01
      endloop
   endfacet
   facet normal -8.951637e-01 -0.000000e+00 -4.457376e-01
      outer loop
         vertex 3.478811e+01 4.973799e-14 3.061581e+01
         vertex 3.478811e+01 2.000000e+00 3.061581e+01
         vertex 3.577095e+01 2.000000e+00 2.864198e+01
      endloop
   endfacet
   facet normal -8.951637e-01 0.000000e+00 -4.457376e-01
      outer loop
         vertex 3.577095e+01 5.684342e-14 2.864198e+01
         vertex 3.478811e+01 4.973799e-14 3.061581e+01
         vertex 3.577095e+01 2.000000e+00 2.864198e+01
      endloop
   endfacet
   facet normal -6.736950e-01 -0.000000e+00 -7.390095e-01
      outer loop
         vertex 3.315859e+01 4.440892e-14 3.210130e+01
         vertex 3.315859e+01 2.000000e+00 3.210130e+01
         vertex 3.478811e+01 2.000000e+00 3.061581e+01
      endloop
   endfacet
   facet normal -6.736950e-01 0.000000e+00 -7.390095e-01
      outer loop
         vertex 3.478811e+01 4.973799e-14 3.061581e+01
         vertex 3.315859e+01 4.440892e-14 3.210130e+01
         vertex 3.478811e+01 2.000000e+00 3.061581e+01
      endloop
   endfacet
   facet normal -3.612417e-01 -0.000000e+00 -9.324722e-01
      outer loop
         vertex 3.110250e+01 4.085621e-14 3.289784e+01
         vertex 3.110250e+01 2.000000e+00 3.289784e+01
         vertex 3.315859e+01 2.000000e+00 3.210130e+01
      endloop
   endfacet
   facet normal -3.612417e-01 0.000000e+00 -9.324722e-01
      outer loop
         vertex 3.315859e+01 4.440892e-14 3.210130e+01
         vertex 3.110250e+01 4.085621e-14 3.289784e+01
         vertex 3.315859e+01 2.000000e+00 3.210130e+01
      endloop
   endfacet
   facet normal 0.000000e+00 0.000000e+00 -1.000000e+00
      outer loop
         vertex 2.889750e+01 4.085621e-14 3.289784e+01
         vertex 2.889750e+01 2.000000e+00 3.289784e+01
         vertex 3.110250e+01 2.000000e+00 3.289784e+01
      endloop
   endfacet
   facet normal 0.000000e+00 0.000000e+00 -1.000000e+00
      outer loop
         vertex 3.110250e+01 4.085621e-14 3.289784e+01
         vertex 2.889750e+01 4.085621e-14 3.289784e+01
         vertex 3.110250e+01 2.000000e+00 3.289784e+01
      endloop
   endfacet
   facet normal 3.612417e-01 0.000000e+00 -9.324722e-01
      outer loop
         vertex 2.684141e+01 4.440892e-14 3.210130e+01
         vertex 2.684141e+01 2.000000e+00 3.210130e+01
         vertex 2.889750e+01 2.000000e+00 3.289784e+01
      endloop
   endfacet
   facet normal 3.612417e-01 0.000000e+00 -9.324722e-01
      outer loop
         vertex 2.889750e+01 4.085621e-14 3.289784e+01
         vertex 2.684141e+01 4.440892e-14 3.210130e+01
         vertex 2.889750e+01 2.000000e+00 3.289784e+01
      endloop
   endfacet
   facet normal 6.736954e-01 0.000000e+00 -7.390091e-01
      outer loop
         vertex 2.521190e+01 4.973799e-14 3.061581e+01
         vertex 2.521190e+01 2.000000e+00 3.061581e+01
         vertex 2.684141e+01 2.000000e+00 3.210130e+01
      endloop
   endfacet
   facet normal 6.736954e-01 0.000000e+00 -7.390091e-01
      outer loop
         vertex 2.684141e+01 4.440892e-14 3.210130e+01
         vertex 2.521190e+01 4.973799e-14 3.061581e+01
         vertex 2.684141e+01 2.000000e+00 3.210130e+01
      endloop
   endfacet
   facet normal 8.951633e-01 0.000000e+00 -4.457383e-01
      outer loop
         vertex 2.422905e+01 5.684342e-14 2.864198e+01
         vertex 2.422905e+01 2.000000e+00 2.864198e+01
         vertex 2.521190e+01 2.000000e+00 3.061581e+01
      endloop
   endfacet
   facet normal 8.951633e-01 0.000000e+00 -4.457383e-01
      outer loop
         vertex 2.521190e+01 4.973799e-14 3.061581e+01
         vertex 2.422905e+01 5.684342e-14 2.864198e+01
         vertex 2.521190e+01 2.000000e+00 3.061581e+01
      endloop
   endfacet
   facet normal 9.957342e-01 0.000000e+00 -9.226838e-02
      outer loop
         vertex 2.402559e+01 6.394885e-14 2.644639e+01
         vertex 2.402559e+01 2.000000e+00 2.644639e+01
         vertex 2.422905e+01 2.000000e+00 2.864198e+01
      endloop
   endfacet
   facet normal 9.957342e-01 0.000000e+00 -9.226838e-02
      outer loop
         vertex 2.422905e+01 5.684342e-14 2.864198e+01
         vertex 2.402559e+01 6.394885e-14 2.644639e+01
         vertex 2.422905e+01 2.000000e+00 2.864198e+01
      endloop
   endfacet
   facet normal 9.618256e-01 0.000000e+00 2.736631e-01
      outer loop
         vertex 2.462902e+01 7.105427e-14 2.432557e+01
         vertex 2.462902e+01 2.000000e+00 2.432557e+01
         vertex 2.402559e+01 2.000000e+00 2.644639e+01
      endloop
   endfacet
   facet normal 9.618256e-01 0.000000e+00 2.736631e-01
      outer loop
         vertex 2.402559e+01 6.394885e-14 2.644639e+01
         vertex 2.462902e+01 7.105427e-14 2.432557e+01
         vertex 2.402559e+01 2.000000e+00 2.644639e+01
      endloop
   endfacet
   facet normal 7.980171e-01 0.000000e+00 6.026348e-01
      outer loop
         vertex 2.595783e+01 7.815970e-14 2.256595e+01
         vertex 2.595783e+01 2.000000e+00 2.256595e+01
         vertex 2.462902e+01 2.000000e+00 2.432557e+01
      endloop
   endfacet
   facet normal 7.980171e-01 0.000000e+00 6.026348e-01
      outer loop
         vertex 2.462902e+01 7.105427e-14 2.432557e+01
         vertex 2.595783e+01 7.815970e-14 2.256595e+01
         vertex 2.462902e+01 2.000000e+00 2.432557e+01
      endloop
   endfacet
   facet normal 5.264323e-01 0.000000e+00 8.502171e-01
      outer loop
         vertex 2.783255e+01 8.171241e-14 2.140517e+01
         vertex 2.783255e+01 2.000000e+00 2.140517e+01
         vertex 2.595783e+01 2.000000e+00 2.256595e+01
      endloop
   endfacet
   facet normal 5.264323e-01 0.000000e+00 8.502171e-01
      outer loop
         vertex 2.595783e+01 7.815970e-14 2.256595e+01
         vertex 2.783255e+01 8.171241e-14 2.140517e+01
         vertex 2.595783e+01 2.000000e+00 2.256595e+01
      endloop
   endfacet
   facet normal 1.837495e-01 0.000000e+00 9.829731e-01
      outer loop
         vertex 3.000000e+01 8.348877e-14 2.100000e+01
         vertex 3.000000e+01 2.000000e+00 2.100000e+01
         vertex 2.783255e+01 2.000000e+00 2.140517e+01
      endloop
   endfacet
   facet normal 1.837495e-01 0.000000e+00 9.829731e-01
      outer loop
         vertex 2.783255e+01 8.171241e-14 2.140517e+01
         vertex 3.000000e+01 8.348877e-14 2.100000e+01
         vertex 2.783255e+01 2.000000e+00 2.140517e+01
      endloop
   endfacet
   facet normal -0.000000e+00 1.000000e+00 0.000000e+00
      outer loop
         vertex -6.883383e-15 3.500000e+01 4.000000e+00
         vertex 4.717506e-14 3.500000e+01 1.000000e+01
         vertex 2.000000e+00 3.500000e+01 1.000000e+01
      endloop
   endfacet
   facet normal 0.000000e+00 1.000000e+00 0.000000e+00
      outer loop
         vertex 2.000000e+00 3.500000e+01 4.000000e+00
         vertex -6.883383e-15 3.500000e+01 4.000000e+00
         vertex 2.000000e+00 3.500000e+01 1.000000e+01
      endloop
   endfacet
   facet normal -1.000000e+00 -0.000000e+00 -3.490822e-15
      outer loop
         vertex -1.500536e-13 2.707107e+00 4.500000e+01
         vertex -1.500536e-13 1.500000e+01 4.500000e+01
         vertex -6.929882e-15 2.707107e+00 4.000000e+00
      endloop
   endfacet
   facet normal -1.000000e+00 7.568470e-19 -3.491049e-15
      outer loop
         vertex -1.500536e-13 1.500000e+01 4.500000e+01
         vertex -2.785173e-14 3.500000e+01 1.000000e+01
         vertex -6.929882e-15 2.707107e+00 4.000000e+00
      endloop
   endfacet
   facet normal -1.000000e+00 -2.790709e-19 -3.485473e-15
      outer loop
         vertex -6.929882e-15 2.707107e+00 4.000000e+00
         vertex -2.785173e-14 3.500000e+01 1.000000e+01
         vertex -6.938894e-15 3.500000e+01 4.000000e+00
      endloop
   endfacet
   facet normal 1.000000e+00 0.000000e+00 0.000000e+00
      outer loop
         vertex 2.000000e+00 2.707107e+00 4.000000e+00
         vertex 2.000000e+00 3.500000e+01 4.000000e+00
         vertex 2.000000e+00 2.707107e+00 4.500000e+01
      endloop
   endfacet
   facet normal 1.000000e+00 0.000000e+00 0.000000e+00
      outer loop
         vertex 2.000000e+00 3.500000e+01 4.000000e+00
         vertex 2.000000e+00 3.500000e+01 1.000000e+01
         vertex 2.000000e+00 2.707107e+00 4.500000e+01
      endloop
   endfacet
   facet normal 1.000000e+00 0.000000e+00 0.000000e+00
      outer loop
         vertex 2.000000e+00 2.707107e+00 4.500000e+01
         vertex 2.000000e+00 3.500000e+01 1.000000e+01
         vertex 2.000000e+00 1.500000e+01 4.500000e+01
      endloop
   endfacet
   facet normal 0.000000e+00 0.000000e+00 1.000000e+00
      outer loop
         vertex 2.000000e+00 2.707107e+00 4.500000e+01
         vertex 2.000000e+00 1.500000e+01 4.500000e+01
         vertex -1.501022e-13 1.500000e+01 4.500000e+01
      endloop
   endfacet
   facet normal 0.000000e+00 0.000000e+00 1.000000e+00
      outer loop
         vertex -7.502679e-14 2.707107e+00 4.500000e+01
         vertex 2.000000e+00 2.707107e+00 4.500000e+01
         vertex -1.501022e-13 1.500000e+01 4.500000e+01
      endloop
   endfacet
   facet normal 1.000000e+00 0.000000e+00 0.000000e+00
      outer loop
         vertex 6.000000e+01 2.707107e+00 4.000000e+00
         vertex 6.000000e+01 3.500000e+01 4.000000e+00
         vertex 6.000000e+01 2.707107e+00 4.500000e+01
      endloop
   endfacet
   facet normal 1.000000e+00 0.000000e+00 0.000000e+00
      outer loop
         vertex 6.000000e+01 3.500000e+01 4.000000e+00
         vertex 6.000000e+01 3.500000e+01 1.000000e+01
         vertex 6.000000e+01 2.707107e+00 4.500000e+01
      endloop
   endfacet
   facet normal 1.000000e+00 0.000000e+00 0.000000e+00
      outer loop
         vertex 6.000000e+01 2.707107e+00 4.500000e+01
         vertex 6.000000e+01 3.500000e+01 1.000000e+01
         vertex 6.000000e+01 1.500000e+01 4.500000e+01
      endloop
   endfacet
   facet normal -1.000000e+00 -0.000000e+00 0.000000e+00
      outer loop
         vertex 5.800000e+01 2.707107e+00 4.500000e+01
         vertex 5.800000e+01 1.500000e+01 4.500000e+01
         vertex 5.800000e+01 2.707107e+00 4.000000e+00
      endloop
   endfacet
   facet normal -1.000000e+00 -0.000000e+00 0.000000e+00
      outer loop
         vertex 5.800000e+01 1.500000e+01 4.500000e+01
         vertex 5.800000e+01 3.500000e+01 1.000000e+01
         vertex 5.800000e+01 2.707107e+00 4.000000e+00
      endloop
   endfacet
   facet normal -1.000000e+00 0.000000e+00 -0.000000e+00
      outer loop
         vertex 5.800000e+01 2.707107e+00 4.000000e+00
         vertex 5.800000e+01 3.500000e+01 1.000000e+01
         vertex 5.800000e+01 3.500000e+01 4.000000e+00
      endloop
   endfacet
   facet normal 0.000000e+00 0.000000e+00 1.000000e+00
      outer loop
         vertex 6.000000e+01 2.707107e+00 4.500000e+01
         vertex 6.000000e+01 1.500000e+01 4.500000e+01
         vertex 5.800000e+01 1.500000e+01 4.500000e+01
      endloop
   endfacet
   facet normal 0.000000e+00 0.000000e+00 1.000000e+00
      outer loop
         vertex 5.800000e+01 2.707107e+00 4.500000e+01
         vertex 6.000000e+01 2.707107e+00 4.500000e+01
         vertex 5.800000e+01 1.500000e+01 4.500000e+01
      endloop
   endfacet
   facet normal -0.000000e+00 1.000000e+00 0.000000e+00
      outer loop
         vertex 5.800000e+01 3.500000e+01 4.000000e+00
         vertex 5.800000e+01 3.500000e+01 1.000000e+01
         vertex 6.000000e+01 3.500000e+01 1.000000e+01
      endloop
   endfacet
   facet normal 0.000000e+00 1.000000e+00 0.000000e+00
      outer loop
         vertex 6.000000e+01 3.500000e+01 4.000000e+00
         vertex 5.800000e+01 3.500000e+01 4.000000e+00
         vertex 6.000000e+01 3.500000e+01 1.000000e+01
      endloop
   endfacet
   facet normal 0.000000e+00 -0.000000e+00 1.000000e+00
      outer loop
         vertex 4.000000e+00 3.500000e+01 2.000000e+00
         vertex 2.732557e+01 2.537098e+01 2.000000e+00
         vertex 5.600000e+01 3.500000e+01 2.000000e+00
      endloop
   endfacet
   facet normal 0.000000e+00 -0.000000e+00 1.000000e+00
      outer loop
         vertex 2.732557e+01 2.537098e+01 2.000000e+00
         vertex 2.944639e+01 2.597441e+01 2.000000e+00
         vertex 5.600000e+01 3.500000e+01 2.000000e+00
      endloop
   endfacet
   facet normal -0.000000e+00 0.000000e+00 1.000000e+00
      outer loop
         vertex 5.600000e+01 3.500000e+01 2.000000e+00
         vertex 3.361581e+01 2.478810e+01 2.000000e+00
         vertex 5.600000e+01 4.000000e+00 2.000000e+00
      endloop
   endfacet
   facet normal -0.000000e+00 -0.000000e+00 1.000000e+00
      outer loop
         vertex 3.361581e+01 2.478810e+01 2.000000e+00
         vertex 3.510130e+01 2.315859e+01 2.000000e+00
         vertex 5.600000e+01 4.000000e+00 2.000000e+00
      endloop
   endfacet
   facet normal 0.000000e+00 0.000000e+00 1.000000e+00
      outer loop
         vertex 5.600000e+01 4.000000e+00 2.000000e+00
         vertex 3.164198e+01 1.422905e+01 2.000000e+00
         vertex 4.000000e+00 4.000000e+00 2.000000e+00
      endloop
   endfacet
   facet normal -0.000000e+00 0.000000e+00 1.000000e+00
      outer loop
         vertex 3.164198e+01 1.422905e+01 2.000000e+00
         vertex 2.944639e+01 1.402559e+01 2.000000e+00
         vertex 4.000000e+00 4.000000e+00 2.000000e+00
      endloop
   endfacet
   facet normal 0.000000e+00 0.000000e+00 1.000000e+00
      outer loop
         vertex 4.000000e+00 4.000000e+00 2.000000e+00
         vertex 2.556595e+01 1.595783e+01 2.000000e+00
         vertex 4.000000e+00 3.500000e+01 2.000000e+00
      endloop
   endfacet
   facet normal 0.000000e+00 0.000000e+00 1.000000e+00
      outer loop
         vertex 2.556595e+01 1.595783e+01 2.000000e+00
         vertex 2.440517e+01 1.783255e+01 2.000000e+00
         vertex 4.000000e+00 3.500000e+01 2.000000e+00
      endloop
   endfacet
   facet normal 0.000000e+00 -0.000000e+00 1.000000e+00
      outer loop
         vertex 4.000000e+00 3.500000e+01 2.000000e+00
         vertex 2.556595e+01 2.404217e+01 2.000000e+00
         vertex 2.732557e+01 2.537098e+01 2.000000e+00
      endloop
   endfacet
   facet normal 0.000000e+00 0.000000e+00 1.000000e+00
      outer loop
         vertex 2.556595e+01 2.404217e+01 2.000000e+00
         vertex 4.000000e+00 3.500000e+01 2.000000e+00
         vertex 2.440517e+01 2.216745e+01 2.000000e+00
      endloop
   endfacet
   facet normal 0.000000e+00 0.000000e+00 1.000000e+00
      outer loop
         vertex 2.440517e+01 2.216745e+01 2.000000e+00
         vertex 4.000000e+00 3.500000e+01 2.000000e+00
         vertex 2.400000e+01 2.000000e+01 2.000000e+00
      endloop
   endfacet
   facet normal 0.000000e+00 0.000000e+00 1.000000e+00
      outer loop
         vertex 4.000000e+00 3.500000e+01 2.000000e+00
         vertex 2.440517e+01 1.783255e+01 2.000000e+00
         vertex 2.400000e+01 2.000000e+01 2.000000e+00
      endloop
   endfacet
   facet normal 0.000000e+00 0.000000e+00 1.000000e+00
      outer loop
         vertex 2.556595e+01 1.595783e+01 2.000000e+00
         vertex 4.000000e+00 4.000000e+00 2.000000e+00
         vertex 2.732557e+01 1.462902e+01 2.000000e+00
      endloop
   endfacet
   facet normal 0.000000e+00 0.000000e+00 1.000000e+00
      outer loop
         vertex 4.000000e+00 4.000000e+00 2.000000e+00
         vertex 2.944639e+01 1.402559e+01 2.000000e+00
         vertex 2.732557e+01 1.462902e+01 2.000000e+00
      endloop
   endfacet
   facet normal 0.000000e+00 0.000000e+00 1.000000e+00
      outer loop
         vertex 3.164198e+01 1.422905e+01 2.000000e+00
         vertex 5.600000e+01 4.000000e+00 2.000000e+00
         vertex 3.361581e+01 1.521190e+01 2.000000e+00
      endloop
   endfacet
   facet normal 0.000000e+00 0.000000e+00 1.000000e+00
      outer loop
         vertex 3.361581e+01 1.521190e+01 2.000000e+00
         vertex 5.600000e+01 4.000000e+00 2.000000e+00
         vertex 3.510130e+01 1.684141e+01 2.000000e+00
      endloop
   endfacet
   facet normal 0.000000e+00 0.000000e+00 1.000000e+00
      outer loop
         vertex 5.600000e+01 4.000000e+00 2.000000e+00
         vertex 3.589784e+01 1.889750e+01 2.000000e+00
         vertex 3.510130e+01 1.684141e+01 2.000000e+00
      endloop
   endfacet
   facet normal 0.000000e+00 0.000000e+00 1.000000e+00
      outer loop
         vertex 3.589784e+01 2.110250e+01 2.000000e+00
         vertex 5.600000e+01 4.000000e+00 2.000000e+00
         vertex 3.510130e+01 2.315859e+01 2.000000e+00
      endloop
   endfacet
   facet normal 0.000000e+00 0.000000e+00 1.000000e+00
      outer loop
         vertex 3.589784e+01 1.889750e+01 2.000000e+00
         vertex 5.600000e+01 4.000000e+00 2.000000e+00
         vertex 3.589784e+01 2.110250e+01 2.000000e+00
      endloop
   endfacet
   facet normal 0.000000e+00 0.000000e+00 1.000000e+00
      outer loop
         vertex 3.361581e+01 2.478810e+01 2.000000e+00
         vertex 5.600000e+01 3.500000e+01 2.000000e+00
         vertex 3.164198e+01 2.577095e+01 2.000000e+00
      endloop
   endfacet
   facet normal -0.000000e+00 0.000000e+00 1.000000e+00
      outer loop
         vertex 5.600000e+01 3.500000e+01 2.000000e+00
         vertex 2.944639e+01 2.597441e+01 2.000000e+00
         vertex 3.164198e+01 2.577095e+01 2.000000e+00
      endloop
   endfacet
   facet normal -0.000000e+00 0.000000e+00 -1.000000e+00
      outer loop
         vertex 4.000000e+00 3.500000e+01 0.000000e+00
         vertex 2.556595e+01 2.404217e+01 0.000000e+00
         vertex 4.000000e+00 4.000000e+00 0.000000e+00
      endloop
   endfacet
   facet normal -0.000000e+00 0.000000e+00 -1.000000e+00
      outer loop
         vertex 2.556595e+01 2.404217e+01 0.000000e+00
         vertex 2.440517e+01 2.216745e+01 0.000000e+00
         vertex 4.000000e+00 4.000000e+00 0.000000e+00
      endloop
   endfacet
   facet normal 0.000000e+00 -0.000000e+00 -1.000000e+00
      outer loop
         vertex 4.000000e+00 4.000000e+00 0.000000e+00
         vertex 2.732557e+01 1.462902e+01 0.000000e+00
         vertex 5.600000e+01 4.000000e+00 0.000000e+00
      endloop
   endfacet
   facet normal -0.000000e+00 -0.000000e+00 -1.000000e+00
      outer loop
         vertex 2.732557e+01 1.462902e+01 0.000000e+00
         vertex 2.944639e+01 1.402559e+01 0.000000e+00
         vertex 5.600000e+01 4.000000e+00 0.000000e+00
      endloop
   endfacet
   facet normal 2.802891e-17 5.595882e-17 -1.000000e+00
      outer loop
         vertex 5.600000e+01 4.000000e+00 0.000000e+00
         vertex 3.361581e+01 1.521190e+01 0.000000e+00
         vertex 5.600000e+01 3.500000e+01 1.734723e-15
      endloop
   endfacet
   facet normal 3.992513e-16 -3.639660e-16 -1.000000e+00
      outer loop
         vertex 3.361581e+01 1.521190e+01 0.000000e+00
         vertex 3.510130e+01 1.684141e+01 0.000000e+00
         vertex 5.600000e+01 3.500000e+01 1.734723e-15
      endloop
   endfacet
   facet normal 3.336007e-17 9.991696e-17 -1.000000e+00
      outer loop
         vertex 5.600000e+01 3.500000e+01 1.734723e-15
         vertex 3.164198e+01 2.577095e+01 0.000000e+00
         vertex 4.000000e+00 3.500000e+01 0.000000e+00
      endloop
   endfacet
   facet normal 0.000000e+00 0.000000e+00 -1.000000e+00
      outer loop
         vertex 3.164198e+01 2.577095e+01 0.000000e+00
         vertex 2.944639e+01 2.597441e+01 0.000000e+00
         vertex 4.000000e+00 3.500000e+01 0.000000e+00
      endloop
   endfacet
   facet normal -0.000000e+00 0.000000e+00 -1.000000e+00
      outer loop
         vertex 4.000000e+00 3.500000e+01 0.000000e+00
         vertex 2.944639e+01 2.597441e+01 0.000000e+00
         vertex 2.732557e+01 2.537098e+01 0.000000e+00
      endloop
   endfacet
   facet normal 4.044358e-17 8.122159e-17 -1.000000e+00
      outer loop
         vertex 3.164198e+01 2.577095e+01 0.000000e+00
         vertex 5.600000e+01 3.500000e+01 1.734723e-15
         vertex 3.361581e+01 2.478810e+01 0.000000e+00
      endloop
   endfacet
   facet normal 5.473423e-17 4.989688e-17 -1.000000e+00
      outer loop
         vertex 3.361581e+01 2.478810e+01 0.000000e+00
         vertex 5.600000e+01 3.500000e+01 1.734723e-15
         vertex 3.510130e+01 2.315859e+01 0.000000e+00
      endloop
   endfacet
   facet normal 6.806552e-17 2.636872e-17 -1.000000e+00
      outer loop
         vertex 5.600000e+01 3.500000e+01 1.734723e-15
         vertex 3.589784e+01 2.110250e+01 0.000000e+00
         vertex 3.510130e+01 2.315859e+01 0.000000e+00
      endloop
   endfacet
   facet normal 8.629537e-17 0.000000e+00 -1.000000e+00
      outer loop
         vertex 3.589784e+01 2.110250e+01 0.000000e+00
         vertex 5.600000e+01 3.500000e+01 1.734723e-15
         vertex 3.589784e+01 1.889750e+01 0.000000e+00
      endloop
   endfacet
   facet normal 1.251241e-16 -4.847334e-17 -1.000000e+00
      outer loop
         vertex 5.600000e+01 3.500000e+01 1.734723e-15
         vertex 3.510130e+01 1.684141e+01 0.000000e+00
         vertex 3.589784e+01 1.889750e+01 0.000000e+00
      endloop
   endfacet
   facet normal 0.000000e+00 0.000000e+00 -1.000000e+00
      outer loop
         vertex 3.361581e+01 1.521190e+01 0.000000e+00
         vertex 5.600000e+01 4.000000e+00 0.000000e+00
         vertex 3.164198e+01 1.422905e+01 0.000000e+00
      endloop
   endfacet
   facet normal 0.000000e+00 0.000000e+00 -1.000000e+00
      outer loop
         vertex 5.600000e+01 4.000000e+00 0.000000e+00
         vertex 2.944639e+01 1.402559e+01 0.000000e+00
         vertex 3.164198e+01 1.422905e+01 0.000000e+00
      endloop
   endfacet
   facet normal 0.000000e+00 0.000000e+00 -1.000000e+00
      outer loop
         vertex 2.732557e+01 1.462902e+01 0.000000e+00
         vertex 4.000000e+00 4.000000e+00 0.000000e+00
         vertex 2.556595e+01 1.595783e+01 0.000000e+00
      endloop
   endfacet
   facet normal 0.000000e+00 -0.000000e+00 -1.000000e+00
      outer loop
         vertex 4.000000e+00 4.000000e+00 0.000000e+00
         vertex 2.440517e+01 1.783255e+01 0.000000e+00
         vertex 2.556595e+01 1.595783e+01 0.000000e+00
      endloop
   endfacet
   facet normal 0.000000e+00 0.000000e+00 -1.000000e+00
      outer loop
         vertex 2.400000e+01 2.000000e+01 0.000000e+00
         vertex 4.000000e+00 4.000000e+00 0.000000e+00
         vertex 2.440517e+01 2.216745e+01 0.000000e+00
      endloop
   endfacet
   facet normal 0.000000e+00 0.000000e+00 -1.000000e+00
      outer loop
         vertex 2.440517e+01 1.783255e+01 0.000000e+00
         vertex 4.000000e+00 4.000000e+00 0.000000e+00
         vertex 2.400000e+01 2.000000e+01 0.000000e+00
      endloop
   endfacet
   facet normal 0.000000e+00 0.000000e+00 -1.000000e+00
      outer loop
         vertex 2.556595e+01 2.404217e+01 0.000000e+00
         vertex 4.000000e+00 3.500000e+01 0.000000e+00
         vertex 2.732557e+01 2.537098e+01 0.000000e+00
      endloop
   endfacet
   facet normal 0.000000e+00 1.000000e+00 0.000000e+00
      outer loop
         vertex 4.000000e+00 3.500000e+01 2.000000e+00
         vertex 5.600000e+01 3.500000e+01 2.000000e+00
         vertex 5.600000e+01 3.500000e+01 1.776357e-15
      endloop
   endfacet
   facet normal 0.000000e+00 1.000000e+00 0.000000e+00
      outer loop
         vertex 4.000000e+00 3.500000e+01 0.000000e+00
         vertex 4.000000e+00 3.500000e+01 2.000000e+00
         vertex 5.600000e+01 3.500000e+01 1.776357e-15
      endloop
   endfacet
   facet normal 0.000000e+00 1.000000e+00 0.000000e+00
      outer loop
         vertex 3.044819e-01 3.500000e+01 2.469266e+00
         vertex -6.938894e-15 3.500000e+01 4.000000e+00
         vertex 1.171573e+00 3.500000e+01 1.171573e+00
      endloop
   endfacet
   facet normal 0.000000e+00 1.000000e+00 0.000000e+00
      outer loop
         vertex -6.938894e-15 3.500000e+01 4.000000e+00
         vertex 2.000000e+00 3.500000e+01 4.000000e+00
         vertex 1.171573e+00 3.500000e+01 1.171573e+00
      endloop
   endfacet
   facet normal 0.000000e+00 1.000000e+00 0.000000e+00
      outer loop
         vertex 1.171573e+00 3.500000e+01 1.171573e+00
         vertex 2.000000e+00 3.500000e+01 4.000000e+00
         vertex 2.469266e+00 3.500000e+01 3.044819e-01
      endloop
   endfacet
   facet normal 0.000000e+00 1.000000e+00 0.000000e+00
      outer loop
         vertex 2.000000e+00 3.500000e+01 4.000000e+00
         vertex 2.585786e+00 3.500000e+01 2.585786e+00
         vertex 2.469266e+00 3.500000e+01 3.044819e-01
      endloop
   endfacet
   facet normal 0.000000e+00 1.000000e+00 0.000000e+00
      outer loop
         vertex 2.469266e+00 3.500000e+01 3.044819e-01
         vertex 2.585786e+00 3.500000e+01 2.585786e+00
         vertex 4.000000e+00 3.500000e+01 0.000000e+00
      endloop
   endfacet
   facet normal 0.000000e+00 1.000000e+00 0.000000e+00
      outer loop
         vertex 2.585786e+00 3.500000e+01 2.585786e+00
         vertex 4.000000e+00 3.500000e+01 2.000000e+00
         vertex 4.000000e+00 3.500000e+01 0.000000e+00
      endloop
   endfacet
   facet normal 1.054025e-01 -9.620579e-01 -2.516642e-01
      outer loop
         vertex 2.000225e+00 3.399473e+00 1.763653e+00
         vertex 2.063015e+00 3.033562e+00 3.188748e+00
         vertex 1.232798e+00 3.033562e+00 2.841035e+00
      endloop
   endfacet
   facet normal 2.799161e-01 -9.268194e-01 -2.503053e-01
      outer loop
         vertex 2.600198e+00 3.399473e+00 2.434603e+00
         vertex 2.063015e+00 3.033562e+00 3.188748e+00
         vertex 2.000225e+00 3.399473e+00 1.763653e+00
      endloop
   endfacet
   facet normal 2.773082e-01 -9.282292e-01 -2.479733e-01
      outer loop
         vertex 3.250788e+00 3.699736e+00 2.038193e+00
         vertex 2.600198e+00 3.399473e+00 2.434603e+00
         vertex 2.000225e+00 3.399473e+00 1.763653e+00
      endloop
   endfacet
   facet normal 2.523332e-01 -9.628300e-01 -9.636569e-02
      outer loop
         vertex 2.929667e+00 3.699736e+00 1.197337e+00
         vertex 3.250788e+00 3.699736e+00 2.038193e+00
         vertex 2.000225e+00 3.399473e+00 1.763653e+00
      endloop
   endfacet
   facet normal 3.860545e-01 -9.224760e-01 0.000000e+00
      outer loop
         vertex 3.377156e+00 3.739341e+00 2.099457e+00
         vertex 4.000000e+00 4.000000e+00 1.979780e+00
         vertex 4.000000e+00 4.000000e+00 2.000000e+00
      endloop
   endfacet
   facet normal 3.860545e-01 -9.224760e-01 0.000000e+00
      outer loop
         vertex 3.377156e+00 3.739341e+00 2.099457e+00
         vertex 4.000000e+00 4.000000e+00 1.959540e+00
         vertex 4.000000e+00 4.000000e+00 1.979780e+00
      endloop
   endfacet
   facet normal 3.860545e-01 -9.224760e-01 0.000000e+00
      outer loop
         vertex 3.377156e+00 3.739341e+00 2.099457e+00
         vertex 4.000000e+00 4.000000e+00 1.919060e+00
         vertex 4.000000e+00 4.000000e+00 1.959540e+00
      endloop
   endfacet
   facet normal 3.860545e-01 -9.224760e-01 0.000000e+00
      outer loop
         vertex 3.377156e+00 3.739341e+00 2.099457e+00
         vertex 4.000000e+00 4.000000e+00 1.838100e+00
         vertex 4.000000e+00 4.000000e+00 1.919060e+00
      endloop
   endfacet
   facet normal 3.720090e-01 -9.282291e-01 0.000000e+00
      outer loop
         vertex 3.250788e+00 3.699736e+00 2.038193e+00
         vertex 4.000000e+00 4.000000e+00 1.676180e+00
         vertex 4.000000e+00 4.000000e+00 1.838100e+00
      endloop
   endfacet
   facet normal 3.720090e-01 -9.282291e-01 0.000000e+00
      outer loop
         vertex 3.250788e+00 3.699736e+00 2.038193e+00
         vertex 4.000000e+00 4.000000e+00 1.352340e+00
         vertex 4.000000e+00 4.000000e+00 1.676180e+00
      endloop
   endfacet
   facet normal 2.701056e-01 -9.628307e-01 0.000000e+00
      outer loop
         vertex 2.929667e+00 3.699736e+00 1.197337e+00
         vertex 4.000000e+00 4.000000e+00 7.046600e-01
         vertex 4.000000e+00 4.000000e+00 1.352340e+00
      endloop
   endfacet
   facet normal 2.028003e-01 -9.792201e-01 0.000000e+00
      outer loop
         vertex 3.220109e+00 3.838481e+00 7.690112e-02
         vertex 4.000000e+00 4.000000e+00 0.000000e+00
         vertex 4.000000e+00 4.000000e+00 7.046600e-01
      endloop
   endfacet
   facet normal 1.901580e-01 -9.791133e-01 -7.195179e-02
      outer loop
         vertex 2.929667e+00 3.699736e+00 1.197337e+00
         vertex 1.647634e+00 3.482530e+00 7.648360e-01
         vertex 3.220109e+00 3.838481e+00 7.690112e-02
      endloop
   endfacet
   facet normal 1.507200e-01 -9.793642e-01 -1.346449e-01
      outer loop
         vertex 2.000225e+00 3.399473e+00 1.763653e+00
         vertex 9.245245e-01 3.278090e+00 1.442431e+00
         vertex 1.647634e+00 3.482530e+00 7.648360e-01
      endloop
   endfacet
   facet normal 8.014496e-02 -9.787425e-01 -1.887851e-01
      outer loop
         vertex 1.232798e+00 3.033562e+00 2.841035e+00
         vertex 4.271849e-01 3.090987e+00 2.201316e+00
         vertex 9.245245e-01 3.278090e+00 1.442431e+00
      endloop
   endfacet
   facet normal 8.083904e-02 -9.785203e-01 -1.896393e-01
      outer loop
         vertex 1.232798e+00 3.033562e+00 2.841035e+00
         vertex -6.929882e-15 2.707107e+00 4.000000e+00
         vertex 4.271849e-01 3.090987e+00 2.201316e+00
      endloop
   endfacet
   facet normal -0.000000e+00 -9.625433e-01 -2.711279e-01
      outer loop
         vertex 1.232798e+00 3.033562e+00 2.841035e+00
         vertex 2.000000e+00 2.707107e+00 4.000000e+00
         vertex -6.929882e-15 2.707107e+00 4.000000e+00
      endloop
   endfacet
   facet normal 1.395252e-01 -9.223355e-01 -3.603191e-01
      outer loop
         vertex 2.063015e+00 3.033562e+00 3.188748e+00
         vertex 2.369645e+00 3.215573e+00 2.841578e+00
         vertex 2.000000e+00 2.707107e+00 4.000000e+00
      endloop
   endfacet
   facet normal 2.959638e-01 -9.221646e-01 -2.490339e-01
      outer loop
         vertex 2.600198e+00 3.399473e+00 2.434603e+00
         vertex 3.377156e+00 3.739341e+00 2.099457e+00
         vertex 2.369645e+00 3.215573e+00 2.841578e+00
      endloop
   endfacet
   facet normal 1.503569e-01 -9.211472e-01 -3.589996e-01
      outer loop
         vertex 2.000000e+00 2.707107e+00 4.000000e+00
         vertex 1.232798e+00 3.033562e+00 2.841035e+00
         vertex 2.063015e+00 3.033562e+00 3.188748e+00
      endloop
   endfacet
   facet normal 1.702530e-01 -9.636267e-01 -2.060035e-01
      outer loop
         vertex 9.245245e-01 3.278090e+00 1.442431e+00
         vertex 2.000225e+00 3.399473e+00 1.763653e+00
         vertex 1.232798e+00 3.033562e+00 2.841035e+00
      endloop
   endfacet
   facet normal 2.125873e-01 -9.300103e-01 -2.998124e-01
      outer loop
         vertex 2.369645e+00 3.215573e+00 2.841578e+00
         vertex 2.063015e+00 3.033562e+00 3.188748e+00
         vertex 2.600198e+00 3.399473e+00 2.434603e+00
      endloop
   endfacet
   facet normal 2.160516e-01 -9.637724e-01 -1.564109e-01
      outer loop
         vertex 1.647634e+00 3.482530e+00 7.648360e-01
         vertex 2.929667e+00 3.699736e+00 1.197337e+00
         vertex 2.000225e+00 3.399473e+00 1.763653e+00
      endloop
   endfacet
   facet normal 3.516263e-01 -9.276785e-01 -1.255851e-01
      outer loop
         vertex 3.377156e+00 3.739341e+00 2.099457e+00
         vertex 2.600198e+00 3.399473e+00 2.434603e+00
         vertex 3.250788e+00 3.699736e+00 2.038193e+00
      endloop
   endfacet
   facet normal 2.830024e-01 -9.530104e-01 -1.080782e-01
      outer loop
         vertex 4.000000e+00 4.000000e+00 1.352340e+00
         vertex 3.250788e+00 3.699736e+00 2.038193e+00
         vertex 2.929667e+00 3.699736e+00 1.197337e+00
      endloop
   endfacet
   facet normal 3.447533e-01 -9.324199e-01 -1.083432e-01
      outer loop
         vertex 3.250788e+00 3.699736e+00 2.038193e+00
         vertex 4.000000e+00 4.000000e+00 1.838100e+00
         vertex 3.377156e+00 3.739341e+00 2.099457e+00
      endloop
   endfacet
   facet normal 2.456295e-01 -9.677354e-01 -5.616341e-02
      outer loop
         vertex 3.220109e+00 3.838481e+00 7.690112e-02
         vertex 4.000000e+00 4.000000e+00 7.046600e-01
         vertex 2.929667e+00 3.699736e+00 1.197337e+00
      endloop
   endfacet
   facet normal -1.950897e-01 2.462189e-03 -9.807823e-01
      outer loop
         vertex 2.469266e+00 3.500000e+01 3.044819e-01
         vertex 4.000000e+00 3.500000e+01 0.000000e+00
         vertex 3.220109e+00 3.838481e+00 7.690112e-02
      endloop
   endfacet
   facet normal -9.812900e-02 0.000000e+00 -9.951737e-01
      outer loop
         vertex 4.000000e+00 3.500000e+01 0.000000e+00
         vertex 4.000000e+00 4.000000e+00 0.000000e+00
         vertex 3.220109e+00 3.838481e+00 7.690112e-02
      endloop
   endfacet
   facet normal -4.002452e-01 -2.951244e-03 -9.164034e-01
      outer loop
         vertex 3.220109e+00 3.838481e+00 7.690112e-02
         vertex 1.647634e+00 3.482530e+00 7.648360e-01
         vertex 2.469266e+00 3.500000e+01 3.044819e-01
      endloop
   endfacet
   facet normal -6.836325e-01 -9.075508e-04 -7.298258e-01
      outer loop
         vertex 1.647634e+00 3.482530e+00 7.648360e-01
         vertex 9.245245e-01 3.278090e+00 1.442431e+00
         vertex 1.171573e+00 3.500000e+01 1.171573e+00
      endloop
   endfacet
   facet normal -8.365464e-01 1.383980e-03 -5.478944e-01
      outer loop
         vertex 9.245245e-01 3.278090e+00 1.442431e+00
         vertex 4.271849e-01 3.090987e+00 2.201316e+00
         vertex 3.044819e-01 3.500000e+01 2.469266e+00
      endloop
   endfacet
   facet normal -9.728490e-01 -1.797574e-03 -2.314339e-01
      outer loop
         vertex 4.271849e-01 3.090987e+00 2.201316e+00
         vertex -6.929882e-15 2.707107e+00 4.000000e+00
         vertex 3.044819e-01 3.500000e+01 2.469266e+00
      endloop
   endfacet
   facet normal -9.807853e-01 -2.737086e-19 -1.950903e-01
      outer loop
         vertex -6.929882e-15 2.707107e+00 4.000000e+00
         vertex -6.938894e-15 3.500000e+01 4.000000e+00
         vertex 3.044819e-01 3.500000e+01 2.469266e+00
      endloop
   endfacet
   facet normal -8.314683e-01 1.731679e-03 -5.555695e-01
      outer loop
         vertex 3.044819e-01 3.500000e+01 2.469266e+00
         vertex 1.171573e+00 3.500000e+01 1.171573e+00
         vertex 9.245245e-01 3.278090e+00 1.442431e+00
      endloop
   endfacet
   facet normal -5.555688e-01 2.338506e-03 -8.314673e-01
      outer loop
         vertex 1.171573e+00 3.500000e+01 1.171573e+00
         vertex 2.469266e+00 3.500000e+01 3.044819e-01
         vertex 1.647634e+00 3.482530e+00 7.648360e-01
      endloop
   endfacet
   facet normal 1.576837e-01 0.000000e+00 9.874897e-01
      outer loop
         vertex 4.000000e+00 3.500000e+01 2.000000e+00
         vertex 3.377156e+00 3.739341e+00 2.099457e+00
         vertex 4.000000e+00 4.000000e+00 2.000000e+00
      endloop
   endfacet
   facet normal 5.922366e-01 2.457177e-03 8.057604e-01
      outer loop
         vertex 2.585786e+00 3.500000e+01 2.585786e+00
         vertex 2.369645e+00 3.215573e+00 2.841578e+00
         vertex 3.377156e+00 3.739341e+00 2.099457e+00
      endloop
   endfacet
   facet normal 9.526746e-01 -0.000000e+00 3.039921e-01
      outer loop
         vertex 2.000000e+00 3.500000e+01 4.000000e+00
         vertex 2.000000e+00 2.707107e+00 4.000000e+00
         vertex 2.369645e+00 3.215573e+00 2.841578e+00
      endloop
   endfacet
   facet normal 9.238748e-01 -3.202860e-03 3.826814e-01
      outer loop
         vertex 2.369645e+00 3.215573e+00 2.841578e+00
         vertex 2.585786e+00 3.500000e+01 2.585786e+00
         vertex 2.000000e+00 3.500000e+01 4.000000e+00
      endloop
   endfacet
   facet normal 3.826792e-01 -4.685264e-03 9.238694e-01
      outer loop
         vertex 3.377156e+00 3.739341e+00 2.099457e+00
         vertex 4.000000e+00 3.500000e+01 2.000000e+00
         vertex 2.585786e+00 3.500000e+01 2.585786e+00
      endloop
   endfacet
   facet normal 0.000000e+00 -1.000000e+00 -0.000000e+00
      outer loop
         vertex 2.000000e+00 2.707107e+00 4.000000e+00
         vertex 2.000000e+00 2.707107e+00 4.500000e+01
         vertex -6.929882e-15 2.707107e+00 4.000000e+00
      endloop
   endfacet
   facet normal 0.000000e+00 -1.000000e+00 0.000000e+00
      outer loop
         vertex 2.000000e+00 2.707107e+00 4.500000e+01
         vertex -1.500536e-13 2.707107e+00 4.500000e+01
         vertex -6.929882e-15 2.707107e+00 4.000000e+00
      endloop
   endfacet
   facet normal -2.516642e-01 -9.620579e-01 -1.054026e-01
      outer loop
         vertex 5.823635e+01 3.307634e+00 2.000225e+00
         vertex 5.681125e+01 3.673544e+00 2.063015e+00
         vertex 5.715897e+01 3.673544e+00 1.232798e+00
      endloop
   endfacet
   facet normal -2.503054e-01 -9.268191e-01 -2.799171e-01
      outer loop
         vertex 5.756540e+01 3.307634e+00 2.600198e+00
         vertex 5.681125e+01 3.673544e+00 2.063015e+00
         vertex 5.823635e+01 3.307634e+00 2.000225e+00
      endloop
   endfacet
   facet normal -2.479725e-01 -9.282294e-01 -2.773082e-01
      outer loop
         vertex 5.796181e+01 3.007370e+00 3.250788e+00
         vertex 5.756540e+01 3.307634e+00 2.600198e+00
         vertex 5.823635e+01 3.307634e+00 2.000225e+00
      endloop
   endfacet
   facet normal -9.636587e-02 -9.628300e-01 -2.523333e-01
      outer loop
         vertex 5.880266e+01 3.007370e+00 2.929667e+00
         vertex 5.796181e+01 3.007370e+00 3.250788e+00
         vertex 5.823635e+01 3.307634e+00 2.000225e+00
      endloop
   endfacet
   facet normal 0.000000e+00 -9.788905e-01 -2.043852e-01
      outer loop
         vertex 5.979991e+01 2.707107e+00 4.000000e+00
         vertex 5.982690e+01 2.950077e+00 2.836309e+00
         vertex 6.000000e+01 2.707107e+00 4.000000e+00
      endloop
   endfacet
   facet normal -7.214619e-02 -9.789889e-01 -1.907240e-01
      outer loop
         vertex 5.880266e+01 3.007370e+00 2.929667e+00
         vertex 5.916336e+01 3.249200e+00 1.551907e+00
         vertex 5.982690e+01 2.950077e+00 2.836309e+00
      endloop
   endfacet
   facet normal -1.346926e-01 -9.793351e-01 -1.508666e-01
      outer loop
         vertex 5.823635e+01 3.307634e+00 2.000225e+00
         vertex 5.849489e+01 3.445652e+00 8.734670e-01
         vertex 5.916336e+01 3.249200e+00 1.551907e+00
      endloop
   endfacet
   facet normal -1.884174e-01 -9.788496e-01 -7.970136e-02
      outer loop
         vertex 5.715897e+01 3.673544e+00 1.232798e+00
         vertex 5.776150e+01 3.624664e+00 4.087066e-01
         vertex 5.849489e+01 3.445652e+00 8.734670e-01
      endloop
   endfacet
   facet normal -2.083993e-01 -9.780438e-01 0.000000e+00
      outer loop
         vertex 5.600000e+01 4.000000e+00 7.046600e-01
         vertex 5.600000e+01 4.000000e+00 0.000000e+00
         vertex 5.776150e+01 3.624664e+00 4.087066e-01
      endloop
   endfacet
   facet normal -2.711276e-01 -9.625434e-01 -0.000000e+00
      outer loop
         vertex 5.715897e+01 3.673544e+00 1.232798e+00
         vertex 5.600000e+01 4.000000e+00 1.352340e+00
         vertex 5.600000e+01 4.000000e+00 7.046600e-01
      endloop
   endfacet
   facet normal -3.733167e-01 -9.277040e-01 -0.000000e+00
      outer loop
         vertex 5.681125e+01 3.673544e+00 2.063015e+00
         vertex 5.600000e+01 4.000000e+00 1.676180e+00
         vertex 5.600000e+01 4.000000e+00 1.352340e+00
      endloop
   endfacet
   facet normal -3.733167e-01 -9.277040e-01 -0.000000e+00
      outer loop
         vertex 5.681125e+01 3.673544e+00 2.063015e+00
         vertex 5.600000e+01 4.000000e+00 1.838100e+00
         vertex 5.600000e+01 4.000000e+00 1.676180e+00
      endloop
   endfacet
   facet normal -3.733167e-01 -9.277040e-01 -0.000000e+00
      outer loop
         vertex 5.681125e+01 3.673544e+00 2.063015e+00
         vertex 5.600000e+01 4.000000e+00 1.919060e+00
         vertex 5.600000e+01 4.000000e+00 1.838100e+00
      endloop
   endfacet
   facet normal -3.733167e-01 -9.277040e-01 -0.000000e+00
      outer loop
         vertex 5.681125e+01 3.673544e+00 2.063015e+00
         vertex 5.600000e+01 4.000000e+00 1.959540e+00
         vertex 5.600000e+01 4.000000e+00 1.919060e+00
      endloop
   endfacet
   facet normal -3.733167e-01 -9.277040e-01 -0.000000e+00
      outer loop
         vertex 5.681125e+01 3.673544e+00 2.063015e+00
         vertex 5.600000e+01 4.000000e+00 1.979780e+00
         vertex 5.600000e+01 4.000000e+00 1.959540e+00
      endloop
   endfacet
   facet normal -3.733167e-01 -9.277040e-01 -0.000000e+00
      outer loop
         vertex 5.681125e+01 3.673544e+00 2.063015e+00
         vertex 5.600000e+01 4.000000e+00 2.000000e+00
         vertex 5.600000e+01 4.000000e+00 1.979780e+00
      endloop
   endfacet
   facet normal -3.603184e-01 -9.223353e-01 -1.395286e-01
      outer loop
         vertex 5.681125e+01 3.673544e+00 2.063015e+00
         vertex 5.715842e+01 3.491534e+00 2.369644e+00
         vertex 5.600000e+01 4.000000e+00 2.000000e+00
      endloop
   endfacet
   facet normal -2.490347e-01 -9.221646e-01 -2.959630e-01
      outer loop
         vertex 5.756540e+01 3.307634e+00 2.600198e+00
         vertex 5.790054e+01 2.967766e+00 3.377156e+00
         vertex 5.715842e+01 3.491534e+00 2.369644e+00
      endloop
   endfacet
   facet normal -1.500698e-01 -9.203353e-01 -3.611952e-01
      outer loop
         vertex 5.796181e+01 3.007370e+00 3.250788e+00
         vertex 5.800000e+01 2.707107e+00 4.000000e+00
         vertex 5.790054e+01 2.967766e+00 3.377156e+00
      endloop
   endfacet
   facet normal -0.000000e+00 -9.282291e-01 -3.720090e-01
      outer loop
         vertex 5.796181e+01 3.007370e+00 3.250788e+00
         vertex 5.822002e+01 2.707107e+00 4.000000e+00
         vertex 5.800000e+01 2.707107e+00 4.000000e+00
      endloop
   endfacet
   facet normal -0.000000e+00 -9.628307e-01 -2.701056e-01
      outer loop
         vertex 5.880266e+01 3.007370e+00 2.929667e+00
         vertex 5.919979e+01 2.707107e+00 4.000000e+00
         vertex 5.822002e+01 2.707107e+00 4.000000e+00
      endloop
   endfacet
   facet normal -0.000000e+00 -9.788905e-01 -2.043852e-01
      outer loop
         vertex 5.982690e+01 2.950077e+00 2.836309e+00
         vertex 5.979991e+01 2.707107e+00 4.000000e+00
         vertex 5.919979e+01 2.707107e+00 4.000000e+00
      endloop
   endfacet
   facet normal -2.804572e-01 -9.526524e-01 -1.174617e-01
      outer loop
         vertex 5.600000e+01 4.000000e+00 1.352340e+00
         vertex 5.715897e+01 3.673544e+00 1.232798e+00
         vertex 5.681125e+01 3.673544e+00 2.063015e+00
      endloop
   endfacet
   facet normal -2.090509e-01 -9.637099e-01 -1.660146e-01
      outer loop
         vertex 5.849489e+01 3.445652e+00 8.734670e-01
         vertex 5.823635e+01 3.307634e+00 2.000225e+00
         vertex 5.715897e+01 3.673544e+00 1.232798e+00
      endloop
   endfacet
   facet normal -2.998098e-01 -9.300100e-01 -2.125923e-01
      outer loop
         vertex 5.715842e+01 3.491534e+00 2.369644e+00
         vertex 5.681125e+01 3.673544e+00 2.063015e+00
         vertex 5.756540e+01 3.307634e+00 2.600198e+00
      endloop
   endfacet
   facet normal -1.631948e-01 -9.635790e-01 -2.118560e-01
      outer loop
         vertex 5.916336e+01 3.249200e+00 1.551907e+00
         vertex 5.880266e+01 3.007370e+00 2.929667e+00
         vertex 5.823635e+01 3.307634e+00 2.000225e+00
      endloop
   endfacet
   facet normal -1.255848e-01 -9.276786e-01 -3.516262e-01
      outer loop
         vertex 5.790054e+01 2.967766e+00 3.377156e+00
         vertex 5.756540e+01 3.307634e+00 2.600198e+00
         vertex 5.796181e+01 3.007370e+00 3.250788e+00
      endloop
   endfacet
   facet normal -1.264694e-01 -9.350610e-01 -3.311592e-01
      outer loop
         vertex 5.822002e+01 2.707107e+00 4.000000e+00
         vertex 5.796181e+01 3.007370e+00 3.250788e+00
         vertex 5.880266e+01 3.007370e+00 2.929667e+00
      endloop
   endfacet
   facet normal -7.624142e-02 -9.670269e-01 -2.429944e-01
      outer loop
         vertex 5.919979e+01 2.707107e+00 4.000000e+00
         vertex 5.880266e+01 3.007370e+00 2.929667e+00
         vertex 5.982690e+01 2.950077e+00 2.836309e+00
      endloop
   endfacet
   facet normal -2.243041e-01 -9.686776e-01 -1.065431e-01
      outer loop
         vertex 5.600000e+01 4.000000e+00 7.046600e-01
         vertex 5.776150e+01 3.624664e+00 4.087066e-01
         vertex 5.715897e+01 3.673544e+00 1.232798e+00
      endloop
   endfacet
   facet normal 0.000000e+00 1.000000e+00 0.000000e+00
      outer loop
         vertex 5.600000e+01 3.500000e+01 1.734723e-15
         vertex 5.600000e+01 3.500000e+01 2.000000e+00
         vertex 5.753074e+01 3.500000e+01 3.044819e-01
      endloop
   endfacet
   facet normal 0.000000e+00 1.000000e+00 0.000000e+00
      outer loop
         vertex 5.600000e+01 3.500000e+01 2.000000e+00
         vertex 5.741422e+01 3.500000e+01 2.585786e+00
         vertex 5.753074e+01 3.500000e+01 3.044819e-01
      endloop
   endfacet
   facet normal 0.000000e+00 1.000000e+00 0.000000e+00
      outer loop
         vertex 5.753074e+01 3.500000e+01 3.044819e-01
         vertex 5.741422e+01 3.500000e+01 2.585786e+00
         vertex 5.882843e+01 3.500000e+01 1.171573e+00
      endloop
   endfacet
   facet normal 0.000000e+00 1.000000e+00 0.000000e+00
      outer loop
         vertex 5.741422e+01 3.500000e+01 2.585786e+00
         vertex 5.800000e+01 3.500000e+01 4.000000e+00
         vertex 5.882843e+01 3.500000e+01 1.171573e+00
      endloop
   endfacet
   facet normal 0.000000e+00 1.000000e+00 0.000000e+00
      outer loop
         vertex 5.882843e+01 3.500000e+01 1.171573e+00
         vertex 5.800000e+01 3.500000e+01 4.000000e+00
         vertex 5.969552e+01 3.500000e+01 2.469266e+00
      endloop
   endfacet
   facet normal 0.000000e+00 1.000000e+00 0.000000e+00
      outer loop
         vertex 5.800000e+01 3.500000e+01 4.000000e+00
         vertex 6.000000e+01 3.500000e+01 4.000000e+00
         vertex 5.969552e+01 3.500000e+01 2.469266e+00
      endloop
   endfacet
   facet normal 2.256992e-01 -1.576155e-03 -9.741958e-01
      outer loop
         vertex 5.776150e+01 3.624664e+00 4.087066e-01
         vertex 5.600000e+01 4.000000e+00 0.000000e+00
         vertex 5.753074e+01 3.500000e+01 3.044819e-01
      endloop
   endfacet
   facet normal 1.950902e-01 5.488359e-17 -9.807853e-01
      outer loop
         vertex 5.600000e+01 4.000000e+00 0.000000e+00
         vertex 5.600000e+01 3.500000e+01 1.734723e-15
         vertex 5.753074e+01 3.500000e+01 3.044819e-01
      endloop
   endfacet
   facet normal 5.555698e-01 1.982667e-03 -8.314676e-01
      outer loop
         vertex 5.753074e+01 3.500000e+01 3.044819e-01
         vertex 5.882843e+01 3.500000e+01 1.171573e+00
         vertex 5.849489e+01 3.445652e+00 8.734670e-01
      endloop
   endfacet
   facet normal 8.314674e-01 2.116106e-03 -5.555695e-01
      outer loop
         vertex 5.882843e+01 3.500000e+01 1.171573e+00
         vertex 5.969552e+01 3.500000e+01 2.469266e+00
         vertex 5.916336e+01 3.249200e+00 1.551907e+00
      endloop
   endfacet
   facet normal 9.807838e-01 1.786425e-03 -1.950898e-01
      outer loop
         vertex 5.969552e+01 3.500000e+01 2.469266e+00
         vertex 6.000000e+01 3.500000e+01 4.000000e+00
         vertex 5.982690e+01 2.950077e+00 2.836309e+00
      endloop
   endfacet
   facet normal 9.891174e-01 0.000000e+00 -1.471284e-01
      outer loop
         vertex 6.000000e+01 3.500000e+01 4.000000e+00
         vertex 6.000000e+01 2.707107e+00 4.000000e+00
         vertex 5.982690e+01 2.950077e+00 2.836309e+00
      endloop
   endfacet
   facet normal 8.882901e-01 -1.618308e-03 -4.592799e-01
      outer loop
         vertex 5.982690e+01 2.950077e+00 2.836309e+00
         vertex 5.916336e+01 3.249200e+00 1.551907e+00
         vertex 5.969552e+01 3.500000e+01 2.469266e+00
      endloop
   endfacet
   facet normal 7.121881e-01 -8.960735e-04 -7.019881e-01
      outer loop
         vertex 5.916336e+01 3.249200e+00 1.551907e+00
         vertex 5.849489e+01 3.445652e+00 8.734670e-01
         vertex 5.882843e+01 3.500000e+01 1.171573e+00
      endloop
   endfacet
   facet normal 5.354788e-01 1.132916e-03 -8.445479e-01
      outer loop
         vertex 5.849489e+01 3.445652e+00 8.734670e-01
         vertex 5.776150e+01 3.624664e+00 4.087066e-01
         vertex 5.753074e+01 3.500000e+01 3.044819e-01
      endloop
   endfacet
   facet normal -3.826810e-01 -3.230890e-03 9.238749e-01
      outer loop
         vertex 5.715842e+01 3.491534e+00 2.369644e+00
         vertex 5.741422e+01 3.500000e+01 2.585786e+00
         vertex 5.600000e+01 3.500000e+01 2.000000e+00
      endloop
   endfacet
   facet normal -9.238702e-01 -4.572387e-03 3.826786e-01
      outer loop
         vertex 5.790054e+01 2.967766e+00 3.377156e+00
         vertex 5.800000e+01 3.500000e+01 4.000000e+00
         vertex 5.741422e+01 3.500000e+01 2.585786e+00
      endloop
   endfacet
   facet normal -9.874896e-01 0.000000e+00 1.576841e-01
      outer loop
         vertex 5.790054e+01 2.967766e+00 3.377156e+00
         vertex 5.800000e+01 2.707107e+00 4.000000e+00
         vertex 5.800000e+01 3.500000e+01 4.000000e+00
      endloop
   endfacet
   facet normal -8.045401e-01 2.457488e-03 5.938933e-01
      outer loop
         vertex 5.741422e+01 3.500000e+01 2.585786e+00
         vertex 5.715842e+01 3.491534e+00 2.369644e+00
         vertex 5.790054e+01 2.967766e+00 3.377156e+00
      endloop
   endfacet
   facet normal -3.039922e-01 0.000000e+00 9.526745e-01
      outer loop
         vertex 5.600000e+01 3.500000e+01 2.000000e+00
         vertex 5.600000e+01 4.000000e+00 2.000000e+00
         vertex 5.715842e+01 3.491534e+00 2.369644e+00
      endloop
   endfacet
   facet normal 0.000000e+00 -1.000000e+00 0.000000e+00
      outer loop
         vertex 5.800000e+01 2.707107e+00 4.000000e+00
         vertex 6.000000e+01 2.707107e+00 4.000000e+00
         vertex 5.800000e+01 2.707107e+00 4.500000e+01
      endloop
   endfacet
   facet normal -0.000000e+00 -1.000000e+00 -0.000000e+00
      outer loop
         vertex 6.000000e+01 2.707107e+00 4.000000e+00
         vertex 6.000000e+01 2.707107e+00 4.500000e+01
         vertex 5.800000e+01 2.707107e+00 4.500000e+01
      endloop
   endfacet
   facet normal -9.620579e-01 2.516642e-01 -1.054025e-01
      outer loop
         vertex 3.307634e+00 1.763653e+00 2.000225e+00
         vertex 3.673544e+00 3.188748e+00 2.063015e+00
         vertex 3.673544e+00 2.841035e+00 1.232798e+00
      endloop
   endfacet
   facet normal -9.268194e-01 2.503053e-01 -2.799161e-01
      outer loop
         vertex 3.307634e+00 2.434603e+00 2.600198e+00
         vertex 3.673544e+00 3.188748e+00 2.063015e+00
         vertex 3.307634e+00 1.763653e+00 2.000225e+00
      endloop
   endfacet
   facet normal -9.282292e-01 2.479733e-01 -2.773082e-01
      outer loop
         vertex 3.007370e+00 2.038193e+00 3.250788e+00
         vertex 3.307634e+00 2.434603e+00 2.600198e+00
         vertex 3.307634e+00 1.763653e+00 2.000225e+00
      endloop
   endfacet
   facet normal -9.628300e-01 9.636569e-02 -2.523332e-01
      outer loop
         vertex 3.007370e+00 1.197337e+00 2.929667e+00
         vertex 3.007370e+00 2.038193e+00 3.250788e+00
         vertex 3.307634e+00 1.763653e+00 2.000225e+00
      endloop
   endfacet
   facet normal -9.780520e-01 6.976254e-02 -1.963353e-01
      outer loop
         vertex 3.007370e+00 1.197337e+00 2.929667e+00
         vertex 2.844995e+00 5.612375e-02 3.333048e+00
         vertex 2.707107e+00 -6.938894e-15 4.000000e+00
      endloop
   endfacet
   facet normal -9.791102e-01 7.211249e-02 -1.901130e-01
      outer loop
         vertex 3.007370e+00 1.197337e+00 2.929667e+00
         vertex 3.219507e+00 7.504107e-01 1.667606e+00
         vertex 2.844995e+00 5.612375e-02 3.333048e+00
      endloop
   endfacet
   facet normal -9.793654e-01 1.346525e-01 -1.507054e-01
      outer loop
         vertex 3.307634e+00 1.763653e+00 2.000225e+00
         vertex 3.426680e+00 1.433707e+00 9.318001e-01
         vertex 3.219507e+00 7.504107e-01 1.667606e+00
      endloop
   endfacet
   facet normal -9.787279e-01 1.888362e-01 -8.020332e-02
      outer loop
         vertex 3.673544e+00 2.841035e+00 1.232798e+00
         vertex 3.615278e+00 2.197661e+00 4.290273e-01
         vertex 3.426680e+00 1.433707e+00 9.318001e-01
      endloop
   endfacet
   facet normal -9.779681e-01 2.087544e-01 0.000000e+00
      outer loop
         vertex 4.000000e+00 4.000000e+00 7.046600e-01
         vertex 4.000000e+00 4.000000e+00 0.000000e+00
         vertex 3.615278e+00 2.197661e+00 4.290273e-01
      endloop
   endfacet
   facet normal -9.625433e-01 2.711279e-01 0.000000e+00
      outer loop
         vertex 3.673544e+00 2.841035e+00 1.232798e+00
         vertex 4.000000e+00 4.000000e+00 1.352340e+00
         vertex 4.000000e+00 4.000000e+00 7.046600e-01
      endloop
   endfacet
   facet normal -9.277038e-01 3.733171e-01 0.000000e+00
      outer loop
         vertex 3.673544e+00 3.188748e+00 2.063015e+00
         vertex 4.000000e+00 4.000000e+00 1.676180e+00
         vertex 4.000000e+00 4.000000e+00 1.352340e+00
      endloop
   endfacet
   facet normal -9.277038e-01 3.733171e-01 0.000000e+00
      outer loop
         vertex 3.673544e+00 3.188748e+00 2.063015e+00
         vertex 4.000000e+00 4.000000e+00 1.838100e+00
         vertex 4.000000e+00 4.000000e+00 1.676180e+00
      endloop
   endfacet
   facet normal -9.277038e-01 3.733171e-01 0.000000e+00
      outer loop
         vertex 3.673544e+00 3.188748e+00 2.063015e+00
         vertex 4.000000e+00 4.000000e+00 1.919060e+00
         vertex 4.000000e+00 4.000000e+00 1.838100e+00
      endloop
   endfacet
   facet normal -9.277038e-01 3.733171e-01 0.000000e+00
      outer loop
         vertex 3.673544e+00 3.188748e+00 2.063015e+00
         vertex 4.000000e+00 4.000000e+00 1.959540e+00
         vertex 4.000000e+00 4.000000e+00 1.919060e+00
      endloop
   endfacet
   facet normal -9.277038e-01 3.733171e-01 0.000000e+00
      outer loop
         vertex 3.673544e+00 3.188748e+00 2.063015e+00
         vertex 4.000000e+00 4.000000e+00 1.979780e+00
         vertex 4.000000e+00 4.000000e+00 1.959540e+00
      endloop
   endfacet
   facet normal -9.277038e-01 3.733171e-01 0.000000e+00
      outer loop
         vertex 3.673544e+00 3.188748e+00 2.063015e+00
         vertex 4.000000e+00 4.000000e+00 2.000000e+00
         vertex 4.000000e+00 4.000000e+00 1.979780e+00
      endloop
   endfacet
   facet normal -9.223351e-01 3.603186e-01 -1.395292e-01
      outer loop
         vertex 3.673544e+00 3.188748e+00 2.063015e+00
         vertex 3.491437e+00 2.841386e+00 2.369781e+00
         vertex 4.000000e+00 4.000000e+00 2.000000e+00
      endloop
   endfacet
   facet normal -9.221459e-01 2.489492e-01 -2.960933e-01
      outer loop
         vertex 3.307634e+00 2.434603e+00 2.600198e+00
         vertex 2.966207e+00 2.098280e+00 3.380757e+00
         vertex 3.491437e+00 2.841386e+00 2.369781e+00
      endloop
   endfacet
   facet normal -9.202582e-01 1.506918e-01 -3.611327e-01
      outer loop
         vertex 3.007370e+00 2.038193e+00 3.250788e+00
         vertex 2.707107e+00 2.000000e+00 4.000000e+00
         vertex 2.966207e+00 2.098280e+00 3.380757e+00
      endloop
   endfacet
   facet normal -9.628307e-01 0.000000e+00 -2.701056e-01
      outer loop
         vertex 3.007370e+00 1.197337e+00 2.929667e+00
         vertex 2.707107e+00 -6.938894e-15 4.000000e+00
         vertex 2.707107e+00 2.000000e+00 4.000000e+00
      endloop
   endfacet
   facet normal -9.526523e-01 2.804575e-01 -1.174618e-01
      outer loop
         vertex 4.000000e+00 4.000000e+00 1.352340e+00
         vertex 3.673544e+00 2.841035e+00 1.232798e+00
         vertex 3.673544e+00 3.188748e+00 2.063015e+00
      endloop
   endfacet
   facet normal -9.636129e-01 2.055725e-01 -1.708515e-01
      outer loop
         vertex 3.426680e+00 1.433707e+00 9.318001e-01
         vertex 3.307634e+00 1.763653e+00 2.000225e+00
         vertex 3.673544e+00 2.841035e+00 1.232798e+00
      endloop
   endfacet
   facet normal -9.300104e-01 2.997699e-01 -2.126470e-01
      outer loop
         vertex 3.491437e+00 2.841386e+00 2.369781e+00
         vertex 3.673544e+00 3.188748e+00 2.063015e+00
         vertex 3.307634e+00 2.434603e+00 2.600198e+00
      endloop
   endfacet
   facet normal -9.638043e-01 1.550300e-01 -2.169033e-01
      outer loop
         vertex 3.219507e+00 7.504107e-01 1.667606e+00
         vertex 3.007370e+00 1.197337e+00 2.929667e+00
         vertex 3.307634e+00 1.763653e+00 2.000225e+00
      endloop
   endfacet
   facet normal -9.276593e-01 1.253501e-01 -3.517606e-01
      outer loop
         vertex 2.966207e+00 2.098280e+00 3.380757e+00
         vertex 3.307634e+00 2.434603e+00 2.600198e+00
         vertex 3.007370e+00 2.038193e+00 3.250788e+00
      endloop
   endfacet
   facet normal -9.217147e-01 1.383787e-01 -3.623441e-01
      outer loop
         vertex 2.707107e+00 2.000000e+00 4.000000e+00
         vertex 3.007370e+00 2.038193e+00 3.250788e+00
         vertex 3.007370e+00 1.197337e+00 2.929667e+00
      endloop
   endfacet
   facet normal -9.686666e-01 2.233738e-01 -1.085782e-01
      outer loop
         vertex 4.000000e+00 4.000000e+00 7.046600e-01
         vertex 3.615278e+00 2.197661e+00 4.290273e-01
         vertex 3.673544e+00 2.841035e+00 1.232798e+00
      endloop
   endfacet
   facet normal 9.620581e-01 1.054023e-01 -2.516635e-01
      outer loop
         vertex 5.660053e+01 2.000225e+00 1.763653e+00
         vertex 5.696644e+01 2.063015e+00 3.188748e+00
         vertex 5.696644e+01 1.232798e+00 2.841035e+00
      endloop
   endfacet
   facet normal 9.268198e-01 2.799155e-01 -2.503048e-01
      outer loop
         vertex 5.660053e+01 2.600198e+00 2.434603e+00
         vertex 5.696644e+01 2.063015e+00 3.188748e+00
         vertex 5.660053e+01 2.000225e+00 1.763653e+00
      endloop
   endfacet
   facet normal 9.282279e-01 2.773105e-01 -2.479754e-01
      outer loop
         vertex 5.630026e+01 3.250788e+00 2.038193e+00
         vertex 5.660053e+01 2.600198e+00 2.434603e+00
         vertex 5.660053e+01 2.000225e+00 1.763653e+00
      endloop
   endfacet
   facet normal 9.628293e-01 2.523354e-01 -9.636654e-02
      outer loop
         vertex 5.630026e+01 2.929667e+00 1.197337e+00
         vertex 5.630026e+01 3.250788e+00 2.038193e+00
         vertex 5.660053e+01 2.000225e+00 1.763653e+00
      endloop
   endfacet
   facet normal 9.225026e-01 3.859908e-01 -0.000000e+00
      outer loop
         vertex 5.625910e+01 3.380757e+00 2.098280e+00
         vertex 5.600000e+01 4.000000e+00 1.979780e+00
         vertex 5.600000e+01 4.000000e+00 2.000000e+00
      endloop
   endfacet
   facet normal 9.225026e-01 3.859908e-01 -0.000000e+00
      outer loop
         vertex 5.625910e+01 3.380757e+00 2.098280e+00
         vertex 5.600000e+01 4.000000e+00 1.959540e+00
         vertex 5.600000e+01 4.000000e+00 1.979780e+00
      endloop
   endfacet
   facet normal 9.225026e-01 3.859908e-01 -0.000000e+00
      outer loop
         vertex 5.625910e+01 3.380757e+00 2.098280e+00
         vertex 5.600000e+01 4.000000e+00 1.919060e+00
         vertex 5.600000e+01 4.000000e+00 1.959540e+00
      endloop
   endfacet
   facet normal 9.225026e-01 3.859908e-01 -0.000000e+00
      outer loop
         vertex 5.625910e+01 3.380757e+00 2.098280e+00
         vertex 5.600000e+01 4.000000e+00 1.838100e+00
         vertex 5.600000e+01 4.000000e+00 1.919060e+00
      endloop
   endfacet
   facet normal 9.282296e-01 3.720077e-01 -0.000000e+00
      outer loop
         vertex 5.630026e+01 3.250788e+00 2.038193e+00
         vertex 5.600000e+01 4.000000e+00 1.676180e+00
         vertex 5.600000e+01 4.000000e+00 1.838100e+00
      endloop
   endfacet
   facet normal 9.282296e-01 3.720077e-01 -0.000000e+00
      outer loop
         vertex 5.630026e+01 3.250788e+00 2.038193e+00
         vertex 5.600000e+01 4.000000e+00 1.352340e+00
         vertex 5.600000e+01 4.000000e+00 1.676180e+00
      endloop
   endfacet
   facet normal 9.628310e-01 2.701047e-01 -0.000000e+00
      outer loop
         vertex 5.630026e+01 2.929667e+00 1.197337e+00
         vertex 5.600000e+01 4.000000e+00 7.046600e-01
         vertex 5.600000e+01 4.000000e+00 1.352340e+00
      endloop
   endfacet
   facet normal 9.792897e-01 2.024640e-01 -0.000000e+00
      outer loop
         vertex 5.613789e+01 3.333046e+00 5.612406e-02
         vertex 5.600000e+01 4.000000e+00 0.000000e+00
         vertex 5.600000e+01 4.000000e+00 7.046600e-01
      endloop
   endfacet
   facet normal 9.791103e-01 1.901139e-01 -7.210983e-02
      outer loop
         vertex 5.630026e+01 2.929667e+00 1.197337e+00
         vertex 5.651240e+01 1.667606e+00 7.504109e-01
         vertex 5.613789e+01 3.333046e+00 5.612406e-02
      endloop
   endfacet
   facet normal 9.793654e-01 1.507051e-01 -1.346529e-01
      outer loop
         vertex 5.660053e+01 2.000225e+00 1.763653e+00
         vertex 5.671957e+01 9.317999e-01 1.433707e+00
         vertex 5.651240e+01 1.667606e+00 7.504109e-01
      endloop
   endfacet
   facet normal 9.787278e-01 8.020447e-02 -1.888361e-01
      outer loop
         vertex 5.696644e+01 1.232798e+00 2.841035e+00
         vertex 5.690817e+01 4.290274e-01 2.197661e+00
         vertex 5.671957e+01 9.317999e-01 1.433707e+00
      endloop
   endfacet
   facet normal 9.785220e-01 8.085130e-02 -1.896255e-01
      outer loop
         vertex 5.696644e+01 1.232798e+00 2.841035e+00
         vertex 5.729289e+01 -6.929882e-15 4.000000e+00
         vertex 5.690817e+01 4.290274e-01 2.197661e+00
      endloop
   endfacet
   facet normal 9.625437e-01 0.000000e+00 -2.711268e-01
      outer loop
         vertex 5.696644e+01 1.232798e+00 2.841035e+00
         vertex 5.729289e+01 2.000000e+00 4.000000e+00
         vertex 5.729289e+01 -6.929882e-15 4.000000e+00
      endloop
   endfacet
   facet normal 9.223359e-01 1.395273e-01 -3.603175e-01
      outer loop
         vertex 5.696644e+01 2.063015e+00 3.188748e+00
         vertex 5.678433e+01 2.369781e+00 2.841386e+00
         vertex 5.729289e+01 2.000000e+00 4.000000e+00
      endloop
   endfacet
   facet normal 9.221458e-01 2.960927e-01 -2.489503e-01
      outer loop
         vertex 5.660053e+01 2.600198e+00 2.434603e+00
         vertex 5.625910e+01 3.380757e+00 2.098280e+00
         vertex 5.678433e+01 2.369781e+00 2.841386e+00
      endloop
   endfacet
   facet normal 9.211478e-01 1.503564e-01 -3.589982e-01
      outer loop
         vertex 5.729289e+01 2.000000e+00 4.000000e+00
         vertex 5.696644e+01 1.232798e+00 2.841035e+00
         vertex 5.696644e+01 2.063015e+00 3.188748e+00
      endloop
   endfacet
   facet normal 9.636130e-01 1.708509e-01 -2.055721e-01
      outer loop
         vertex 5.671957e+01 9.317999e-01 1.433707e+00
         vertex 5.660053e+01 2.000225e+00 1.763653e+00
         vertex 5.696644e+01 1.232798e+00 2.841035e+00
      endloop
   endfacet
   facet normal 9.300107e-01 2.126344e-01 -2.997778e-01
      outer loop
         vertex 5.678433e+01 2.369781e+00 2.841386e+00
         vertex 5.696644e+01 2.063015e+00 3.188748e+00
         vertex 5.660053e+01 2.600198e+00 2.434603e+00
      endloop
   endfacet
   facet normal 9.638036e-01 2.169054e-01 -1.550311e-01
      outer loop
         vertex 5.651240e+01 1.667606e+00 7.504109e-01
         vertex 5.630026e+01 2.929667e+00 1.197337e+00
         vertex 5.660053e+01 2.000225e+00 1.763653e+00
      endloop
   endfacet
   facet normal 9.276599e-01 3.517505e-01 -1.253739e-01
      outer loop
         vertex 5.625910e+01 3.380757e+00 2.098280e+00
         vertex 5.660053e+01 2.600198e+00 2.434603e+00
         vertex 5.630026e+01 3.250788e+00 2.038193e+00
      endloop
   endfacet
   facet normal 9.530107e-01 2.830014e-01 -1.080778e-01
      outer loop
         vertex 5.600000e+01 4.000000e+00 1.352340e+00
         vertex 5.630026e+01 3.250788e+00 2.038193e+00
         vertex 5.630026e+01 2.929667e+00 1.197337e+00
      endloop
   endfacet
   facet normal 9.324332e-01 3.449883e-01 -1.074776e-01
      outer loop
         vertex 5.630026e+01 3.250788e+00 2.038193e+00
         vertex 5.600000e+01 4.000000e+00 1.838100e+00
         vertex 5.625910e+01 3.380757e+00 2.098280e+00
      endloop
   endfacet
   facet normal 9.673643e-01 2.484437e-01 -4.982102e-02
      outer loop
         vertex 5.613789e+01 3.333046e+00 5.612406e-02
         vertex 5.600000e+01 4.000000e+00 7.046600e-01
         vertex 5.630026e+01 2.929667e+00 1.197337e+00
      endloop
   endfacet
   facet normal -1.910024e-03 -2.311827e-01 -9.729085e-01
      outer loop
         vertex 3.615278e+00 2.197661e+00 4.290273e-01
         vertex 4.000000e+00 4.000000e+00 0.000000e+00
         vertex 5.613789e+01 3.333046e+00 5.612406e-02
      endloop
   endfacet
   facet normal -0.000000e+00 -8.385348e-02 -9.964781e-01
      outer loop
         vertex 4.000000e+00 4.000000e+00 0.000000e+00
         vertex 5.600000e+01 4.000000e+00 0.000000e+00
         vertex 5.613789e+01 3.333046e+00 5.612406e-02
      endloop
   endfacet
   facet normal 1.756365e-03 -3.844451e-01 -9.231462e-01
      outer loop
         vertex 5.613789e+01 3.333046e+00 5.612406e-02
         vertex 5.651240e+01 1.667606e+00 7.504109e-01
         vertex 3.615278e+00 2.197661e+00 4.290273e-01
      endloop
   endfacet
   facet normal 4.938451e-04 -6.804019e-01 -7.328390e-01
      outer loop
         vertex 5.651240e+01 1.667606e+00 7.504109e-01
         vertex 5.671957e+01 9.317999e-01 1.433707e+00
         vertex 3.426680e+00 1.433707e+00 9.318001e-01
      endloop
   endfacet
   facet normal 4.281999e-04 -8.352826e-01 -5.498208e-01
      outer loop
         vertex 5.671957e+01 9.317999e-01 1.433707e+00
         vertex 5.690817e+01 4.290274e-01 2.197661e+00
         vertex 3.219507e+00 7.504107e-01 1.667606e+00
      endloop
   endfacet
   facet normal 1.838449e-03 -9.727284e-01 -2.319400e-01
      outer loop
         vertex 5.690817e+01 4.290274e-01 2.197661e+00
         vertex 5.729289e+01 -6.929882e-15 4.000000e+00
         vertex 2.844995e+00 5.612375e-02 3.333048e+00
      endloop
   endfacet
   facet normal 1.645166e-19 -9.964781e-01 -8.385322e-02
      outer loop
         vertex 5.729289e+01 -6.929882e-15 4.000000e+00
         vertex 2.707107e+00 -6.938894e-15 4.000000e+00
         vertex 2.844995e+00 5.612375e-02 3.333048e+00
      endloop
   endfacet
   facet normal -1.722231e-03 -9.228685e-01 -3.851113e-01
      outer loop
         vertex 2.844995e+00 5.612375e-02 3.333048e+00
         vertex 3.219507e+00 7.504107e-01 1.667606e+00
         vertex 5.690817e+01 4.290274e-01 2.197661e+00
      endloop
   endfacet
   facet normal -4.911428e-04 -7.327007e-01 -6.805509e-01
      outer loop
         vertex 3.219507e+00 7.504107e-01 1.667606e+00
         vertex 3.426680e+00 1.433707e+00 9.318001e-01
         vertex 5.671957e+01 9.317999e-01 1.433707e+00
      endloop
   endfacet
   facet normal -4.325304e-04 -5.496725e-01 -8.353801e-01
      outer loop
         vertex 3.426680e+00 1.433707e+00 9.318001e-01
         vertex 3.615278e+00 2.197661e+00 4.290273e-01
         vertex 5.651240e+01 1.667606e+00 7.504109e-01
      endloop
   endfacet
   facet normal 0.000000e+00 1.567483e-01 9.876386e-01
      outer loop
         vertex 4.000000e+00 4.000000e+00 2.000000e+00
         vertex 5.625910e+01 3.380757e+00 2.098280e+00
         vertex 5.600000e+01 4.000000e+00 2.000000e+00
      endloop
   endfacet
   facet normal -1.899096e-03 5.916149e-01 8.062184e-01
      outer loop
         vertex 3.491437e+00 2.841386e+00 2.369781e+00
         vertex 5.678433e+01 2.369781e+00 2.841386e+00
         vertex 5.625910e+01 3.380757e+00 2.098280e+00
      endloop
   endfacet
   facet normal -1.750629e-03 9.524324e-01 3.047450e-01
      outer loop
         vertex 2.966207e+00 2.098280e+00 3.380757e+00
         vertex 5.729289e+01 2.000000e+00 4.000000e+00
         vertex 5.678433e+01 2.369781e+00 2.841386e+00
      endloop
   endfacet
   facet normal -0.000000e+00 9.876385e-01 1.567486e-01
      outer loop
         vertex 2.966207e+00 2.098280e+00 3.380757e+00
         vertex 2.707107e+00 2.000000e+00 4.000000e+00
         vertex 5.729289e+01 2.000000e+00 4.000000e+00
      endloop
   endfacet
   facet normal 1.879523e-03 8.052818e-01 5.928893e-01
      outer loop
         vertex 5.678433e+01 2.369781e+00 2.841386e+00
         vertex 3.491437e+00 2.841386e+00 2.369781e+00
         vertex 2.966207e+00 2.098280e+00 3.380757e+00
      endloop
   endfacet
   facet normal 1.802271e-03 3.033294e-01 9.528840e-01
      outer loop
         vertex 5.625910e+01 3.380757e+00 2.098280e+00
         vertex 4.000000e+00 4.000000e+00 2.000000e+00
         vertex 3.491437e+00 2.841386e+00 2.369781e+00
      endloop
   endfacet
   facet normal -1.000000e+00 0.000000e+00 0.000000e+00
      outer loop
         vertex 2.707107e+00 2.000000e+00 4.000000e+00
         vertex 2.707107e+00 -6.938894e-15 4.000000e+00
         vertex 2.707107e+00 2.000000e+00 4.500000e+01
      endloop
   endfacet
   facet normal -1.000000e+00 0.000000e+00 0.000000e+00
      outer loop
         vertex 2.707107e+00 -6.938894e-15 4.000000e+00
         vertex 2.707107e+00 -1.500736e-13 4.500000e+01
         vertex 2.707107e+00 2.000000e+00 4.500000e+01
      endloop
   endfacet
   facet normal 3.669570e-19 -1.000000e+00 -1.510129e-14
      outer loop
         vertex 2.707107e+00 -1.500736e-13 4.500000e+01
         vertex 2.684141e+01 4.472224e-14 3.210130e+01
         vertex 5.729289e+01 -1.500536e-13 4.500000e+01
      endloop
   endfacet
   facet normal 5.045644e-14 -1.000000e+00 -1.342189e-13
      outer loop
         vertex 2.684141e+01 4.472224e-14 3.210130e+01
         vertex 2.889750e+01 4.155534e-14 3.289784e+01
         vertex 5.729289e+01 -1.500536e-13 4.500000e+01
      endloop
   endfacet
   facet normal -6.657294e-15 -1.000000e+00 -3.490822e-15
      outer loop
         vertex 5.729289e+01 -1.500536e-13 4.500000e+01
         vertex 3.478811e+01 4.998006e-14 3.061581e+01
         vertex 5.729289e+01 -6.929882e-15 4.000000e+00
      endloop
   endfacet
   facet normal -1.635158e-14 -1.000000e+00 -1.168775e-14
      outer loop
         vertex 3.478811e+01 4.998006e-14 3.061581e+01
         vertex 3.577095e+01 5.697857e-14 2.864198e+01
         vertex 5.729289e+01 -6.929882e-15 4.000000e+00
      endloop
   endfacet
   facet normal 1.650981e-19 -1.000000e+00 5.112315e-15
      outer loop
         vertex 5.729289e+01 -6.929882e-15 4.000000e+00
         vertex 3.216745e+01 8.204667e-14 2.140517e+01
         vertex 2.707107e+00 -6.938894e-15 4.000000e+00
      endloop
   endfacet
   facet normal -2.440388e-15 -1.000000e+00 9.243246e-15
      outer loop
         vertex 3.216745e+01 8.204667e-14 2.140517e+01
         vertex 3.000000e+01 8.359103e-14 2.100000e+01
         vertex 2.707107e+00 -6.938894e-15 4.000000e+00
      endloop
   endfacet
   facet normal 6.451335e-15 -1.000000e+00 -3.491091e-15
      outer loop
         vertex 2.707107e+00 -6.938894e-15 4.000000e+00
         vertex 2.595783e+01 7.824389e-14 2.256595e+01
         vertex 2.707107e+00 -1.500736e-13 4.500000e+01
      endloop
   endfacet
   facet normal 2.280105e-14 -1.000000e+00 1.345380e-14
      outer loop
         vertex 2.595783e+01 7.824389e-14 2.256595e+01
         vertex 2.462902e+01 7.161933e-14 2.432557e+01
         vertex 2.707107e+00 -1.500736e-13 4.500000e+01
      endloop
   endfacet
   facet normal 3.895716e-15 -1.000000e+00 -7.812841e-15
      outer loop
         vertex 2.707107e+00 -1.500736e-13 4.500000e+01
         vertex 2.521190e+01 4.998006e-14 3.061581e+01
         vertex 2.684141e+01 4.472224e-14 3.210130e+01
      endloop
   endfacet
   facet normal 5.024137e-15 -1.000000e+00 -6.047370e-15
      outer loop
         vertex 2.521190e+01 4.998006e-14 3.061581e+01
         vertex 2.707107e+00 -1.500736e-13 4.500000e+01
         vertex 2.422905e+01 5.697857e-14 2.864198e+01
      endloop
   endfacet
   facet normal 6.599004e-15 -1.000000e+00 -3.975347e-15
      outer loop
         vertex 2.422905e+01 5.697857e-14 2.864198e+01
         vertex 2.707107e+00 -1.500736e-13 4.500000e+01
         vertex 2.402559e+01 6.436422e-14 2.644639e+01
      endloop
   endfacet
   facet normal 9.412235e-15 -1.000000e+00 -7.428859e-16
      outer loop
         vertex 2.707107e+00 -1.500736e-13 4.500000e+01
         vertex 2.462902e+01 7.161933e-14 2.432557e+01
         vertex 2.402559e+01 6.436422e-14 2.644639e+01
      endloop
   endfacet
   facet normal 2.742628e-15 -1.000000e+00 1.153440e-15
      outer loop
         vertex 2.595783e+01 7.824389e-14 2.256595e+01
         vertex 2.707107e+00 -6.938894e-15 4.000000e+00
         vertex 2.783255e+01 8.204667e-14 2.140517e+01
      endloop
   endfacet
   facet normal 1.313728e-15 -1.000000e+00 3.216146e-15
      outer loop
         vertex 2.707107e+00 -6.938894e-15 4.000000e+00
         vertex 3.000000e+01 8.359103e-14 2.100000e+01
         vertex 2.783255e+01 8.204667e-14 2.140517e+01
      endloop
   endfacet
   facet normal -2.742457e-15 -1.000000e+00 1.153169e-15
      outer loop
         vertex 3.216745e+01 8.204667e-14 2.140517e+01
         vertex 5.729289e+01 -6.929882e-15 4.000000e+00
         vertex 3.404218e+01 7.824389e-14 2.256595e+01
      endloop
   endfacet
   facet normal -3.909169e-15 -1.000000e+00 -3.079405e-16
      outer loop
         vertex 3.404218e+01 7.824389e-14 2.256595e+01
         vertex 5.729289e+01 -6.929882e-15 4.000000e+00
         vertex 3.537098e+01 7.250751e-14 2.432557e+01
      endloop
   endfacet
   facet normal -5.684214e-15 -1.000000e+00 -2.222395e-15
      outer loop
         vertex 5.729289e+01 -6.929882e-15 4.000000e+00
         vertex 3.597440e+01 6.436422e-14 2.644639e+01
         vertex 3.537098e+01 7.250751e-14 2.432557e+01
      endloop
   endfacet
   facet normal -7.630546e-15 -1.000000e+00 -4.070927e-15
      outer loop
         vertex 3.597440e+01 6.436422e-14 2.644639e+01
         vertex 5.729289e+01 -6.929882e-15 4.000000e+00
         vertex 3.577095e+01 5.697857e-14 2.864198e+01
      endloop
   endfacet
   facet normal -3.895191e-15 -1.000000e+00 -7.812270e-15
      outer loop
         vertex 3.478811e+01 4.998006e-14 3.061581e+01
         vertex 5.729289e+01 -1.500536e-13 4.500000e+01
         vertex 3.315859e+01 4.472224e-14 3.210130e+01
      endloop
   endfacet
   facet normal -2.498579e-15 -1.000000e+00 -1.042542e-14
      outer loop
         vertex 5.729289e+01 -1.500536e-13 4.500000e+01
         vertex 3.110250e+01 4.155534e-14 3.289784e+01
         vertex 3.315859e+01 4.472224e-14 3.210130e+01
      endloop
   endfacet
   facet normal 0.000000e+00 -1.000000e+00 -1.583262e-14
      outer loop
         vertex 3.110250e+01 4.155534e-14 3.289784e+01
         vertex 5.729289e+01 -1.500536e-13 4.500000e+01
         vertex 2.889750e+01 4.155534e-14 3.289784e+01
      endloop
   endfacet
   facet normal 0.000000e+00 1.000000e+00 0.000000e+00
      outer loop
         vertex 2.707107e+00 2.000000e+00 4.500000e+01
         vertex 2.521190e+01 2.000000e+00 3.061581e+01
         vertex 2.707107e+00 2.000000e+00 4.000000e+00
      endloop
   endfacet
   facet normal 0.000000e+00 1.000000e+00 -0.000000e+00
      outer loop
         vertex 2.521190e+01 2.000000e+00 3.061581e+01
         vertex 2.422905e+01 2.000000e+00 2.864198e+01
         vertex 2.707107e+00 2.000000e+00 4.000000e+00
      endloop
   endfacet
   facet normal 0.000000e+00 1.000000e+00 0.000000e+00
      outer loop
         vertex 2.707107e+00 2.000000e+00 4.000000e+00
         vertex 2.783255e+01 2.000000e+00 2.140517e+01
         vertex 5.729289e+01 2.000000e+00 4.000000e+00
      endloop
   endfacet
   facet normal 0.000000e+00 1.000000e+00 0.000000e+00
      outer loop
         vertex 2.783255e+01 2.000000e+00 2.140517e+01
         vertex 3.000000e+01 2.000000e+00 2.100000e+01
         vertex 5.729289e+01 2.000000e+00 4.000000e+00
      endloop
   endfacet
   facet normal -0.000000e+00 1.000000e+00 0.000000e+00
      outer loop
         vertex 5.729289e+01 2.000000e+00 4.000000e+00
         vertex 3.404218e+01 2.000000e+00 2.256595e+01
         vertex 5.729289e+01 2.000000e+00 4.500000e+01
      endloop
   endfacet
   facet normal -0.000000e+00 1.000000e+00 0.000000e+00
      outer loop
         vertex 3.404218e+01 2.000000e+00 2.256595e+01
         vertex 3.537098e+01 2.000000e+00 2.432557e+01
         vertex 5.729289e+01 2.000000e+00 4.500000e+01
      endloop
   endfacet
   facet normal 0.000000e+00 1.000000e+00 -0.000000e+00
      outer loop
         vertex 5.729289e+01 2.000000e+00 4.500000e+01
         vertex 3.315859e+01 2.000000e+00 3.210130e+01
         vertex 2.707107e+00 2.000000e+00 4.500000e+01
      endloop
   endfacet
   facet normal -0.000000e+00 1.000000e+00 -0.000000e+00
      outer loop
         vertex 3.315859e+01 2.000000e+00 3.210130e+01
         vertex 3.110250e+01 2.000000e+00 3.289784e+01
         vertex 2.707107e+00 2.000000e+00 4.500000e+01
      endloop
   endfacet
   facet normal 0.000000e+00 1.000000e+00 0.000000e+00
      outer loop
         vertex 2.707107e+00 2.000000e+00 4.500000e+01
         vertex 2.889750e+01 2.000000e+00 3.289784e+01
         vertex 2.684141e+01 2.000000e+00 3.210130e+01
      endloop
   endfacet
   facet normal 0.000000e+00 1.000000e+00 0.000000e+00
      outer loop
         vertex 2.889750e+01 2.000000e+00 3.289784e+01
         vertex 2.707107e+00 2.000000e+00 4.500000e+01
         vertex 3.110250e+01 2.000000e+00 3.289784e+01
      endloop
   endfacet
   facet normal 0.000000e+00 1.000000e+00 0.000000e+00
      outer loop
         vertex 3.315859e+01 2.000000e+00 3.210130e+01
         vertex 5.729289e+01 2.000000e+00 4.500000e+01
         vertex 3.478811e+01 2.000000e+00 3.061581e+01
      endloop
   endfacet
   facet normal 0.000000e+00 1.000000e+00 -0.000000e+00
      outer loop
         vertex 5.729289e+01 2.000000e+00 4.500000e+01
         vertex 3.577095e+01 2.000000e+00 2.864198e+01
         vertex 3.478811e+01 2.000000e+00 3.061581e+01
      endloop
   endfacet
   facet normal 0.000000e+00 1.000000e+00 0.000000e+00
      outer loop
         vertex 3.597440e+01 2.000000e+00 2.644639e+01
         vertex 5.729289e+01 2.000000e+00 4.500000e+01
         vertex 3.537098e+01 2.000000e+00 2.432557e+01
      endloop
   endfacet
   facet normal 0.000000e+00 1.000000e+00 0.000000e+00
      outer loop
         vertex 3.404218e+01 2.000000e+00 2.256595e+01
         vertex 5.729289e+01 2.000000e+00 4.000000e+00
         vertex 3.216745e+01 2.000000e+00 2.140517e+01
      endloop
   endfacet
   facet normal -0.000000e+00 1.000000e+00 0.000000e+00
      outer loop
         vertex 5.729289e+01 2.000000e+00 4.000000e+00
         vertex 3.000000e+01 2.000000e+00 2.100000e+01
         vertex 3.216745e+01 2.000000e+00 2.140517e+01
      endloop
   endfacet
   facet normal 0.000000e+00 1.000000e+00 0.000000e+00
      outer loop
         vertex 2.783255e+01 2.000000e+00 2.140517e+01
         vertex 2.707107e+00 2.000000e+00 4.000000e+00
         vertex 2.595783e+01 2.000000e+00 2.256595e+01
      endloop
   endfacet
   facet normal 0.000000e+00 1.000000e+00 0.000000e+00
      outer loop
         vertex 2.595783e+01 2.000000e+00 2.256595e+01
         vertex 2.707107e+00 2.000000e+00 4.000000e+00
         vertex 2.462902e+01 2.000000e+00 2.432557e+01
      endloop
   endfacet
   facet normal 0.000000e+00 1.000000e+00 0.000000e+00
      outer loop
         vertex 2.707107e+00 2.000000e+00 4.000000e+00
         vertex 2.402559e+01 2.000000e+00 2.644639e+01
         vertex 2.462902e+01 2.000000e+00 2.432557e+01
      endloop
   endfacet
   facet normal 0.000000e+00 1.000000e+00 0.000000e+00
      outer loop
         vertex 2.402559e+01 2.000000e+00 2.644639e+01
         vertex 2.707107e+00 2.000000e+00 4.000000e+00
         vertex 2.422905e+01 2.000000e+00 2.864198e+01
      endloop
   endfacet
   facet normal 0.000000e+00 1.000000e+00 0.000000e+00
      outer loop
         vertex 2.521190e+01 2.000000e+00 3.061581e+01
         vertex 2.707107e+00 2.000000e+00 4.500000e+01
         vertex 2.684141e+01 2.000000e+00 3.210130e+01
      endloop
   endfacet
   facet normal 0.000000e+00 1.000000e+00 0.000000e+00
      outer loop
         vertex 3.577095e+01 2.000000e+00 2.864198e+01
         vertex 5.729289e+01 2.000000e+00 4.500000e+01
         vertex 3.597440e+01 2.000000e+00 2.644639e+01
      endloop
   endfacet
   facet normal -0.000000e+00 0.000000e+00 1.000000e+00
      outer loop
         vertex 5.729289e+01 2.000000e+00 4.500000e+01
         vertex 2.707107e+00 2.000000e+00 4.500000e+01
         vertex 2.707107e+00 -1.500736e-13 4.500000e+01
      endloop
   endfacet
   facet normal 0.000000e+00 0.000000e+00 1.000000e+00
      outer loop
         vertex 5.729289e+01 -7.502679e-14 4.500000e+01
         vertex 5.729289e+01 2.000000e+00 4.500000e+01
         vertex 2.707107e+00 -1.500736e-13 4.500000e+01
      endloop
   endfacet
   facet normal 1.000000e+00 0.000000e+00 0.000000e+00
      outer loop
         vertex 5.729289e+01 2.000000e+00 4.000000e+00
         vertex 5.729289e+01 2.000000e+00 4.500000e+01
         vertex 5.729289e+01 -6.929882e-15 4.000000e+00
      endloop
   endfacet
   facet normal 1.000000e+00 -0.000000e+00 0.000000e+00
      outer loop
         vertex 5.729289e+01 2.000000e+00 4.500000e+01
         vertex 5.729289e+01 -1.500536e-13 4.500000e+01
         vertex 5.729289e+01 -6.929882e-15 4.000000e+00
      endloop
   endfacet
   facet normal 0.000000e+00 8.682431e-01 4.961389e-01
      outer loop
         vertex 6.000000e+01 1.500000e+01 4.500000e+01
         vertex 6.000000e+01 3.500000e+01 1.000000e+01
         vertex 5.800000e+01 3.500000e+01 1.000000e+01
      endloop
   endfacet
   facet normal 0.000000e+00 8.682431e-01 4.961389e-01
      outer loop
         vertex 5.800000e+01 1.500000e+01 4.500000e+01
         vertex 6.000000e+01 1.500000e+01 4.500000e+01
         vertex 5.800000e+01 3.500000e+01 1.000000e+01
      endloop
   endfacet
   facet normal 0.000000e+00 8.682431e-01 4.961389e-01
      outer loop
         vertex -7.616130e-14 1.500000e+01 4.500000e+01
         vertex 2.000000e+00 1.500000e+01 4.500000e+01
         vertex 2.000000e+00 3.500000e+01 1.000000e+01
      endloop
   endfacet
   facet normal 0.000000e+00 8.682431e-01 4.961389e-01
      outer loop
         vertex -2.864375e-14 3.500000e+01 1.000000e+01
         vertex -7.616130e-14 1.500000e+01 4.500000e+01
         vertex 2.000000e+00 3.500000e+01 1.000000e+01
      endloop
   endfacet
endsolid
