solid 
   facet normal 0.000000e+00 0.000000e+00 1.000000e+00
      outer loop
         vertex 1.498012e+02 -3.807344e+01 2.090000e+02
         vertex 1.498012e+02 -2.157344e+01 2.090000e+02
         vertex 1.494967e+02 -3.960418e+01 2.090000e+02
      endloop
   endfacet
   facet normal -0.000000e+00 0.000000e+00 1.000000e+00
      outer loop
         vertex 1.498012e+02 -2.157344e+01 2.090000e+02
         vertex 1.478012e+02 -2.157344e+01 2.090000e+02
         vertex 1.494967e+02 -3.960418e+01 2.090000e+02
      endloop
   endfacet
   facet normal 0.000000e+00 0.000000e+00 1.000000e+00
      outer loop
         vertex 1.494967e+02 -3.960418e+01 2.090000e+02
         vertex 1.478012e+02 -2.157344e+01 2.090000e+02
         vertex 1.486296e+02 -4.090187e+01 2.090000e+02
      endloop
   endfacet
   facet normal -0.000000e+00 0.000000e+00 1.000000e+00
      outer loop
         vertex 1.478012e+02 -2.157344e+01 2.090000e+02
         vertex 1.478012e+02 -3.807344e+01 2.090000e+02
         vertex 1.486296e+02 -4.090187e+01 2.090000e+02
      endloop
   endfacet
   facet normal 0.000000e+00 0.000000e+00 1.000000e+00
      outer loop
         vertex 1.486296e+02 -4.090187e+01 2.090000e+02
         vertex 1.478012e+02 -3.807344e+01 2.090000e+02
         vertex 1.473319e+02 -4.176896e+01 2.090000e+02
      endloop
   endfacet
   facet normal -0.000000e+00 0.000000e+00 1.000000e+00
      outer loop
         vertex 1.478012e+02 -3.807344e+01 2.090000e+02
         vertex 1.475332e+02 -3.907344e+01 2.090000e+02
         vertex 1.473319e+02 -4.176896e+01 2.090000e+02
      endloop
   endfacet
   facet normal 0.000000e+00 0.000000e+00 1.000000e+00
      outer loop
         vertex 1.473319e+02 -4.176896e+01 2.090000e+02
         vertex 1.475332e+02 -3.907344e+01 2.090000e+02
         vertex 1.458012e+02 -4.207344e+01 2.090000e+02
      endloop
   endfacet
   facet normal -0.000000e+00 0.000000e+00 1.000000e+00
      outer loop
         vertex 1.475332e+02 -3.907344e+01 2.090000e+02
         vertex 1.468012e+02 -3.980550e+01 2.090000e+02
         vertex 1.458012e+02 -4.207344e+01 2.090000e+02
      endloop
   endfacet
   facet normal 0.000000e+00 0.000000e+00 1.000000e+00
      outer loop
         vertex 1.458012e+02 -4.207344e+01 2.090000e+02
         vertex 1.468012e+02 -3.980550e+01 2.090000e+02
         vertex 1.458012e+02 -4.007344e+01 2.090000e+02
      endloop
   endfacet
   facet normal 0.000000e+00 0.000000e+00 1.000000e+00
      outer loop
         vertex 1.478012e+02 4.142656e+01 2.090000e+02
         vertex 1.478012e+02 2.042656e+01 2.090000e+02
         vertex 1.481057e+02 4.295729e+01 2.090000e+02
      endloop
   endfacet
   facet normal 0.000000e+00 0.000000e+00 1.000000e+00
      outer loop
         vertex 1.478012e+02 2.042656e+01 2.090000e+02
         vertex 1.498012e+02 2.042656e+01 2.090000e+02
         vertex 1.481057e+02 4.295729e+01 2.090000e+02
      endloop
   endfacet
   facet normal 0.000000e+00 0.000000e+00 1.000000e+00
      outer loop
         vertex 1.481057e+02 4.295729e+01 2.090000e+02
         vertex 1.498012e+02 2.042656e+01 2.090000e+02
         vertex 1.489728e+02 4.425499e+01 2.090000e+02
      endloop
   endfacet
   facet normal 0.000000e+00 0.000000e+00 1.000000e+00
      outer loop
         vertex 1.498012e+02 2.042656e+01 2.090000e+02
         vertex 1.498012e+02 4.142656e+01 2.090000e+02
         vertex 1.489728e+02 4.425499e+01 2.090000e+02
      endloop
   endfacet
   facet normal 0.000000e+00 -0.000000e+00 1.000000e+00
      outer loop
         vertex 1.489728e+02 4.425499e+01 2.090000e+02
         vertex 1.498012e+02 4.142656e+01 2.090000e+02
         vertex 1.502705e+02 4.512207e+01 2.090000e+02
      endloop
   endfacet
   facet normal 0.000000e+00 -0.000000e+00 1.000000e+00
      outer loop
         vertex 1.498012e+02 4.142656e+01 2.090000e+02
         vertex 1.500692e+02 4.242656e+01 2.090000e+02
         vertex 1.502705e+02 4.512207e+01 2.090000e+02
      endloop
   endfacet
   facet normal 0.000000e+00 0.000000e+00 1.000000e+00
      outer loop
         vertex 1.502705e+02 4.512207e+01 2.090000e+02
         vertex 1.500692e+02 4.242656e+01 2.090000e+02
         vertex 1.518012e+02 4.542656e+01 2.090000e+02
      endloop
   endfacet
   facet normal 0.000000e+00 -0.000000e+00 1.000000e+00
      outer loop
         vertex 1.500692e+02 4.242656e+01 2.090000e+02
         vertex 1.508012e+02 4.315860e+01 2.090000e+02
         vertex 1.518012e+02 4.542656e+01 2.090000e+02
      endloop
   endfacet
   facet normal 0.000000e+00 0.000000e+00 1.000000e+00
      outer loop
         vertex 1.518012e+02 4.542656e+01 2.090000e+02
         vertex 1.518012e+02 4.342656e+01 2.090000e+02
         vertex 1.678012e+02 4.542656e+01 2.090000e+02
      endloop
   endfacet
   facet normal 0.000000e+00 -0.000000e+00 1.000000e+00
      outer loop
         vertex 1.518012e+02 4.342656e+01 2.090000e+02
         vertex 1.678012e+02 4.342656e+01 2.090000e+02
         vertex 1.678012e+02 4.542656e+01 2.090000e+02
      endloop
   endfacet
   facet normal 0.000000e+00 0.000000e+00 1.000000e+00
      outer loop
         vertex 1.518012e+02 4.342656e+01 2.090000e+02
         vertex 1.518012e+02 4.542656e+01 2.090000e+02
         vertex 1.508012e+02 4.315860e+01 2.090000e+02
      endloop
   endfacet
   facet normal 9.659233e-01 -2.588284e-01 0.000000e+00
      outer loop
         vertex 1.500692e+02 4.242656e+01 2.600000e+01
         vertex 1.500692e+02 4.242656e+01 2.090000e+02
         vertex 1.498012e+02 4.142656e+01 2.090000e+02
      endloop
   endfacet
   facet normal 9.659233e-01 -2.588284e-01 0.000000e+00
      outer loop
         vertex 1.498012e+02 4.142656e+01 2.600000e+01
         vertex 1.500692e+02 4.242656e+01 2.600000e+01
         vertex 1.498012e+02 4.142656e+01 2.090000e+02
      endloop
   endfacet
   facet normal 7.071105e-01 -7.071031e-01 0.000000e+00
      outer loop
         vertex 1.508012e+02 4.315860e+01 2.600000e+01
         vertex 1.508012e+02 4.315860e+01 2.090000e+02
         vertex 1.500692e+02 4.242656e+01 2.090000e+02
      endloop
   endfacet
   facet normal 7.071105e-01 -7.071031e-01 0.000000e+00
      outer loop
         vertex 1.500692e+02 4.242656e+01 2.600000e+01
         vertex 1.508012e+02 4.315860e+01 2.600000e+01
         vertex 1.500692e+02 4.242656e+01 2.090000e+02
      endloop
   endfacet
   facet normal 2.588215e-01 -9.659252e-01 0.000000e+00
      outer loop
         vertex 1.518012e+02 4.342656e+01 2.600000e+01
         vertex 1.518012e+02 4.342656e+01 2.090000e+02
         vertex 1.508012e+02 4.315860e+01 2.090000e+02
      endloop
   endfacet
   facet normal 2.588215e-01 -9.659252e-01 0.000000e+00
      outer loop
         vertex 1.508012e+02 4.315860e+01 2.600000e+01
         vertex 1.518012e+02 4.342656e+01 2.600000e+01
         vertex 1.508012e+02 4.315860e+01 2.090000e+02
      endloop
   endfacet
   facet normal 0.000000e+00 -1.000000e+00 0.000000e+00
      outer loop
         vertex 1.678012e+02 4.342656e+01 2.090000e+02
         vertex 1.518012e+02 4.342656e+01 2.090000e+02
         vertex 1.518012e+02 4.342656e+01 2.600000e+01
      endloop
   endfacet
   facet normal 0.000000e+00 -1.000000e+00 0.000000e+00
      outer loop
         vertex 1.678012e+02 4.342656e+01 2.090000e+02
         vertex 1.518012e+02 4.342656e+01 2.600000e+01
         vertex 1.678012e+02 4.342656e+01 2.600000e+01
      endloop
   endfacet
   facet normal 1.000000e+00 -0.000000e+00 0.000000e+00
      outer loop
         vertex 1.678012e+02 4.542656e+01 2.090000e+02
         vertex 1.678012e+02 4.342656e+01 2.090000e+02
         vertex 1.678012e+02 4.342656e+01 2.600000e+01
      endloop
   endfacet
   facet normal 1.000000e+00 0.000000e+00 0.000000e+00
      outer loop
         vertex 1.678012e+02 4.542656e+01 2.090000e+02
         vertex 1.678012e+02 4.342656e+01 2.600000e+01
         vertex 1.678012e+02 4.542656e+01 2.600000e+01
      endloop
   endfacet
   facet normal 0.000000e+00 1.000000e+00 0.000000e+00
      outer loop
         vertex 1.518012e+02 4.542656e+01 2.090000e+02
         vertex 1.678012e+02 4.542656e+01 2.090000e+02
         vertex 1.678012e+02 4.542656e+01 2.600000e+01
      endloop
   endfacet
   facet normal 0.000000e+00 1.000000e+00 0.000000e+00
      outer loop
         vertex 1.518012e+02 4.542656e+01 2.090000e+02
         vertex 1.678012e+02 4.542656e+01 2.600000e+01
         vertex 1.518012e+02 4.542656e+01 2.600000e+01
      endloop
   endfacet
   facet normal -9.807843e-01 1.950951e-01 0.000000e+00
      outer loop
         vertex 1.478012e+02 4.142656e+01 2.090000e+02
         vertex 1.481057e+02 4.295729e+01 2.090000e+02
         vertex 1.481057e+02 4.295729e+01 2.600000e+01
      endloop
   endfacet
   facet normal -9.807843e-01 1.950951e-01 0.000000e+00
      outer loop
         vertex 1.478012e+02 4.142656e+01 2.090000e+02
         vertex 1.481057e+02 4.295729e+01 2.600000e+01
         vertex 1.478012e+02 4.142656e+01 2.600000e+01
      endloop
   endfacet
   facet normal -8.314738e-01 5.555640e-01 0.000000e+00
      outer loop
         vertex 1.481057e+02 4.295729e+01 2.090000e+02
         vertex 1.489728e+02 4.425499e+01 2.090000e+02
         vertex 1.489728e+02 4.425499e+01 2.600000e+01
      endloop
   endfacet
   facet normal -8.314738e-01 5.555640e-01 0.000000e+00
      outer loop
         vertex 1.481057e+02 4.295729e+01 2.090000e+02
         vertex 1.489728e+02 4.425499e+01 2.600000e+01
         vertex 1.481057e+02 4.295729e+01 2.600000e+01
      endloop
   endfacet
   facet normal -5.555674e-01 8.314715e-01 0.000000e+00
      outer loop
         vertex 1.489728e+02 4.425499e+01 2.090000e+02
         vertex 1.502705e+02 4.512207e+01 2.090000e+02
         vertex 1.502705e+02 4.512207e+01 2.600000e+01
      endloop
   endfacet
   facet normal -5.555674e-01 8.314715e-01 0.000000e+00
      outer loop
         vertex 1.489728e+02 4.425499e+01 2.090000e+02
         vertex 1.502705e+02 4.512207e+01 2.600000e+01
         vertex 1.489728e+02 4.425499e+01 2.600000e+01
      endloop
   endfacet
   facet normal -1.950904e-01 9.807853e-01 0.000000e+00
      outer loop
         vertex 1.502705e+02 4.512207e+01 2.090000e+02
         vertex 1.518012e+02 4.542656e+01 2.090000e+02
         vertex 1.518012e+02 4.542656e+01 2.600000e+01
      endloop
   endfacet
   facet normal -1.950904e-01 9.807853e-01 0.000000e+00
      outer loop
         vertex 1.502705e+02 4.512207e+01 2.090000e+02
         vertex 1.518012e+02 4.542656e+01 2.600000e+01
         vertex 1.502705e+02 4.512207e+01 2.600000e+01
      endloop
   endfacet
   facet normal -1.000000e+00 -0.000000e+00 0.000000e+00
      outer loop
         vertex 1.478012e+02 -3.807344e+01 2.090000e+02
         vertex 1.478012e+02 -2.157344e+01 2.090000e+02
         vertex 1.478012e+02 -3.807344e+01 -2.090000e+02
      endloop
   endfacet
   facet normal -1.000000e+00 -0.000000e+00 0.000000e+00
      outer loop
         vertex 1.478012e+02 -2.157344e+01 2.090000e+02
         vertex 1.478012e+02 -2.157344e+01 1.790000e+02
         vertex 1.478012e+02 -3.807344e+01 -2.090000e+02
      endloop
   endfacet
   facet normal -1.000000e+00 0.000000e+00 0.000000e+00
      outer loop
         vertex 1.478012e+02 -3.807344e+01 -2.090000e+02
         vertex 1.478012e+02 -2.157344e+01 1.790000e+02
         vertex 1.478012e+02 -2.607344e+01 -2.090000e+02
      endloop
   endfacet
   facet normal -1.000000e+00 -0.000000e+00 0.000000e+00
      outer loop
         vertex 1.478012e+02 -2.157344e+01 1.790000e+02
         vertex 1.478012e+02 -2.116994e+01 1.749031e+02
         vertex 1.478012e+02 -2.607344e+01 -2.090000e+02
      endloop
   endfacet
   facet normal -1.000000e+00 0.000000e+00 -0.000000e+00
      outer loop
         vertex 1.478012e+02 -2.607344e+01 -2.090000e+02
         vertex 1.478012e+02 -1.997491e+01 1.709637e+02
         vertex 1.478012e+02 4.142656e+01 2.600000e+01
      endloop
   endfacet
   facet normal -1.000000e+00 -0.000000e+00 -0.000000e+00
      outer loop
         vertex 1.478012e+02 -1.997491e+01 1.709637e+02
         vertex 1.478012e+02 -1.803431e+01 1.673330e+02
         vertex 1.478012e+02 4.142656e+01 2.600000e+01
      endloop
   endfacet
   facet normal -1.000000e+00 0.000000e+00 0.000000e+00
      outer loop
         vertex 1.478012e+02 4.142656e+01 2.600000e+01
         vertex 1.478012e+02 1.688742e+01 1.673330e+02
         vertex 1.478012e+02 4.142656e+01 2.090000e+02
      endloop
   endfacet
   facet normal -1.000000e+00 0.000000e+00 -0.000000e+00
      outer loop
         vertex 1.478012e+02 1.688742e+01 1.673330e+02
         vertex 1.478012e+02 1.882803e+01 1.709637e+02
         vertex 1.478012e+02 4.142656e+01 2.090000e+02
      endloop
   endfacet
   facet normal -1.000000e+00 0.000000e+00 0.000000e+00
      outer loop
         vertex 1.478012e+02 4.142656e+01 2.090000e+02
         vertex 1.478012e+02 2.042656e+01 1.790000e+02
         vertex 1.478012e+02 2.042656e+01 2.090000e+02
      endloop
   endfacet
   facet normal -1.000000e+00 0.000000e+00 0.000000e+00
      outer loop
         vertex 1.478012e+02 2.042656e+01 1.790000e+02
         vertex 1.478012e+02 4.142656e+01 2.090000e+02
         vertex 1.478012e+02 2.002305e+01 1.749031e+02
      endloop
   endfacet
   facet normal -1.000000e+00 0.000000e+00 0.000000e+00
      outer loop
         vertex 1.478012e+02 4.142656e+01 2.090000e+02
         vertex 1.478012e+02 1.882803e+01 1.709637e+02
         vertex 1.478012e+02 2.002305e+01 1.749031e+02
      endloop
   endfacet
   facet normal -1.000000e+00 0.000000e+00 0.000000e+00
      outer loop
         vertex 1.478012e+02 1.688742e+01 1.673330e+02
         vertex 1.478012e+02 4.142656e+01 2.600000e+01
         vertex 1.478012e+02 1.427580e+01 1.641508e+02
      endloop
   endfacet
   facet normal -1.000000e+00 0.000000e+00 0.000000e+00
      outer loop
         vertex 1.478012e+02 4.142656e+01 2.600000e+01
         vertex 1.478012e+02 1.109353e+01 1.615391e+02
         vertex 1.478012e+02 1.427580e+01 1.641508e+02
      endloop
   endfacet
   facet normal -1.000000e+00 0.000000e+00 0.000000e+00
      outer loop
         vertex 1.478012e+02 1.109353e+01 1.615391e+02
         vertex 1.478012e+02 4.142656e+01 2.600000e+01
         vertex 1.478012e+02 7.462905e+00 1.595985e+02
      endloop
   endfacet
   facet normal -1.000000e+00 0.000000e+00 0.000000e+00
      outer loop
         vertex 1.478012e+02 4.142656e+01 2.600000e+01
         vertex 1.478012e+02 3.523452e+00 1.584035e+02
         vertex 1.478012e+02 7.462905e+00 1.595985e+02
      endloop
   endfacet
   facet normal -1.000000e+00 0.000000e+00 0.000000e+00
      outer loop
         vertex 1.478012e+02 -4.670342e+00 1.584035e+02
         vertex 1.478012e+02 4.142656e+01 2.600000e+01
         vertex 1.478012e+02 -8.609796e+00 1.595985e+02
      endloop
   endfacet
   facet normal -1.000000e+00 0.000000e+00 0.000000e+00
      outer loop
         vertex 1.478012e+02 4.142656e+01 2.600000e+01
         vertex 1.478012e+02 -1.224042e+01 1.615391e+02
         vertex 1.478012e+02 -8.609796e+00 1.595985e+02
      endloop
   endfacet
   facet normal -1.000000e+00 0.000000e+00 0.000000e+00
      outer loop
         vertex 1.478012e+02 3.523452e+00 1.584035e+02
         vertex 1.478012e+02 4.142656e+01 2.600000e+01
         vertex 1.478012e+02 -5.734452e-01 1.580000e+02
      endloop
   endfacet
   facet normal -1.000000e+00 0.000000e+00 0.000000e+00
      outer loop
         vertex 1.478012e+02 4.142656e+01 2.600000e+01
         vertex 1.478012e+02 -4.670342e+00 1.584035e+02
         vertex 1.478012e+02 -5.734452e-01 1.580000e+02
      endloop
   endfacet
   facet normal -1.000000e+00 0.000000e+00 0.000000e+00
      outer loop
         vertex 1.478012e+02 -1.224042e+01 1.615391e+02
         vertex 1.478012e+02 4.142656e+01 2.600000e+01
         vertex 1.478012e+02 -1.542269e+01 1.641508e+02
      endloop
   endfacet
   facet normal -1.000000e+00 0.000000e+00 0.000000e+00
      outer loop
         vertex 1.478012e+02 4.142656e+01 2.600000e+01
         vertex 1.478012e+02 -1.803431e+01 1.673330e+02
         vertex 1.478012e+02 -1.542269e+01 1.641508e+02
      endloop
   endfacet
   facet normal -1.000000e+00 0.000000e+00 0.000000e+00
      outer loop
         vertex 1.478012e+02 -1.997491e+01 1.709637e+02
         vertex 1.478012e+02 -2.607344e+01 -2.090000e+02
         vertex 1.478012e+02 -2.116994e+01 1.749031e+02
      endloop
   endfacet
   facet normal 1.000000e+00 -0.000000e+00 0.000000e+00
      outer loop
         vertex 1.498012e+02 -2.157344e+01 2.090000e+02
         vertex 1.498012e+02 -3.807344e+01 2.090000e+02
         vertex 1.498012e+02 -2.157344e+01 1.790000e+02
      endloop
   endfacet
   facet normal 1.000000e+00 0.000000e+00 0.000000e+00
      outer loop
         vertex 1.498012e+02 -3.807344e+01 2.090000e+02
         vertex 1.498012e+02 -3.807344e+01 -2.090000e+02
         vertex 1.498012e+02 -2.157344e+01 1.790000e+02
      endloop
   endfacet
   facet normal 1.000000e+00 0.000000e+00 0.000000e+00
      outer loop
         vertex 1.498012e+02 -2.157344e+01 1.790000e+02
         vertex 1.498012e+02 -3.807344e+01 -2.090000e+02
         vertex 1.498012e+02 -2.116994e+01 1.749031e+02
      endloop
   endfacet
   facet normal 1.000000e+00 0.000000e+00 -0.000000e+00
      outer loop
         vertex 1.498012e+02 -3.807344e+01 -2.090000e+02
         vertex 1.498012e+02 -2.607344e+01 -2.090000e+02
         vertex 1.498012e+02 -2.116994e+01 1.749031e+02
      endloop
   endfacet
   facet normal 1.000000e+00 0.000000e+00 0.000000e+00
      outer loop
         vertex 1.498012e+02 -2.116994e+01 1.749031e+02
         vertex 1.498012e+02 -2.607344e+01 -2.090000e+02
         vertex 1.498012e+02 -1.997491e+01 1.709637e+02
      endloop
   endfacet
   facet normal 1.000000e+00 0.000000e+00 0.000000e+00
      outer loop
         vertex 1.498012e+02 -2.607344e+01 -2.090000e+02
         vertex 1.498012e+02 4.142656e+01 2.600000e+01
         vertex 1.498012e+02 -1.997491e+01 1.709637e+02
      endloop
   endfacet
   facet normal 1.000000e+00 0.000000e+00 0.000000e+00
      outer loop
         vertex 1.498012e+02 -1.997491e+01 1.709637e+02
         vertex 1.498012e+02 4.142656e+01 2.600000e+01
         vertex 1.498012e+02 -1.803431e+01 1.673330e+02
      endloop
   endfacet
   facet normal 1.000000e+00 0.000000e+00 0.000000e+00
      outer loop
         vertex 1.498012e+02 4.142656e+01 2.600000e+01
         vertex 1.498012e+02 -1.542269e+01 1.641508e+02
         vertex 1.498012e+02 -1.803431e+01 1.673330e+02
      endloop
   endfacet
   facet normal 1.000000e+00 0.000000e+00 0.000000e+00
      outer loop
         vertex 1.498012e+02 -1.542269e+01 1.641508e+02
         vertex 1.498012e+02 4.142656e+01 2.600000e+01
         vertex 1.498012e+02 -1.224042e+01 1.615391e+02
      endloop
   endfacet
   facet normal 1.000000e+00 0.000000e+00 0.000000e+00
      outer loop
         vertex 1.498012e+02 -1.224042e+01 1.615391e+02
         vertex 1.498012e+02 4.142656e+01 2.600000e+01
         vertex 1.498012e+02 -8.609796e+00 1.595985e+02
      endloop
   endfacet
   facet normal 1.000000e+00 0.000000e+00 0.000000e+00
      outer loop
         vertex 1.498012e+02 4.142656e+01 2.600000e+01
         vertex 1.498012e+02 -4.670342e+00 1.584035e+02
         vertex 1.498012e+02 -8.609796e+00 1.595985e+02
      endloop
   endfacet
   facet normal 1.000000e+00 0.000000e+00 0.000000e+00
      outer loop
         vertex 1.498012e+02 -4.670342e+00 1.584035e+02
         vertex 1.498012e+02 4.142656e+01 2.600000e+01
         vertex 1.498012e+02 -5.734452e-01 1.580000e+02
      endloop
   endfacet
   facet normal 1.000000e+00 0.000000e+00 0.000000e+00
      outer loop
         vertex 1.498012e+02 4.142656e+01 2.600000e+01
         vertex 1.498012e+02 3.523452e+00 1.584035e+02
         vertex 1.498012e+02 -5.734452e-01 1.580000e+02
      endloop
   endfacet
   facet normal 1.000000e+00 0.000000e+00 0.000000e+00
      outer loop
         vertex 1.498012e+02 3.523452e+00 1.584035e+02
         vertex 1.498012e+02 4.142656e+01 2.600000e+01
         vertex 1.498012e+02 7.462905e+00 1.595985e+02
      endloop
   endfacet
   facet normal 1.000000e+00 0.000000e+00 0.000000e+00
      outer loop
         vertex 1.498012e+02 4.142656e+01 2.600000e+01
         vertex 1.498012e+02 1.109353e+01 1.615391e+02
         vertex 1.498012e+02 7.462905e+00 1.595985e+02
      endloop
   endfacet
   facet normal 1.000000e+00 0.000000e+00 0.000000e+00
      outer loop
         vertex 1.498012e+02 1.109353e+01 1.615391e+02
         vertex 1.498012e+02 4.142656e+01 2.600000e+01
         vertex 1.498012e+02 1.427580e+01 1.641508e+02
      endloop
   endfacet
   facet normal 1.000000e+00 0.000000e+00 0.000000e+00
      outer loop
         vertex 1.498012e+02 4.142656e+01 2.600000e+01
         vertex 1.498012e+02 1.688742e+01 1.673330e+02
         vertex 1.498012e+02 1.427580e+01 1.641508e+02
      endloop
   endfacet
   facet normal 1.000000e+00 0.000000e+00 0.000000e+00
      outer loop
         vertex 1.498012e+02 1.688742e+01 1.673330e+02
         vertex 1.498012e+02 4.142656e+01 2.600000e+01
         vertex 1.498012e+02 1.882803e+01 1.709637e+02
      endloop
   endfacet
   facet normal 1.000000e+00 0.000000e+00 0.000000e+00
      outer loop
         vertex 1.498012e+02 4.142656e+01 2.600000e+01
         vertex 1.498012e+02 4.142656e+01 2.090000e+02
         vertex 1.498012e+02 1.882803e+01 1.709637e+02
      endloop
   endfacet
   facet normal 1.000000e+00 0.000000e+00 0.000000e+00
      outer loop
         vertex 1.498012e+02 1.882803e+01 1.709637e+02
         vertex 1.498012e+02 4.142656e+01 2.090000e+02
         vertex 1.498012e+02 2.002305e+01 1.749031e+02
      endloop
   endfacet
   facet normal 1.000000e+00 -0.000000e+00 0.000000e+00
      outer loop
         vertex 1.498012e+02 4.142656e+01 2.090000e+02
         vertex 1.498012e+02 2.042656e+01 1.790000e+02
         vertex 1.498012e+02 2.002305e+01 1.749031e+02
      endloop
   endfacet
   facet normal 1.000000e+00 0.000000e+00 0.000000e+00
      outer loop
         vertex 1.498012e+02 2.042656e+01 1.790000e+02
         vertex 1.498012e+02 4.142656e+01 2.090000e+02
         vertex 1.498012e+02 2.042656e+01 2.090000e+02
      endloop
   endfacet
   facet normal -0.000000e+00 0.000000e+00 -1.000000e+00
      outer loop
         vertex 1.478012e+02 -2.607344e+01 -2.090000e+02
         vertex 1.498012e+02 -2.607344e+01 -2.090000e+02
         vertex 1.478012e+02 -3.807344e+01 -2.090000e+02
      endloop
   endfacet
   facet normal 0.000000e+00 0.000000e+00 -1.000000e+00
      outer loop
         vertex 1.498012e+02 -2.607344e+01 -2.090000e+02
         vertex 1.498012e+02 -3.807344e+01 -2.090000e+02
         vertex 1.478012e+02 -3.807344e+01 -2.090000e+02
      endloop
   endfacet
   facet normal -0.000000e+00 0.000000e+00 -1.000000e+00
      outer loop
         vertex 1.478012e+02 -3.807344e+01 -2.090000e+02
         vertex 1.498012e+02 -3.807344e+01 -2.090000e+02
         vertex 1.475332e+02 -3.907344e+01 -2.090000e+02
      endloop
   endfacet
   facet normal 0.000000e+00 0.000000e+00 -1.000000e+00
      outer loop
         vertex 1.498012e+02 -3.807344e+01 -2.090000e+02
         vertex 1.494967e+02 -3.960418e+01 -2.090000e+02
         vertex 1.475332e+02 -3.907344e+01 -2.090000e+02
      endloop
   endfacet
   facet normal -0.000000e+00 0.000000e+00 -1.000000e+00
      outer loop
         vertex 1.475332e+02 -3.907344e+01 -2.090000e+02
         vertex 1.494967e+02 -3.960418e+01 -2.090000e+02
         vertex 1.468012e+02 -3.980550e+01 -2.090000e+02
      endloop
   endfacet
   facet normal 0.000000e+00 0.000000e+00 -1.000000e+00
      outer loop
         vertex 1.494967e+02 -3.960418e+01 -2.090000e+02
         vertex 1.486296e+02 -4.090187e+01 -2.090000e+02
         vertex 1.468012e+02 -3.980550e+01 -2.090000e+02
      endloop
   endfacet
   facet normal 0.000000e+00 0.000000e+00 -1.000000e+00
      outer loop
         vertex 1.468012e+02 -3.980550e+01 -2.090000e+02
         vertex 1.486296e+02 -4.090187e+01 -2.090000e+02
         vertex 1.458012e+02 -4.007344e+01 -2.090000e+02
      endloop
   endfacet
   facet normal 0.000000e+00 0.000000e+00 -1.000000e+00
      outer loop
         vertex 1.486296e+02 -4.090187e+01 -2.090000e+02
         vertex 1.473319e+02 -4.176896e+01 -2.090000e+02
         vertex 1.458012e+02 -4.007344e+01 -2.090000e+02
      endloop
   endfacet
   facet normal 0.000000e+00 0.000000e+00 -1.000000e+00
      outer loop
         vertex 1.458012e+02 -4.007344e+01 -2.090000e+02
         vertex 1.473319e+02 -4.176896e+01 -2.090000e+02
         vertex 1.298012e+02 -4.007344e+01 -2.090000e+02
      endloop
   endfacet
   facet normal 0.000000e+00 0.000000e+00 -1.000000e+00
      outer loop
         vertex 1.473319e+02 -4.176896e+01 -2.090000e+02
         vertex 1.458012e+02 -4.207344e+01 -2.090000e+02
         vertex 1.298012e+02 -4.007344e+01 -2.090000e+02
      endloop
   endfacet
   facet normal 0.000000e+00 0.000000e+00 -1.000000e+00
      outer loop
         vertex 1.298012e+02 -4.007344e+01 -2.090000e+02
         vertex 1.458012e+02 -4.207344e+01 -2.090000e+02
         vertex 1.298012e+02 -4.207344e+01 -2.090000e+02
      endloop
   endfacet
   facet normal -9.659270e-01 2.588147e-01 0.000000e+00
      outer loop
         vertex 1.475332e+02 -3.907344e+01 2.090000e+02
         vertex 1.478012e+02 -3.807344e+01 2.090000e+02
         vertex 1.478012e+02 -3.807344e+01 -2.090000e+02
      endloop
   endfacet
   facet normal -7.071049e-01 7.071086e-01 0.000000e+00
      outer loop
         vertex 1.468012e+02 -3.980550e+01 -2.090000e+02
         vertex 1.468012e+02 -3.980550e+01 2.090000e+02
         vertex 1.475332e+02 -3.907344e+01 2.090000e+02
      endloop
   endfacet
   facet normal -2.588181e-01 9.659261e-01 0.000000e+00
      outer loop
         vertex 1.458012e+02 -4.007344e+01 1.690000e+02
         vertex 1.458012e+02 -4.007344e+01 2.090000e+02
         vertex 1.468012e+02 -3.980550e+01 2.090000e+02
      endloop
   endfacet
   facet normal -2.588181e-01 9.659261e-01 0.000000e+00
      outer loop
         vertex 1.468012e+02 -3.980550e+01 -2.090000e+02
         vertex 1.458012e+02 -4.007344e+01 -2.090000e+02
         vertex 1.458012e+02 -4.007344e+01 1.690000e+02
      endloop
   endfacet
   facet normal -7.071049e-01 7.071086e-01 0.000000e+00
      outer loop
         vertex 1.475332e+02 -3.907344e+01 2.090000e+02
         vertex 1.475332e+02 -3.907344e+01 -2.090000e+02
         vertex 1.468012e+02 -3.980550e+01 -2.090000e+02
      endloop
   endfacet
   facet normal -9.659270e-01 2.588147e-01 0.000000e+00
      outer loop
         vertex 1.475332e+02 -3.907344e+01 2.090000e+02
         vertex 1.478012e+02 -3.807344e+01 -2.090000e+02
         vertex 1.475332e+02 -3.907344e+01 -2.090000e+02
      endloop
   endfacet
   facet normal -2.588181e-01 9.659261e-01 0.000000e+00
      outer loop
         vertex 1.458012e+02 -4.007344e+01 1.690000e+02
         vertex 1.468012e+02 -3.980550e+01 2.090000e+02
         vertex 1.468012e+02 -3.980550e+01 -2.090000e+02
      endloop
   endfacet
   facet normal 0.000000e+00 1.000000e+00 0.000000e+00
      outer loop
         vertex 1.458012e+02 -4.007344e+01 -2.090000e+02
         vertex 1.298012e+02 -4.007344e+01 -2.090000e+02
         vertex 1.458012e+02 -4.007344e+01 1.690000e+02
      endloop
   endfacet
   facet normal -0.000000e+00 1.000000e+00 0.000000e+00
      outer loop
         vertex 1.298012e+02 -4.007344e+01 -2.090000e+02
         vertex 1.298012e+02 -4.007344e+01 1.590000e+02
         vertex 1.458012e+02 -4.007344e+01 1.690000e+02
      endloop
   endfacet
   facet normal 0.000000e+00 1.000000e+00 0.000000e+00
      outer loop
         vertex 1.458012e+02 -4.007344e+01 1.690000e+02
         vertex 1.298012e+02 -4.007344e+01 1.590000e+02
         vertex 1.398012e+02 -4.007344e+01 1.690000e+02
      endloop
   endfacet
   facet normal -1.000000e+00 0.000000e+00 0.000000e+00
      outer loop
         vertex 1.298012e+02 -4.007344e+01 -2.090000e+02
         vertex 1.298012e+02 -4.207344e+01 -2.090000e+02
         vertex 1.298012e+02 -4.207344e+01 1.590000e+02
      endloop
   endfacet
   facet normal -1.000000e+00 0.000000e+00 0.000000e+00
      outer loop
         vertex 1.298012e+02 -4.007344e+01 -2.090000e+02
         vertex 1.298012e+02 -4.207344e+01 1.590000e+02
         vertex 1.298012e+02 -4.007344e+01 1.590000e+02
      endloop
   endfacet
   facet normal 0.000000e+00 -1.000000e+00 -0.000000e+00
      outer loop
         vertex 1.458012e+02 -4.207344e+01 -2.090000e+02
         vertex 1.458012e+02 -4.207344e+01 1.690000e+02
         vertex 1.298012e+02 -4.207344e+01 -2.090000e+02
      endloop
   endfacet
   facet normal 0.000000e+00 -1.000000e+00 -0.000000e+00
      outer loop
         vertex 1.458012e+02 -4.207344e+01 1.690000e+02
         vertex 1.398012e+02 -4.207344e+01 1.690000e+02
         vertex 1.298012e+02 -4.207344e+01 -2.090000e+02
      endloop
   endfacet
   facet normal 0.000000e+00 -1.000000e+00 0.000000e+00
      outer loop
         vertex 1.298012e+02 -4.207344e+01 -2.090000e+02
         vertex 1.398012e+02 -4.207344e+01 1.690000e+02
         vertex 1.298012e+02 -4.207344e+01 1.590000e+02
      endloop
   endfacet
   facet normal 1.950904e-01 -9.807853e-01 0.000000e+00
      outer loop
         vertex 1.458012e+02 -4.207344e+01 1.690000e+02
         vertex 1.458012e+02 -4.207344e+01 -2.090000e+02
         vertex 1.473319e+02 -4.176896e+01 -2.090000e+02
      endloop
   endfacet
   facet normal 5.555691e-01 -8.314704e-01 0.000000e+00
      outer loop
         vertex 1.473319e+02 -4.176896e+01 -2.090000e+02
         vertex 1.486296e+02 -4.090187e+01 -2.090000e+02
         vertex 1.486296e+02 -4.090187e+01 2.090000e+02
      endloop
   endfacet
   facet normal 8.314677e-01 -5.555730e-01 0.000000e+00
      outer loop
         vertex 1.486296e+02 -4.090187e+01 -2.090000e+02
         vertex 1.494967e+02 -3.960418e+01 -2.090000e+02
         vertex 1.494967e+02 -3.960418e+01 2.090000e+02
      endloop
   endfacet
   facet normal 9.807863e-01 -1.950852e-01 0.000000e+00
      outer loop
         vertex 1.494967e+02 -3.960418e+01 -2.090000e+02
         vertex 1.498012e+02 -3.807344e+01 -2.090000e+02
         vertex 1.498012e+02 -3.807344e+01 2.090000e+02
      endloop
   endfacet
   facet normal 9.807863e-01 -1.950852e-01 0.000000e+00
      outer loop
         vertex 1.498012e+02 -3.807344e+01 2.090000e+02
         vertex 1.494967e+02 -3.960418e+01 2.090000e+02
         vertex 1.494967e+02 -3.960418e+01 -2.090000e+02
      endloop
   endfacet
   facet normal 8.314677e-01 -5.555730e-01 0.000000e+00
      outer loop
         vertex 1.494967e+02 -3.960418e+01 2.090000e+02
         vertex 1.486296e+02 -4.090187e+01 2.090000e+02
         vertex 1.486296e+02 -4.090187e+01 -2.090000e+02
      endloop
   endfacet
   facet normal 5.555691e-01 -8.314704e-01 0.000000e+00
      outer loop
         vertex 1.486296e+02 -4.090187e+01 2.090000e+02
         vertex 1.473319e+02 -4.176896e+01 2.090000e+02
         vertex 1.473319e+02 -4.176896e+01 -2.090000e+02
      endloop
   endfacet
   facet normal 1.950904e-01 -9.807853e-01 0.000000e+00
      outer loop
         vertex 1.473319e+02 -4.176896e+01 2.090000e+02
         vertex 1.458012e+02 -4.207344e+01 2.090000e+02
         vertex 1.458012e+02 -4.207344e+01 1.690000e+02
      endloop
   endfacet
   facet normal 1.950904e-01 -9.807853e-01 0.000000e+00
      outer loop
         vertex 1.458012e+02 -4.207344e+01 1.690000e+02
         vertex 1.473319e+02 -4.176896e+01 -2.090000e+02
         vertex 1.473319e+02 -4.176896e+01 2.090000e+02
      endloop
   endfacet
   facet normal 0.000000e+00 0.000000e+00 -1.000000e+00
      outer loop
         vertex 1.498012e+02 4.142656e+01 2.600000e+01
         vertex 1.478012e+02 4.142656e+01 2.600000e+01
         vertex 1.500692e+02 4.242656e+01 2.600000e+01
      endloop
   endfacet
   facet normal 0.000000e+00 -0.000000e+00 -1.000000e+00
      outer loop
         vertex 1.478012e+02 4.142656e+01 2.600000e+01
         vertex 1.481057e+02 4.295729e+01 2.600000e+01
         vertex 1.500692e+02 4.242656e+01 2.600000e+01
      endloop
   endfacet
   facet normal 0.000000e+00 0.000000e+00 -1.000000e+00
      outer loop
         vertex 1.500692e+02 4.242656e+01 2.600000e+01
         vertex 1.481057e+02 4.295729e+01 2.600000e+01
         vertex 1.508012e+02 4.315860e+01 2.600000e+01
      endloop
   endfacet
   facet normal 0.000000e+00 -0.000000e+00 -1.000000e+00
      outer loop
         vertex 1.481057e+02 4.295729e+01 2.600000e+01
         vertex 1.489728e+02 4.425499e+01 2.600000e+01
         vertex 1.508012e+02 4.315860e+01 2.600000e+01
      endloop
   endfacet
   facet normal 0.000000e+00 0.000000e+00 -1.000000e+00
      outer loop
         vertex 1.508012e+02 4.315860e+01 2.600000e+01
         vertex 1.489728e+02 4.425499e+01 2.600000e+01
         vertex 1.518012e+02 4.342656e+01 2.600000e+01
      endloop
   endfacet
   facet normal 0.000000e+00 -0.000000e+00 -1.000000e+00
      outer loop
         vertex 1.489728e+02 4.425499e+01 2.600000e+01
         vertex 1.502705e+02 4.512207e+01 2.600000e+01
         vertex 1.518012e+02 4.342656e+01 2.600000e+01
      endloop
   endfacet
   facet normal 0.000000e+00 0.000000e+00 -1.000000e+00
      outer loop
         vertex 1.518012e+02 4.342656e+01 2.600000e+01
         vertex 1.502705e+02 4.512207e+01 2.600000e+01
         vertex 1.678012e+02 4.342656e+01 2.600000e+01
      endloop
   endfacet
   facet normal 0.000000e+00 -0.000000e+00 -1.000000e+00
      outer loop
         vertex 1.502705e+02 4.512207e+01 2.600000e+01
         vertex 1.518012e+02 4.542656e+01 2.600000e+01
         vertex 1.678012e+02 4.342656e+01 2.600000e+01
      endloop
   endfacet
   facet normal 0.000000e+00 0.000000e+00 -1.000000e+00
      outer loop
         vertex 1.678012e+02 4.342656e+01 2.600000e+01
         vertex 1.518012e+02 4.542656e+01 2.600000e+01
         vertex 1.678012e+02 4.542656e+01 2.600000e+01
      endloop
   endfacet
   facet normal 0.000000e+00 9.611372e-01 -2.760713e-01
      outer loop
         vertex 1.478012e+02 4.142656e+01 2.600000e+01
         vertex 1.498012e+02 4.142656e+01 2.600000e+01
         vertex 1.498012e+02 -2.607344e+01 -2.090000e+02
      endloop
   endfacet
   facet normal 0.000000e+00 9.611372e-01 -2.760713e-01
      outer loop
         vertex 1.478012e+02 4.142656e+01 2.600000e+01
         vertex 1.498012e+02 -2.607344e+01 -2.090000e+02
         vertex 1.478012e+02 -2.607344e+01 -2.090000e+02
      endloop
   endfacet
   facet normal 0.000000e+00 -0.000000e+00 1.000000e+00
      outer loop
         vertex 1.398012e+02 -4.207344e+01 1.690000e+02
         vertex 1.458012e+02 -4.207344e+01 1.690000e+02
         vertex 1.458012e+02 -4.007344e+01 1.690000e+02
      endloop
   endfacet
   facet normal 0.000000e+00 0.000000e+00 1.000000e+00
      outer loop
         vertex 1.398012e+02 -4.007344e+01 1.690000e+02
         vertex 1.398012e+02 -4.207344e+01 1.690000e+02
         vertex 1.458012e+02 -4.007344e+01 1.690000e+02
      endloop
   endfacet
   facet normal -1.000000e+00 0.000000e+00 0.000000e+00
      outer loop
         vertex 1.458012e+02 -4.007344e+01 2.090000e+02
         vertex 1.458012e+02 -4.007344e+01 1.690000e+02
         vertex 1.458012e+02 -4.207344e+01 1.690000e+02
      endloop
   endfacet
   facet normal -1.000000e+00 0.000000e+00 0.000000e+00
      outer loop
         vertex 1.458012e+02 -4.007344e+01 2.090000e+02
         vertex 1.458012e+02 -4.207344e+01 1.690000e+02
         vertex 1.458012e+02 -4.207344e+01 2.090000e+02
      endloop
   endfacet
   facet normal -7.071068e-01 0.000000e+00 7.071068e-01
      outer loop
         vertex 1.398012e+02 -4.007344e+01 1.690000e+02
         vertex 1.298012e+02 -4.007344e+01 1.590000e+02
         vertex 1.298012e+02 -4.207344e+01 1.590000e+02
      endloop
   endfacet
   facet normal -7.071068e-01 0.000000e+00 7.071068e-01
      outer loop
         vertex 1.398012e+02 -4.007344e+01 1.690000e+02
         vertex 1.298012e+02 -4.207344e+01 1.590000e+02
         vertex 1.398012e+02 -4.207344e+01 1.690000e+02
      endloop
   endfacet
   facet normal -0.000000e+00 9.951847e-01 9.801723e-02
      outer loop
         vertex 1.498012e+02 -2.116994e+01 1.749031e+02
         vertex 1.478012e+02 -2.116994e+01 1.749031e+02
         vertex 1.478012e+02 -2.157344e+01 1.790000e+02
      endloop
   endfacet
   facet normal 0.000000e+00 9.951847e-01 9.801723e-02
      outer loop
         vertex 1.498012e+02 -2.157344e+01 1.790000e+02
         vertex 1.498012e+02 -2.116994e+01 1.749031e+02
         vertex 1.478012e+02 -2.157344e+01 1.790000e+02
      endloop
   endfacet
   facet normal -0.000000e+00 9.569403e-01 2.902848e-01
      outer loop
         vertex 1.498012e+02 -1.997491e+01 1.709637e+02
         vertex 1.478012e+02 -1.997491e+01 1.709637e+02
         vertex 1.478012e+02 -2.116994e+01 1.749031e+02
      endloop
   endfacet
   facet normal 0.000000e+00 9.569403e-01 2.902848e-01
      outer loop
         vertex 1.498012e+02 -2.116994e+01 1.749031e+02
         vertex 1.498012e+02 -1.997491e+01 1.709637e+02
         vertex 1.478012e+02 -2.116994e+01 1.749031e+02
      endloop
   endfacet
   facet normal -0.000000e+00 8.819208e-01 4.713976e-01
      outer loop
         vertex 1.498012e+02 -1.803431e+01 1.673330e+02
         vertex 1.478012e+02 -1.803431e+01 1.673330e+02
         vertex 1.478012e+02 -1.997491e+01 1.709637e+02
      endloop
   endfacet
   facet normal 0.000000e+00 8.819208e-01 4.713976e-01
      outer loop
         vertex 1.498012e+02 -1.997491e+01 1.709637e+02
         vertex 1.498012e+02 -1.803431e+01 1.673330e+02
         vertex 1.478012e+02 -1.997491e+01 1.709637e+02
      endloop
   endfacet
   facet normal -0.000000e+00 7.730121e-01 6.343913e-01
      outer loop
         vertex 1.498012e+02 -1.542269e+01 1.641508e+02
         vertex 1.478012e+02 -1.542269e+01 1.641508e+02
         vertex 1.478012e+02 -1.803431e+01 1.673330e+02
      endloop
   endfacet
   facet normal 0.000000e+00 7.730121e-01 6.343913e-01
      outer loop
         vertex 1.498012e+02 -1.803431e+01 1.673330e+02
         vertex 1.498012e+02 -1.542269e+01 1.641508e+02
         vertex 1.478012e+02 -1.803431e+01 1.673330e+02
      endloop
   endfacet
   facet normal -0.000000e+00 6.343952e-01 7.730089e-01
      outer loop
         vertex 1.498012e+02 -1.224042e+01 1.615391e+02
         vertex 1.478012e+02 -1.224042e+01 1.615391e+02
         vertex 1.478012e+02 -1.542269e+01 1.641508e+02
      endloop
   endfacet
   facet normal 0.000000e+00 6.343952e-01 7.730089e-01
      outer loop
         vertex 1.498012e+02 -1.542269e+01 1.641508e+02
         vertex 1.498012e+02 -1.224042e+01 1.615391e+02
         vertex 1.478012e+02 -1.542269e+01 1.641508e+02
      endloop
   endfacet
   facet normal -0.000000e+00 4.713916e-01 8.819240e-01
      outer loop
         vertex 1.498012e+02 -8.609796e+00 1.595985e+02
         vertex 1.478012e+02 -8.609796e+00 1.595985e+02
         vertex 1.478012e+02 -1.224042e+01 1.615391e+02
      endloop
   endfacet
   facet normal 0.000000e+00 4.713916e-01 8.819240e-01
      outer loop
         vertex 1.498012e+02 -1.224042e+01 1.615391e+02
         vertex 1.498012e+02 -8.609796e+00 1.595985e+02
         vertex 1.478012e+02 -1.224042e+01 1.615391e+02
      endloop
   endfacet
   facet normal -0.000000e+00 2.902886e-01 9.569391e-01
      outer loop
         vertex 1.498012e+02 -4.670342e+00 1.584035e+02
         vertex 1.478012e+02 -4.670342e+00 1.584035e+02
         vertex 1.478012e+02 -8.609796e+00 1.595985e+02
      endloop
   endfacet
   facet normal 0.000000e+00 2.902886e-01 9.569391e-01
      outer loop
         vertex 1.498012e+02 -8.609796e+00 1.595985e+02
         vertex 1.498012e+02 -4.670342e+00 1.584035e+02
         vertex 1.478012e+02 -8.609796e+00 1.595985e+02
      endloop
   endfacet
   facet normal -0.000000e+00 9.801576e-02 9.951849e-01
      outer loop
         vertex 1.498012e+02 -5.734452e-01 1.580000e+02
         vertex 1.478012e+02 -5.734452e-01 1.580000e+02
         vertex 1.478012e+02 -4.670342e+00 1.584035e+02
      endloop
   endfacet
   facet normal 0.000000e+00 9.801576e-02 9.951849e-01
      outer loop
         vertex 1.498012e+02 -4.670342e+00 1.584035e+02
         vertex 1.498012e+02 -5.734452e-01 1.580000e+02
         vertex 1.478012e+02 -4.670342e+00 1.584035e+02
      endloop
   endfacet
   facet normal 0.000000e+00 -9.801576e-02 9.951849e-01
      outer loop
         vertex 1.498012e+02 3.523452e+00 1.584035e+02
         vertex 1.478012e+02 3.523452e+00 1.584035e+02
         vertex 1.478012e+02 -5.734452e-01 1.580000e+02
      endloop
   endfacet
   facet normal 0.000000e+00 -9.801576e-02 9.951849e-01
      outer loop
         vertex 1.498012e+02 -5.734452e-01 1.580000e+02
         vertex 1.498012e+02 3.523452e+00 1.584035e+02
         vertex 1.478012e+02 -5.734452e-01 1.580000e+02
      endloop
   endfacet
   facet normal 0.000000e+00 -2.902886e-01 9.569391e-01
      outer loop
         vertex 1.498012e+02 7.462905e+00 1.595985e+02
         vertex 1.478012e+02 7.462905e+00 1.595985e+02
         vertex 1.478012e+02 3.523452e+00 1.584035e+02
      endloop
   endfacet
   facet normal 0.000000e+00 -2.902886e-01 9.569391e-01
      outer loop
         vertex 1.498012e+02 3.523452e+00 1.584035e+02
         vertex 1.498012e+02 7.462905e+00 1.595985e+02
         vertex 1.478012e+02 3.523452e+00 1.584035e+02
      endloop
   endfacet
   facet normal 0.000000e+00 -4.713918e-01 8.819239e-01
      outer loop
         vertex 1.498012e+02 1.109353e+01 1.615391e+02
         vertex 1.478012e+02 1.109353e+01 1.615391e+02
         vertex 1.478012e+02 7.462905e+00 1.595985e+02
      endloop
   endfacet
   facet normal 0.000000e+00 -4.713918e-01 8.819239e-01
      outer loop
         vertex 1.498012e+02 7.462905e+00 1.595985e+02
         vertex 1.498012e+02 1.109353e+01 1.615391e+02
         vertex 1.478012e+02 7.462905e+00 1.595985e+02
      endloop
   endfacet
   facet normal 0.000000e+00 -6.343950e-01 7.730091e-01
      outer loop
         vertex 1.498012e+02 1.427580e+01 1.641508e+02
         vertex 1.478012e+02 1.427580e+01 1.641508e+02
         vertex 1.478012e+02 1.109353e+01 1.615391e+02
      endloop
   endfacet
   facet normal 0.000000e+00 -6.343950e-01 7.730091e-01
      outer loop
         vertex 1.498012e+02 1.109353e+01 1.615391e+02
         vertex 1.498012e+02 1.427580e+01 1.641508e+02
         vertex 1.478012e+02 1.109353e+01 1.615391e+02
      endloop
   endfacet
   facet normal 0.000000e+00 -7.730119e-01 6.343916e-01
      outer loop
         vertex 1.498012e+02 1.688742e+01 1.673330e+02
         vertex 1.478012e+02 1.688742e+01 1.673330e+02
         vertex 1.478012e+02 1.427580e+01 1.641508e+02
      endloop
   endfacet
   facet normal 0.000000e+00 -7.730119e-01 6.343916e-01
      outer loop
         vertex 1.498012e+02 1.427580e+01 1.641508e+02
         vertex 1.498012e+02 1.688742e+01 1.673330e+02
         vertex 1.478012e+02 1.427580e+01 1.641508e+02
      endloop
   endfacet
   facet normal 0.000000e+00 -8.819208e-01 4.713976e-01
      outer loop
         vertex 1.498012e+02 1.882803e+01 1.709637e+02
         vertex 1.478012e+02 1.882803e+01 1.709637e+02
         vertex 1.478012e+02 1.688742e+01 1.673330e+02
      endloop
   endfacet
   facet normal 0.000000e+00 -8.819208e-01 4.713976e-01
      outer loop
         vertex 1.498012e+02 1.688742e+01 1.673330e+02
         vertex 1.498012e+02 1.882803e+01 1.709637e+02
         vertex 1.478012e+02 1.688742e+01 1.673330e+02
      endloop
   endfacet
   facet normal 0.000000e+00 -9.569402e-01 2.902852e-01
      outer loop
         vertex 1.498012e+02 2.002305e+01 1.749031e+02
         vertex 1.478012e+02 2.002305e+01 1.749031e+02
         vertex 1.478012e+02 1.882803e+01 1.709637e+02
      endloop
   endfacet
   facet normal 0.000000e+00 -9.569402e-01 2.902852e-01
      outer loop
         vertex 1.498012e+02 1.882803e+01 1.709637e+02
         vertex 1.498012e+02 2.002305e+01 1.749031e+02
         vertex 1.478012e+02 1.882803e+01 1.709637e+02
      endloop
   endfacet
   facet normal 0.000000e+00 -9.951848e-01 9.801677e-02
      outer loop
         vertex 1.498012e+02 2.042656e+01 1.790000e+02
         vertex 1.478012e+02 2.042656e+01 1.790000e+02
         vertex 1.478012e+02 2.002305e+01 1.749031e+02
      endloop
   endfacet
   facet normal 0.000000e+00 -9.951848e-01 9.801677e-02
      outer loop
         vertex 1.498012e+02 2.002305e+01 1.749031e+02
         vertex 1.498012e+02 2.042656e+01 1.790000e+02
         vertex 1.478012e+02 2.002305e+01 1.749031e+02
      endloop
   endfacet
   facet normal 0.000000e+00 1.000000e+00 0.000000e+00
      outer loop
         vertex 1.498012e+02 -2.157344e+01 1.790000e+02
         vertex 1.478012e+02 -2.157344e+01 1.790000e+02
         vertex 1.478012e+02 -2.157344e+01 2.090000e+02
      endloop
   endfacet
   facet normal 0.000000e+00 1.000000e+00 -0.000000e+00
      outer loop
         vertex 1.498012e+02 -2.157344e+01 2.090000e+02
         vertex 1.498012e+02 -2.157344e+01 1.790000e+02
         vertex 1.478012e+02 -2.157344e+01 2.090000e+02
      endloop
   endfacet
   facet normal 0.000000e+00 -1.000000e+00 0.000000e+00
      outer loop
         vertex 1.498012e+02 2.042656e+01 2.090000e+02
         vertex 1.478012e+02 2.042656e+01 2.090000e+02
         vertex 1.478012e+02 2.042656e+01 1.790000e+02
      endloop
   endfacet
   facet normal 0.000000e+00 -1.000000e+00 -0.000000e+00
      outer loop
         vertex 1.498012e+02 2.042656e+01 1.790000e+02
         vertex 1.498012e+02 2.042656e+01 2.090000e+02
         vertex 1.478012e+02 2.042656e+01 1.790000e+02
      endloop
   endfacet
   facet normal 1.000000e+00 0.000000e+00 0.000000e+00
      outer loop
         vertex -2.198803e+00 4.142656e+01 2.600000e+01
         vertex -2.198803e+00 4.142656e+01 2.090000e+02
         vertex -2.198803e+00 -2.607344e+01 -2.090000e+02
      endloop
   endfacet
   facet normal 1.000000e+00 -0.000000e+00 0.000000e+00
      outer loop
         vertex -2.198803e+00 4.142656e+01 2.090000e+02
         vertex -2.198803e+00 3.042656e+01 2.090000e+02
         vertex -2.198803e+00 -2.607344e+01 -2.090000e+02
      endloop
   endfacet
   facet normal 1.000000e+00 0.000000e+00 0.000000e+00
      outer loop
         vertex -2.198803e+00 -2.607344e+01 -2.090000e+02
         vertex -2.198803e+00 3.042656e+01 2.090000e+02
         vertex -2.198803e+00 -3.807344e+01 -2.090000e+02
      endloop
   endfacet
   facet normal 1.000000e+00 -0.000000e+00 0.000000e+00
      outer loop
         vertex -2.198803e+00 3.042656e+01 2.090000e+02
         vertex -2.198803e+00 -3.807344e+01 1.240000e+02
         vertex -2.198803e+00 -3.807344e+01 -2.090000e+02
      endloop
   endfacet
   facet normal -1.000000e+00 0.000000e+00 0.000000e+00
      outer loop
         vertex -4.198803e+00 -2.607344e+01 -2.090000e+02
         vertex -4.198803e+00 -3.807344e+01 -2.090000e+02
         vertex -4.198803e+00 4.142656e+01 2.600000e+01
      endloop
   endfacet
   facet normal -1.000000e+00 0.000000e+00 0.000000e+00
      outer loop
         vertex -4.198803e+00 -3.807344e+01 -2.090000e+02
         vertex -4.198803e+00 -3.807344e+01 1.240000e+02
         vertex -4.198803e+00 4.142656e+01 2.600000e+01
      endloop
   endfacet
   facet normal -1.000000e+00 0.000000e+00 0.000000e+00
      outer loop
         vertex -4.198803e+00 4.142656e+01 2.600000e+01
         vertex -4.198803e+00 -3.807344e+01 1.240000e+02
         vertex -4.198803e+00 4.142656e+01 2.090000e+02
      endloop
   endfacet
   facet normal -1.000000e+00 0.000000e+00 -0.000000e+00
      outer loop
         vertex -4.198803e+00 -3.807344e+01 1.240000e+02
         vertex -4.198803e+00 3.042656e+01 2.090000e+02
         vertex -4.198803e+00 4.142656e+01 2.090000e+02
      endloop
   endfacet
   facet normal 9.659259e-01 2.588189e-01 -0.000000e+00
      outer loop
         vertex -1.930854e+00 -3.907344e+01 1.240000e+02
         vertex -1.930854e+00 -3.907344e+01 -2.090000e+02
         vertex -2.198803e+00 -3.807344e+01 -2.090000e+02
      endloop
   endfacet
   facet normal 9.659259e-01 2.588189e-01 0.000000e+00
      outer loop
         vertex -2.198803e+00 -3.807344e+01 1.240000e+02
         vertex -1.930854e+00 -3.907344e+01 1.240000e+02
         vertex -2.198803e+00 -3.807344e+01 -2.090000e+02
      endloop
   endfacet
   facet normal 7.071072e-01 7.071063e-01 -0.000000e+00
      outer loop
         vertex -1.198803e+00 -3.980550e+01 1.240000e+02
         vertex -1.198803e+00 -3.980550e+01 -2.090000e+02
         vertex -1.930854e+00 -3.907344e+01 -2.090000e+02
      endloop
   endfacet
   facet normal 7.071072e-01 7.071063e-01 0.000000e+00
      outer loop
         vertex -1.930854e+00 -3.907344e+01 1.240000e+02
         vertex -1.198803e+00 -3.980550e+01 1.240000e+02
         vertex -1.930854e+00 -3.907344e+01 -2.090000e+02
      endloop
   endfacet
   facet normal 2.588181e-01 9.659261e-01 -0.000000e+00
      outer loop
         vertex -1.988030e-01 -4.007344e+01 1.240000e+02
         vertex -1.988030e-01 -4.007344e+01 -2.090000e+02
         vertex -1.198803e+00 -3.980550e+01 -2.090000e+02
      endloop
   endfacet
   facet normal 2.588181e-01 9.659261e-01 0.000000e+00
      outer loop
         vertex -1.198803e+00 -3.980550e+01 1.240000e+02
         vertex -1.988030e-01 -4.007344e+01 1.240000e+02
         vertex -1.198803e+00 -3.980550e+01 -2.090000e+02
      endloop
   endfacet
   facet normal 0.000000e+00 1.000000e+00 0.000000e+00
      outer loop
         vertex 1.580120e+01 -4.007344e+01 -2.090000e+02
         vertex -1.988030e-01 -4.007344e+01 -2.090000e+02
         vertex -1.988030e-01 -4.007344e+01 1.240000e+02
      endloop
   endfacet
   facet normal -0.000000e+00 1.000000e+00 0.000000e+00
      outer loop
         vertex 1.580120e+01 -4.007344e+01 -2.090000e+02
         vertex -1.988030e-01 -4.007344e+01 1.240000e+02
         vertex 1.580120e+01 -4.007344e+01 1.240000e+02
      endloop
   endfacet
   facet normal 1.000000e+00 0.000000e+00 -0.000000e+00
      outer loop
         vertex 1.580120e+01 -4.207344e+01 -2.090000e+02
         vertex 1.580120e+01 -4.007344e+01 -2.090000e+02
         vertex 1.580120e+01 -4.007344e+01 1.240000e+02
      endloop
   endfacet
   facet normal 1.000000e+00 0.000000e+00 0.000000e+00
      outer loop
         vertex 1.580120e+01 -4.207344e+01 -2.090000e+02
         vertex 1.580120e+01 -4.007344e+01 1.240000e+02
         vertex 1.580120e+01 -4.207344e+01 1.240000e+02
      endloop
   endfacet
   facet normal 0.000000e+00 -1.000000e+00 0.000000e+00
      outer loop
         vertex -1.988030e-01 -4.207344e+01 -2.090000e+02
         vertex 1.580120e+01 -4.207344e+01 -2.090000e+02
         vertex 1.580120e+01 -4.207344e+01 1.240000e+02
      endloop
   endfacet
   facet normal -0.000000e+00 -1.000000e+00 0.000000e+00
      outer loop
         vertex -1.988030e-01 -4.207344e+01 -2.090000e+02
         vertex 1.580120e+01 -4.207344e+01 1.240000e+02
         vertex -1.988030e-01 -4.207344e+01 1.240000e+02
      endloop
   endfacet
   facet normal -9.807853e-01 -1.950901e-01 0.000000e+00
      outer loop
         vertex -4.198803e+00 -3.807344e+01 -2.090000e+02
         vertex -3.894321e+00 -3.960418e+01 -2.090000e+02
         vertex -3.894321e+00 -3.960418e+01 1.240000e+02
      endloop
   endfacet
   facet normal -9.807853e-01 -1.950901e-01 0.000000e+00
      outer loop
         vertex -4.198803e+00 -3.807344e+01 -2.090000e+02
         vertex -3.894321e+00 -3.960418e+01 1.240000e+02
         vertex -4.198803e+00 -3.807344e+01 1.240000e+02
      endloop
   endfacet
   facet normal -8.314692e-01 -5.555709e-01 0.000000e+00
      outer loop
         vertex -3.894321e+00 -3.960418e+01 -2.090000e+02
         vertex -3.027230e+00 -4.090187e+01 -2.090000e+02
         vertex -3.027230e+00 -4.090187e+01 1.240000e+02
      endloop
   endfacet
   facet normal -8.314692e-01 -5.555709e-01 0.000000e+00
      outer loop
         vertex -3.894321e+00 -3.960418e+01 -2.090000e+02
         vertex -3.027230e+00 -4.090187e+01 1.240000e+02
         vertex -3.894321e+00 -3.960418e+01 1.240000e+02
      endloop
   endfacet
   facet normal -5.555708e-01 -8.314692e-01 0.000000e+00
      outer loop
         vertex -3.027230e+00 -4.090187e+01 -2.090000e+02
         vertex -1.729537e+00 -4.176896e+01 -2.090000e+02
         vertex -1.729537e+00 -4.176896e+01 1.240000e+02
      endloop
   endfacet
   facet normal -5.555708e-01 -8.314692e-01 0.000000e+00
      outer loop
         vertex -3.027230e+00 -4.090187e+01 -2.090000e+02
         vertex -1.729537e+00 -4.176896e+01 1.240000e+02
         vertex -3.027230e+00 -4.090187e+01 1.240000e+02
      endloop
   endfacet
   facet normal -1.950901e-01 -9.807853e-01 0.000000e+00
      outer loop
         vertex -1.729537e+00 -4.176896e+01 -2.090000e+02
         vertex -1.988030e-01 -4.207344e+01 -2.090000e+02
         vertex -1.988030e-01 -4.207344e+01 1.240000e+02
      endloop
   endfacet
   facet normal -1.950901e-01 -9.807853e-01 0.000000e+00
      outer loop
         vertex -1.729537e+00 -4.176896e+01 -2.090000e+02
         vertex -1.988030e-01 -4.207344e+01 1.240000e+02
         vertex -1.729537e+00 -4.176896e+01 1.240000e+02
      endloop
   endfacet
   facet normal 0.000000e+00 0.000000e+00 1.000000e+00
      outer loop
         vertex -4.198803e+00 3.042656e+01 2.090000e+02
         vertex -2.198803e+00 3.042656e+01 2.090000e+02
         vertex -4.198803e+00 4.142656e+01 2.090000e+02
      endloop
   endfacet
   facet normal 0.000000e+00 0.000000e+00 1.000000e+00
      outer loop
         vertex -2.198803e+00 3.042656e+01 2.090000e+02
         vertex -2.198803e+00 4.142656e+01 2.090000e+02
         vertex -4.198803e+00 4.142656e+01 2.090000e+02
      endloop
   endfacet
   facet normal 0.000000e+00 0.000000e+00 1.000000e+00
      outer loop
         vertex -4.198803e+00 4.142656e+01 2.090000e+02
         vertex -2.198803e+00 4.142656e+01 2.090000e+02
         vertex -4.466752e+00 4.242656e+01 2.090000e+02
      endloop
   endfacet
   facet normal 0.000000e+00 0.000000e+00 1.000000e+00
      outer loop
         vertex -2.198803e+00 4.142656e+01 2.090000e+02
         vertex -2.503285e+00 4.295729e+01 2.090000e+02
         vertex -4.466752e+00 4.242656e+01 2.090000e+02
      endloop
   endfacet
   facet normal 0.000000e+00 0.000000e+00 1.000000e+00
      outer loop
         vertex -4.466752e+00 4.242656e+01 2.090000e+02
         vertex -2.503285e+00 4.295729e+01 2.090000e+02
         vertex -5.198803e+00 4.315860e+01 2.090000e+02
      endloop
   endfacet
   facet normal 0.000000e+00 0.000000e+00 1.000000e+00
      outer loop
         vertex -2.503285e+00 4.295729e+01 2.090000e+02
         vertex -3.370376e+00 4.425499e+01 2.090000e+02
         vertex -5.198803e+00 4.315860e+01 2.090000e+02
      endloop
   endfacet
   facet normal 0.000000e+00 0.000000e+00 1.000000e+00
      outer loop
         vertex -5.198803e+00 4.315860e+01 2.090000e+02
         vertex -3.370376e+00 4.425499e+01 2.090000e+02
         vertex -6.198803e+00 4.342656e+01 2.090000e+02
      endloop
   endfacet
   facet normal 0.000000e+00 0.000000e+00 1.000000e+00
      outer loop
         vertex -3.370376e+00 4.425499e+01 2.090000e+02
         vertex -4.668069e+00 4.512207e+01 2.090000e+02
         vertex -6.198803e+00 4.342656e+01 2.090000e+02
      endloop
   endfacet
   facet normal 0.000000e+00 0.000000e+00 1.000000e+00
      outer loop
         vertex -6.198803e+00 4.342656e+01 2.090000e+02
         vertex -4.668069e+00 4.512207e+01 2.090000e+02
         vertex -2.219880e+01 4.342656e+01 2.090000e+02
      endloop
   endfacet
   facet normal 0.000000e+00 0.000000e+00 1.000000e+00
      outer loop
         vertex -4.668069e+00 4.512207e+01 2.090000e+02
         vertex -6.198803e+00 4.542656e+01 2.090000e+02
         vertex -2.219880e+01 4.342656e+01 2.090000e+02
      endloop
   endfacet
   facet normal 0.000000e+00 0.000000e+00 1.000000e+00
      outer loop
         vertex -2.219880e+01 4.342656e+01 2.090000e+02
         vertex -6.198803e+00 4.542656e+01 2.090000e+02
         vertex -2.219880e+01 4.542656e+01 2.090000e+02
      endloop
   endfacet
   facet normal -9.659258e-01 -2.588190e-01 0.000000e+00
      outer loop
         vertex -4.466752e+00 4.242656e+01 2.090000e+02
         vertex -4.466752e+00 4.242656e+01 2.600000e+01
         vertex -4.198803e+00 4.142656e+01 2.600000e+01
      endloop
   endfacet
   facet normal -9.659258e-01 -2.588190e-01 0.000000e+00
      outer loop
         vertex -4.198803e+00 4.142656e+01 2.090000e+02
         vertex -4.466752e+00 4.242656e+01 2.090000e+02
         vertex -4.198803e+00 4.142656e+01 2.600000e+01
      endloop
   endfacet
   facet normal -7.071054e-01 -7.071082e-01 0.000000e+00
      outer loop
         vertex -5.198803e+00 4.315860e+01 2.090000e+02
         vertex -5.198803e+00 4.315860e+01 2.600000e+01
         vertex -4.466752e+00 4.242656e+01 2.600000e+01
      endloop
   endfacet
   facet normal -7.071054e-01 -7.071082e-01 0.000000e+00
      outer loop
         vertex -4.466752e+00 4.242656e+01 2.090000e+02
         vertex -5.198803e+00 4.315860e+01 2.090000e+02
         vertex -4.466752e+00 4.242656e+01 2.600000e+01
      endloop
   endfacet
   facet normal -2.588215e-01 -9.659252e-01 0.000000e+00
      outer loop
         vertex -6.198803e+00 4.342656e+01 2.090000e+02
         vertex -6.198803e+00 4.342656e+01 2.600000e+01
         vertex -5.198803e+00 4.315860e+01 2.600000e+01
      endloop
   endfacet
   facet normal -2.588215e-01 -9.659252e-01 0.000000e+00
      outer loop
         vertex -5.198803e+00 4.315860e+01 2.090000e+02
         vertex -6.198803e+00 4.342656e+01 2.090000e+02
         vertex -5.198803e+00 4.315860e+01 2.600000e+01
      endloop
   endfacet
   facet normal 0.000000e+00 -1.000000e+00 0.000000e+00
      outer loop
         vertex -6.198803e+00 4.342656e+01 2.090000e+02
         vertex -2.219880e+01 4.342656e+01 2.090000e+02
         vertex -2.219880e+01 4.342656e+01 2.600000e+01
      endloop
   endfacet
   facet normal 0.000000e+00 -1.000000e+00 0.000000e+00
      outer loop
         vertex -6.198803e+00 4.342656e+01 2.090000e+02
         vertex -2.219880e+01 4.342656e+01 2.600000e+01
         vertex -6.198803e+00 4.342656e+01 2.600000e+01
      endloop
   endfacet
   facet normal -1.000000e+00 -0.000000e+00 -0.000000e+00
      outer loop
         vertex -2.219880e+01 4.342656e+01 2.090000e+02
         vertex -2.219880e+01 4.542656e+01 2.090000e+02
         vertex -2.219880e+01 4.542656e+01 2.600000e+01
      endloop
   endfacet
   facet normal -1.000000e+00 0.000000e+00 0.000000e+00
      outer loop
         vertex -2.219880e+01 4.342656e+01 2.090000e+02
         vertex -2.219880e+01 4.542656e+01 2.600000e+01
         vertex -2.219880e+01 4.342656e+01 2.600000e+01
      endloop
   endfacet
   facet normal 0.000000e+00 1.000000e+00 0.000000e+00
      outer loop
         vertex -2.219880e+01 4.542656e+01 2.090000e+02
         vertex -6.198803e+00 4.542656e+01 2.090000e+02
         vertex -6.198803e+00 4.542656e+01 2.600000e+01
      endloop
   endfacet
   facet normal 0.000000e+00 1.000000e+00 0.000000e+00
      outer loop
         vertex -2.219880e+01 4.542656e+01 2.090000e+02
         vertex -6.198803e+00 4.542656e+01 2.600000e+01
         vertex -2.219880e+01 4.542656e+01 2.600000e+01
      endloop
   endfacet
   facet normal 9.807852e-01 1.950907e-01 -0.000000e+00
      outer loop
         vertex -2.198803e+00 4.142656e+01 2.600000e+01
         vertex -2.503285e+00 4.295729e+01 2.600000e+01
         vertex -2.503285e+00 4.295729e+01 2.090000e+02
      endloop
   endfacet
   facet normal 9.807852e-01 1.950907e-01 0.000000e+00
      outer loop
         vertex -2.198803e+00 4.142656e+01 2.600000e+01
         vertex -2.503285e+00 4.295729e+01 2.090000e+02
         vertex -2.198803e+00 4.142656e+01 2.090000e+02
      endloop
   endfacet
   facet normal 8.314707e-01 5.555686e-01 -0.000000e+00
      outer loop
         vertex -2.503285e+00 4.295729e+01 2.600000e+01
         vertex -3.370376e+00 4.425499e+01 2.600000e+01
         vertex -3.370376e+00 4.425499e+01 2.090000e+02
      endloop
   endfacet
   facet normal 8.314707e-01 5.555686e-01 0.000000e+00
      outer loop
         vertex -2.503285e+00 4.295729e+01 2.600000e+01
         vertex -3.370376e+00 4.425499e+01 2.090000e+02
         vertex -2.503285e+00 4.295729e+01 2.090000e+02
      endloop
   endfacet
   facet normal 5.555690e-01 8.314704e-01 -0.000000e+00
      outer loop
         vertex -3.370376e+00 4.425499e+01 2.600000e+01
         vertex -4.668069e+00 4.512207e+01 2.600000e+01
         vertex -4.668069e+00 4.512207e+01 2.090000e+02
      endloop
   endfacet
   facet normal 5.555690e-01 8.314704e-01 0.000000e+00
      outer loop
         vertex -3.370376e+00 4.425499e+01 2.600000e+01
         vertex -4.668069e+00 4.512207e+01 2.090000e+02
         vertex -3.370376e+00 4.425499e+01 2.090000e+02
      endloop
   endfacet
   facet normal 1.950901e-01 9.807853e-01 -0.000000e+00
      outer loop
         vertex -4.668069e+00 4.512207e+01 2.600000e+01
         vertex -6.198803e+00 4.542656e+01 2.600000e+01
         vertex -6.198803e+00 4.542656e+01 2.090000e+02
      endloop
   endfacet
   facet normal 1.950901e-01 9.807853e-01 0.000000e+00
      outer loop
         vertex -4.668069e+00 4.512207e+01 2.600000e+01
         vertex -6.198803e+00 4.542656e+01 2.090000e+02
         vertex -4.668069e+00 4.512207e+01 2.090000e+02
      endloop
   endfacet
   facet normal 0.000000e+00 0.000000e+00 -1.000000e+00
      outer loop
         vertex -3.894321e+00 -3.960418e+01 -2.090000e+02
         vertex -4.198803e+00 -3.807344e+01 -2.090000e+02
         vertex -3.027230e+00 -4.090187e+01 -2.090000e+02
      endloop
   endfacet
   facet normal 0.000000e+00 0.000000e+00 -1.000000e+00
      outer loop
         vertex -4.198803e+00 -3.807344e+01 -2.090000e+02
         vertex -4.198803e+00 -2.607344e+01 -2.090000e+02
         vertex -3.027230e+00 -4.090187e+01 -2.090000e+02
      endloop
   endfacet
   facet normal 0.000000e+00 0.000000e+00 -1.000000e+00
      outer loop
         vertex -3.027230e+00 -4.090187e+01 -2.090000e+02
         vertex -4.198803e+00 -2.607344e+01 -2.090000e+02
         vertex -1.729537e+00 -4.176896e+01 -2.090000e+02
      endloop
   endfacet
   facet normal -0.000000e+00 -0.000000e+00 -1.000000e+00
      outer loop
         vertex -4.198803e+00 -2.607344e+01 -2.090000e+02
         vertex -2.198803e+00 -3.807344e+01 -2.090000e+02
         vertex -1.729537e+00 -4.176896e+01 -2.090000e+02
      endloop
   endfacet
   facet normal 0.000000e+00 0.000000e+00 -1.000000e+00
      outer loop
         vertex -1.729537e+00 -4.176896e+01 -2.090000e+02
         vertex -1.930854e+00 -3.907344e+01 -2.090000e+02
         vertex -1.988030e-01 -4.207344e+01 -2.090000e+02
      endloop
   endfacet
   facet normal -0.000000e+00 -0.000000e+00 -1.000000e+00
      outer loop
         vertex -1.930854e+00 -3.907344e+01 -2.090000e+02
         vertex -1.198803e+00 -3.980550e+01 -2.090000e+02
         vertex -1.988030e-01 -4.207344e+01 -2.090000e+02
      endloop
   endfacet
   facet normal 0.000000e+00 0.000000e+00 -1.000000e+00
      outer loop
         vertex -1.988030e-01 -4.207344e+01 -2.090000e+02
         vertex -1.988030e-01 -4.007344e+01 -2.090000e+02
         vertex 1.580120e+01 -4.207344e+01 -2.090000e+02
      endloop
   endfacet
   facet normal -0.000000e+00 -0.000000e+00 -1.000000e+00
      outer loop
         vertex -1.988030e-01 -4.007344e+01 -2.090000e+02
         vertex 1.580120e+01 -4.007344e+01 -2.090000e+02
         vertex 1.580120e+01 -4.207344e+01 -2.090000e+02
      endloop
   endfacet
   facet normal 0.000000e+00 0.000000e+00 -1.000000e+00
      outer loop
         vertex -1.988030e-01 -4.007344e+01 -2.090000e+02
         vertex -1.988030e-01 -4.207344e+01 -2.090000e+02
         vertex -1.198803e+00 -3.980550e+01 -2.090000e+02
      endloop
   endfacet
   facet normal 0.000000e+00 0.000000e+00 -1.000000e+00
      outer loop
         vertex -1.930854e+00 -3.907344e+01 -2.090000e+02
         vertex -1.729537e+00 -4.176896e+01 -2.090000e+02
         vertex -2.198803e+00 -3.807344e+01 -2.090000e+02
      endloop
   endfacet
   facet normal 0.000000e+00 0.000000e+00 -1.000000e+00
      outer loop
         vertex -2.198803e+00 -3.807344e+01 -2.090000e+02
         vertex -4.198803e+00 -2.607344e+01 -2.090000e+02
         vertex -2.198803e+00 -2.607344e+01 -2.090000e+02
      endloop
   endfacet
   facet normal 0.000000e+00 9.611372e-01 -2.760713e-01
      outer loop
         vertex -2.198803e+00 4.142656e+01 2.600000e+01
         vertex -2.198803e+00 -2.607344e+01 -2.090000e+02
         vertex -4.198803e+00 -2.607344e+01 -2.090000e+02
      endloop
   endfacet
   facet normal 0.000000e+00 9.611372e-01 -2.760713e-01
      outer loop
         vertex -2.198803e+00 4.142656e+01 2.600000e+01
         vertex -4.198803e+00 -2.607344e+01 -2.090000e+02
         vertex -4.198803e+00 4.142656e+01 2.600000e+01
      endloop
   endfacet
   facet normal 0.000000e+00 0.000000e+00 -1.000000e+00
      outer loop
         vertex -2.219880e+01 4.342656e+01 2.600000e+01
         vertex -2.219880e+01 4.542656e+01 2.600000e+01
         vertex -6.198803e+00 4.342656e+01 2.600000e+01
      endloop
   endfacet
   facet normal -0.000000e+00 -0.000000e+00 -1.000000e+00
      outer loop
         vertex -2.219880e+01 4.542656e+01 2.600000e+01
         vertex -6.198803e+00 4.542656e+01 2.600000e+01
         vertex -6.198803e+00 4.342656e+01 2.600000e+01
      endloop
   endfacet
   facet normal 0.000000e+00 0.000000e+00 -1.000000e+00
      outer loop
         vertex -6.198803e+00 4.342656e+01 2.600000e+01
         vertex -6.198803e+00 4.542656e+01 2.600000e+01
         vertex -5.198803e+00 4.315860e+01 2.600000e+01
      endloop
   endfacet
   facet normal -0.000000e+00 0.000000e+00 -1.000000e+00
      outer loop
         vertex -6.198803e+00 4.542656e+01 2.600000e+01
         vertex -4.668069e+00 4.512207e+01 2.600000e+01
         vertex -5.198803e+00 4.315860e+01 2.600000e+01
      endloop
   endfacet
   facet normal 0.000000e+00 -0.000000e+00 -1.000000e+00
      outer loop
         vertex -5.198803e+00 4.315860e+01 2.600000e+01
         vertex -4.668069e+00 4.512207e+01 2.600000e+01
         vertex -4.466752e+00 4.242656e+01 2.600000e+01
      endloop
   endfacet
   facet normal -0.000000e+00 0.000000e+00 -1.000000e+00
      outer loop
         vertex -4.668069e+00 4.512207e+01 2.600000e+01
         vertex -3.370376e+00 4.425499e+01 2.600000e+01
         vertex -4.466752e+00 4.242656e+01 2.600000e+01
      endloop
   endfacet
   facet normal 0.000000e+00 0.000000e+00 -1.000000e+00
      outer loop
         vertex -4.466752e+00 4.242656e+01 2.600000e+01
         vertex -3.370376e+00 4.425499e+01 2.600000e+01
         vertex -4.198803e+00 4.142656e+01 2.600000e+01
      endloop
   endfacet
   facet normal -0.000000e+00 0.000000e+00 -1.000000e+00
      outer loop
         vertex -3.370376e+00 4.425499e+01 2.600000e+01
         vertex -2.503285e+00 4.295729e+01 2.600000e+01
         vertex -4.198803e+00 4.142656e+01 2.600000e+01
      endloop
   endfacet
   facet normal 0.000000e+00 -0.000000e+00 -1.000000e+00
      outer loop
         vertex -4.198803e+00 4.142656e+01 2.600000e+01
         vertex -2.503285e+00 4.295729e+01 2.600000e+01
         vertex -2.198803e+00 4.142656e+01 2.600000e+01
      endloop
   endfacet
   facet normal 0.000000e+00 -7.786296e-01 6.274838e-01
      outer loop
         vertex -2.198803e+00 3.042656e+01 2.090000e+02
         vertex -4.198803e+00 3.042656e+01 2.090000e+02
         vertex -4.198803e+00 -3.807344e+01 1.240000e+02
      endloop
   endfacet
   facet normal 0.000000e+00 -7.786296e-01 6.274838e-01
      outer loop
         vertex -2.198803e+00 3.042656e+01 2.090000e+02
         vertex -4.198803e+00 -3.807344e+01 1.240000e+02
         vertex -2.198803e+00 -3.807344e+01 1.240000e+02
      endloop
   endfacet
   facet normal -0.000000e+00 0.000000e+00 1.000000e+00
      outer loop
         vertex -2.198803e+00 -3.807344e+01 1.240000e+02
         vertex -4.198803e+00 -3.807344e+01 1.240000e+02
         vertex -1.930854e+00 -3.907344e+01 1.240000e+02
      endloop
   endfacet
   facet normal 0.000000e+00 -0.000000e+00 1.000000e+00
      outer loop
         vertex -4.198803e+00 -3.807344e+01 1.240000e+02
         vertex -3.894321e+00 -3.960418e+01 1.240000e+02
         vertex -1.930854e+00 -3.907344e+01 1.240000e+02
      endloop
   endfacet
   facet normal -0.000000e+00 0.000000e+00 1.000000e+00
      outer loop
         vertex -1.930854e+00 -3.907344e+01 1.240000e+02
         vertex -3.894321e+00 -3.960418e+01 1.240000e+02
         vertex -1.198803e+00 -3.980550e+01 1.240000e+02
      endloop
   endfacet
   facet normal 0.000000e+00 -0.000000e+00 1.000000e+00
      outer loop
         vertex -3.894321e+00 -3.960418e+01 1.240000e+02
         vertex -3.027230e+00 -4.090187e+01 1.240000e+02
         vertex -1.198803e+00 -3.980550e+01 1.240000e+02
      endloop
   endfacet
   facet normal 0.000000e+00 0.000000e+00 1.000000e+00
      outer loop
         vertex -1.198803e+00 -3.980550e+01 1.240000e+02
         vertex -3.027230e+00 -4.090187e+01 1.240000e+02
         vertex -1.988030e-01 -4.007344e+01 1.240000e+02
      endloop
   endfacet
   facet normal 0.000000e+00 -0.000000e+00 1.000000e+00
      outer loop
         vertex -3.027230e+00 -4.090187e+01 1.240000e+02
         vertex -1.729537e+00 -4.176896e+01 1.240000e+02
         vertex -1.988030e-01 -4.007344e+01 1.240000e+02
      endloop
   endfacet
   facet normal 0.000000e+00 0.000000e+00 1.000000e+00
      outer loop
         vertex -1.988030e-01 -4.007344e+01 1.240000e+02
         vertex -1.729537e+00 -4.176896e+01 1.240000e+02
         vertex 1.580120e+01 -4.007344e+01 1.240000e+02
      endloop
   endfacet
   facet normal 0.000000e+00 -0.000000e+00 1.000000e+00
      outer loop
         vertex -1.729537e+00 -4.176896e+01 1.240000e+02
         vertex -1.988030e-01 -4.207344e+01 1.240000e+02
         vertex 1.580120e+01 -4.007344e+01 1.240000e+02
      endloop
   endfacet
   facet normal 0.000000e+00 0.000000e+00 1.000000e+00
      outer loop
         vertex 1.580120e+01 -4.007344e+01 1.240000e+02
         vertex -1.988030e-01 -4.207344e+01 1.240000e+02
         vertex 1.580120e+01 -4.207344e+01 1.240000e+02
      endloop
   endfacet
   facet normal 0.000000e+00 1.000000e+00 0.000000e+00
      outer loop
         vertex 1.478012e+02 -2.607344e+01 -2.090000e+02
         vertex -2.198803e+00 -2.607344e+01 -2.090000e+02
         vertex -2.198803e+00 -2.607344e+01 -2.070000e+02
      endloop
   endfacet
   facet normal -0.000000e+00 1.000000e+00 0.000000e+00
      outer loop
         vertex 1.478012e+02 -2.607344e+01 -2.090000e+02
         vertex -2.198803e+00 -2.607344e+01 -2.070000e+02
         vertex 1.478012e+02 -2.607344e+01 -2.070000e+02
      endloop
   endfacet
   facet normal 0.000000e+00 0.000000e+00 1.000000e+00
      outer loop
         vertex 1.478012e+02 -3.707344e+01 -2.070000e+02
         vertex 1.478012e+02 -2.607344e+01 -2.070000e+02
         vertex 1.448012e+02 -4.007344e+01 -2.070000e+02
      endloop
   endfacet
   facet normal -0.000000e+00 0.000000e+00 1.000000e+00
      outer loop
         vertex 1.478012e+02 -2.607344e+01 -2.070000e+02
         vertex 1.298012e+02 -3.807344e+01 -2.070000e+02
         vertex 1.448012e+02 -4.007344e+01 -2.070000e+02
      endloop
   endfacet
   facet normal 0.000000e+00 0.000000e+00 1.000000e+00
      outer loop
         vertex 1.448012e+02 -4.007344e+01 -2.070000e+02
         vertex 1.298012e+02 -3.807344e+01 -2.070000e+02
         vertex 1.298012e+02 -4.007344e+01 -2.070000e+02
      endloop
   endfacet
   facet normal 0.000000e+00 0.000000e+00 1.000000e+00
      outer loop
         vertex 1.298012e+02 -3.807344e+01 -2.070000e+02
         vertex 1.478012e+02 -2.607344e+01 -2.070000e+02
         vertex 1.580120e+01 -3.807344e+01 -2.070000e+02
      endloop
   endfacet
   facet normal -0.000000e+00 0.000000e+00 1.000000e+00
      outer loop
         vertex 1.478012e+02 -2.607344e+01 -2.070000e+02
         vertex -2.198803e+00 -2.607344e+01 -2.070000e+02
         vertex 1.580120e+01 -3.807344e+01 -2.070000e+02
      endloop
   endfacet
   facet normal 0.000000e+00 0.000000e+00 1.000000e+00
      outer loop
         vertex 1.580120e+01 -3.807344e+01 -2.070000e+02
         vertex -2.198803e+00 -2.607344e+01 -2.070000e+02
         vertex 1.580120e+01 -4.007344e+01 -2.070000e+02
      endloop
   endfacet
   facet normal -0.000000e+00 0.000000e+00 1.000000e+00
      outer loop
         vertex -2.198803e+00 -2.607344e+01 -2.070000e+02
         vertex -2.198803e+00 -3.707344e+01 -2.070000e+02
         vertex 1.580120e+01 -4.007344e+01 -2.070000e+02
      endloop
   endfacet
   facet normal 0.000000e+00 0.000000e+00 1.000000e+00
      outer loop
         vertex 1.580120e+01 -4.007344e+01 -2.070000e+02
         vertex -2.198803e+00 -3.707344e+01 -2.070000e+02
         vertex 8.011970e-01 -4.007344e+01 -2.070000e+02
      endloop
   endfacet
   facet normal 0.000000e+00 2.588147e-01 9.659270e-01
      outer loop
         vertex 1.580120e+01 -3.907344e+01 -2.067321e+02
         vertex 1.298012e+02 -3.907344e+01 -2.067321e+02
         vertex 1.298012e+02 -3.807344e+01 -2.070000e+02
      endloop
   endfacet
   facet normal 0.000000e+00 2.588147e-01 9.659270e-01
      outer loop
         vertex 1.580120e+01 -3.807344e+01 -2.070000e+02
         vertex 1.580120e+01 -3.907344e+01 -2.067321e+02
         vertex 1.298012e+02 -3.807344e+01 -2.070000e+02
      endloop
   endfacet
   facet normal 0.000000e+00 7.071086e-01 7.071049e-01
      outer loop
         vertex 1.580120e+01 -3.980550e+01 -2.060000e+02
         vertex 1.298012e+02 -3.980550e+01 -2.060000e+02
         vertex 1.298012e+02 -3.907344e+01 -2.067321e+02
      endloop
   endfacet
   facet normal 0.000000e+00 7.071086e-01 7.071049e-01
      outer loop
         vertex 1.580120e+01 -3.907344e+01 -2.067321e+02
         vertex 1.580120e+01 -3.980550e+01 -2.060000e+02
         vertex 1.298012e+02 -3.907344e+01 -2.067321e+02
      endloop
   endfacet
   facet normal 0.000000e+00 9.659261e-01 2.588181e-01
      outer loop
         vertex 1.580120e+01 -4.007344e+01 -2.050000e+02
         vertex 1.298012e+02 -4.007344e+01 -2.050000e+02
         vertex 1.298012e+02 -3.980550e+01 -2.060000e+02
      endloop
   endfacet
   facet normal 0.000000e+00 9.659261e-01 2.588181e-01
      outer loop
         vertex 1.580120e+01 -3.980550e+01 -2.060000e+02
         vertex 1.580120e+01 -4.007344e+01 -2.050000e+02
         vertex 1.298012e+02 -3.980550e+01 -2.060000e+02
      endloop
   endfacet
   facet normal 0.000000e+00 1.000000e+00 0.000000e+00
      outer loop
         vertex 1.580120e+01 -4.007344e+01 -1.940000e+02
         vertex 1.298012e+02 -4.007344e+01 -1.940000e+02
         vertex 1.298012e+02 -4.007344e+01 -2.050000e+02
      endloop
   endfacet
   facet normal 0.000000e+00 1.000000e+00 0.000000e+00
      outer loop
         vertex 1.580120e+01 -4.007344e+01 -1.940000e+02
         vertex 1.298012e+02 -4.007344e+01 -2.050000e+02
         vertex 1.580120e+01 -4.007344e+01 -2.050000e+02
      endloop
   endfacet
   facet normal 0.000000e+00 -0.000000e+00 1.000000e+00
      outer loop
         vertex 1.580120e+01 -4.207344e+01 -1.940000e+02
         vertex 1.298012e+02 -4.207344e+01 -1.940000e+02
         vertex 1.298012e+02 -4.007344e+01 -1.940000e+02
      endloop
   endfacet
   facet normal 0.000000e+00 0.000000e+00 1.000000e+00
      outer loop
         vertex 1.580120e+01 -4.207344e+01 -1.940000e+02
         vertex 1.298012e+02 -4.007344e+01 -1.940000e+02
         vertex 1.580120e+01 -4.007344e+01 -1.940000e+02
      endloop
   endfacet
   facet normal 0.000000e+00 -1.000000e+00 0.000000e+00
      outer loop
         vertex 1.580120e+01 -4.207344e+01 -2.050000e+02
         vertex 1.298012e+02 -4.207344e+01 -2.050000e+02
         vertex 1.298012e+02 -4.207344e+01 -1.940000e+02
      endloop
   endfacet
   facet normal -0.000000e+00 -1.000000e+00 0.000000e+00
      outer loop
         vertex 1.580120e+01 -4.207344e+01 -2.050000e+02
         vertex 1.298012e+02 -4.207344e+01 -1.940000e+02
         vertex 1.580120e+01 -4.207344e+01 -1.940000e+02
      endloop
   endfacet
   facet normal 0.000000e+00 -7.071049e-01 -7.071086e-01
      outer loop
         vertex 1.580120e+01 -4.153755e+01 -2.070000e+02
         vertex 1.580120e+01 -4.007344e+01 -2.084641e+02
         vertex 1.298012e+02 -4.007344e+01 -2.084641e+02
      endloop
   endfacet
   facet normal 0.000000e+00 -4.746689e-01 -8.801645e-01
      outer loop
         vertex 1.580120e+01 -4.007344e+01 -2.084641e+02
         vertex 8.011970e-01 -4.007344e+01 -2.084641e+02
         vertex 1.450056e+02 -3.986905e+01 -2.085743e+02
      endloop
   endfacet
   facet normal -1.644608e-04 -3.822999e-01 -9.240383e-01
      outer loop
         vertex 8.011970e-01 -4.007344e+01 -2.084641e+02
         vertex -1.679807e-01 -3.910427e+01 -2.088649e+02
         vertex 1.450056e+02 -3.986905e+01 -2.085743e+02
      endloop
   endfacet
   facet normal -4.294198e-05 -1.533476e-01 -9.881723e-01
      outer loop
         vertex -1.679807e-01 -3.910427e+01 -2.088649e+02
         vertex -1.010097e+00 -3.826215e+01 -2.089955e+02
         vertex 1.458319e+02 -3.904269e+01 -2.088808e+02
      endloop
   endfacet
   facet normal 0.000000e+00 -2.360464e-02 -9.997214e-01
      outer loop
         vertex -1.010097e+00 -3.826215e+01 -2.089955e+02
         vertex -1.198803e+00 -3.807344e+01 -2.090000e+02
         vertex 1.468012e+02 -3.807344e+01 -2.090000e+02
      endloop
   endfacet
   facet normal 1.260753e-04 -1.221880e-01 -9.925070e-01
      outer loop
         vertex 1.468012e+02 -3.807344e+01 -2.090000e+02
         vertex 1.458319e+02 -3.904269e+01 -2.088808e+02
         vertex -1.010097e+00 -3.826215e+01 -2.089955e+02
      endloop
   endfacet
   facet normal 4.456108e-05 -3.477679e-01 -9.375806e-01
      outer loop
         vertex 1.458319e+02 -3.904269e+01 -2.088808e+02
         vertex 1.450056e+02 -3.986905e+01 -2.085743e+02
         vertex -1.679807e-01 -3.910427e+01 -2.088649e+02
      endloop
   endfacet
   facet normal -0.000000e+00 -4.746689e-01 -8.801645e-01
      outer loop
         vertex 1.450056e+02 -3.986905e+01 -2.085743e+02
         vertex 1.448012e+02 -4.007344e+01 -2.084641e+02
         vertex 1.298012e+02 -4.007344e+01 -2.084641e+02
      endloop
   endfacet
   facet normal -0.000000e+00 -7.071049e-01 -7.071086e-01
      outer loop
         vertex 1.298012e+02 -4.007344e+01 -2.084641e+02
         vertex 1.298012e+02 -4.153755e+01 -2.070000e+02
         vertex 1.580120e+01 -4.153755e+01 -2.070000e+02
      endloop
   endfacet
   facet normal -0.000000e+00 -9.659261e-01 -2.588181e-01
      outer loop
         vertex 1.298012e+02 -4.153755e+01 -2.070000e+02
         vertex 1.298012e+02 -4.207344e+01 -2.050000e+02
         vertex 1.580120e+01 -4.207344e+01 -2.050000e+02
      endloop
   endfacet
   facet normal 0.000000e+00 -9.659261e-01 -2.588181e-01
      outer loop
         vertex 1.580120e+01 -4.207344e+01 -2.050000e+02
         vertex 1.580120e+01 -4.153755e+01 -2.070000e+02
         vertex 1.298012e+02 -4.153755e+01 -2.070000e+02
      endloop
   endfacet
   facet normal 0.000000e+00 -4.746689e-01 -8.801645e-01
      outer loop
         vertex 1.298012e+02 -4.007344e+01 -2.084641e+02
         vertex 1.580120e+01 -4.007344e+01 -2.084641e+02
         vertex 1.450056e+02 -3.986905e+01 -2.085743e+02
      endloop
   endfacet
   facet normal 0.000000e+00 0.000000e+00 -1.000000e+00
      outer loop
         vertex 1.478012e+02 -3.707344e+01 -2.090000e+02
         vertex 1.468012e+02 -3.807344e+01 -2.090000e+02
         vertex 1.478012e+02 -2.607344e+01 -2.090000e+02
      endloop
   endfacet
   facet normal 0.000000e+00 0.000000e+00 -1.000000e+00
      outer loop
         vertex 1.468012e+02 -3.807344e+01 -2.090000e+02
         vertex -1.198803e+00 -3.807344e+01 -2.090000e+02
         vertex 1.478012e+02 -2.607344e+01 -2.090000e+02
      endloop
   endfacet
   facet normal 0.000000e+00 0.000000e+00 -1.000000e+00
      outer loop
         vertex 1.478012e+02 -2.607344e+01 -2.090000e+02
         vertex -1.198803e+00 -3.807344e+01 -2.090000e+02
         vertex -2.198803e+00 -2.607344e+01 -2.090000e+02
      endloop
   endfacet
   facet normal 0.000000e+00 0.000000e+00 -1.000000e+00
      outer loop
         vertex -1.198803e+00 -3.807344e+01 -2.090000e+02
         vertex -2.198803e+00 -3.707344e+01 -2.090000e+02
         vertex -2.198803e+00 -2.607344e+01 -2.090000e+02
      endloop
   endfacet
   facet normal 1.000000e+00 0.000000e+00 0.000000e+00
      outer loop
         vertex 1.478012e+02 -2.607344e+01 -2.090000e+02
         vertex 1.478012e+02 -2.607344e+01 -2.070000e+02
         vertex 1.478012e+02 -3.707344e+01 -2.070000e+02
      endloop
   endfacet
   facet normal 1.000000e+00 0.000000e+00 0.000000e+00
      outer loop
         vertex 1.478012e+02 -3.707344e+01 -2.090000e+02
         vertex 1.478012e+02 -2.607344e+01 -2.090000e+02
         vertex 1.478012e+02 -3.707344e+01 -2.070000e+02
      endloop
   endfacet
   facet normal -1.000000e+00 0.000000e+00 0.000000e+00
      outer loop
         vertex -2.198803e+00 -2.607344e+01 -2.070000e+02
         vertex -2.198803e+00 -2.607344e+01 -2.090000e+02
         vertex -2.198803e+00 -3.707344e+01 -2.090000e+02
      endloop
   endfacet
   facet normal -1.000000e+00 0.000000e+00 0.000000e+00
      outer loop
         vertex -2.198803e+00 -2.607344e+01 -2.070000e+02
         vertex -2.198803e+00 -3.707344e+01 -2.090000e+02
         vertex -2.198803e+00 -3.707344e+01 -2.070000e+02
      endloop
   endfacet
   facet normal 0.000000e+00 -1.000000e+00 0.000000e+00
      outer loop
         vertex 8.011970e-01 -4.007344e+01 -2.084641e+02
         vertex 1.580120e+01 -4.007344e+01 -2.084641e+02
         vertex 1.580120e+01 -4.007344e+01 -2.070000e+02
      endloop
   endfacet
   facet normal 0.000000e+00 -1.000000e+00 0.000000e+00
      outer loop
         vertex 8.011970e-01 -4.007344e+01 -2.070000e+02
         vertex 8.011970e-01 -4.007344e+01 -2.084641e+02
         vertex 1.580120e+01 -4.007344e+01 -2.070000e+02
      endloop
   endfacet
   facet normal -1.000000e+00 0.000000e+00 0.000000e+00
      outer loop
         vertex 1.580120e+01 -4.007344e+01 -2.084641e+02
         vertex 1.580120e+01 -4.153755e+01 -2.070000e+02
         vertex 1.580120e+01 -4.007344e+01 -2.070000e+02
      endloop
   endfacet
   facet normal -1.000000e+00 0.000000e+00 0.000000e+00
      outer loop
         vertex 1.580120e+01 -4.153755e+01 -2.070000e+02
         vertex 1.580120e+01 -4.207344e+01 -2.050000e+02
         vertex 1.580120e+01 -4.007344e+01 -2.070000e+02
      endloop
   endfacet
   facet normal -1.000000e+00 0.000000e+00 -0.000000e+00
      outer loop
         vertex 1.580120e+01 -4.007344e+01 -2.070000e+02
         vertex 1.580120e+01 -3.907344e+01 -2.067321e+02
         vertex 1.580120e+01 -3.807344e+01 -2.070000e+02
      endloop
   endfacet
   facet normal -1.000000e+00 0.000000e+00 0.000000e+00
      outer loop
         vertex 1.580120e+01 -3.907344e+01 -2.067321e+02
         vertex 1.580120e+01 -4.007344e+01 -2.070000e+02
         vertex 1.580120e+01 -3.980550e+01 -2.060000e+02
      endloop
   endfacet
   facet normal -1.000000e+00 0.000000e+00 0.000000e+00
      outer loop
         vertex 1.580120e+01 -4.007344e+01 -2.070000e+02
         vertex 1.580120e+01 -4.207344e+01 -2.050000e+02
         vertex 1.580120e+01 -3.980550e+01 -2.060000e+02
      endloop
   endfacet
   facet normal -1.000000e+00 0.000000e+00 0.000000e+00
      outer loop
         vertex 1.580120e+01 -3.980550e+01 -2.060000e+02
         vertex 1.580120e+01 -4.207344e+01 -2.050000e+02
         vertex 1.580120e+01 -4.007344e+01 -2.050000e+02
      endloop
   endfacet
   facet normal -1.000000e+00 0.000000e+00 0.000000e+00
      outer loop
         vertex 1.580120e+01 -4.207344e+01 -2.050000e+02
         vertex 1.580120e+01 -4.207344e+01 -1.940000e+02
         vertex 1.580120e+01 -4.007344e+01 -2.050000e+02
      endloop
   endfacet
   facet normal -1.000000e+00 0.000000e+00 0.000000e+00
      outer loop
         vertex 1.580120e+01 -4.007344e+01 -2.050000e+02
         vertex 1.580120e+01 -4.207344e+01 -1.940000e+02
         vertex 1.580120e+01 -4.007344e+01 -1.940000e+02
      endloop
   endfacet
   facet normal 1.000000e+00 0.000000e+00 0.000000e+00
      outer loop
         vertex 1.298012e+02 -4.153755e+01 -2.070000e+02
         vertex 1.298012e+02 -4.007344e+01 -2.084641e+02
         vertex 1.298012e+02 -4.207344e+01 -2.050000e+02
      endloop
   endfacet
   facet normal 1.000000e+00 0.000000e+00 0.000000e+00
      outer loop
         vertex 1.298012e+02 -4.007344e+01 -2.084641e+02
         vertex 1.298012e+02 -4.007344e+01 -2.070000e+02
         vertex 1.298012e+02 -4.207344e+01 -2.050000e+02
      endloop
   endfacet
   facet normal 1.000000e+00 0.000000e+00 0.000000e+00
      outer loop
         vertex 1.298012e+02 -4.207344e+01 -2.050000e+02
         vertex 1.298012e+02 -4.007344e+01 -2.070000e+02
         vertex 1.298012e+02 -4.207344e+01 -1.940000e+02
      endloop
   endfacet
   facet normal 1.000000e+00 0.000000e+00 0.000000e+00
      outer loop
         vertex 1.298012e+02 -4.007344e+01 -2.070000e+02
         vertex 1.298012e+02 -4.007344e+01 -2.050000e+02
         vertex 1.298012e+02 -4.207344e+01 -1.940000e+02
      endloop
   endfacet
   facet normal 1.000000e+00 0.000000e+00 -0.000000e+00
      outer loop
         vertex 1.298012e+02 -4.207344e+01 -1.940000e+02
         vertex 1.298012e+02 -4.007344e+01 -2.050000e+02
         vertex 1.298012e+02 -4.007344e+01 -1.940000e+02
      endloop
   endfacet
   facet normal 1.000000e+00 0.000000e+00 0.000000e+00
      outer loop
         vertex 1.298012e+02 -4.007344e+01 -2.050000e+02
         vertex 1.298012e+02 -4.007344e+01 -2.070000e+02
         vertex 1.298012e+02 -3.980550e+01 -2.060000e+02
      endloop
   endfacet
   facet normal 1.000000e+00 0.000000e+00 0.000000e+00
      outer loop
         vertex 1.298012e+02 -3.980550e+01 -2.060000e+02
         vertex 1.298012e+02 -4.007344e+01 -2.070000e+02
         vertex 1.298012e+02 -3.907344e+01 -2.067321e+02
      endloop
   endfacet
   facet normal 1.000000e+00 0.000000e+00 0.000000e+00
      outer loop
         vertex 1.298012e+02 -4.007344e+01 -2.070000e+02
         vertex 1.298012e+02 -3.807344e+01 -2.070000e+02
         vertex 1.298012e+02 -3.907344e+01 -2.067321e+02
      endloop
   endfacet
   facet normal 0.000000e+00 -1.000000e+00 0.000000e+00
      outer loop
         vertex 1.298012e+02 -4.007344e+01 -2.084641e+02
         vertex 1.448012e+02 -4.007344e+01 -2.084641e+02
         vertex 1.448012e+02 -4.007344e+01 -2.070000e+02
      endloop
   endfacet
   facet normal 0.000000e+00 -1.000000e+00 0.000000e+00
      outer loop
         vertex 1.298012e+02 -4.007344e+01 -2.070000e+02
         vertex 1.298012e+02 -4.007344e+01 -2.084641e+02
         vertex 1.448012e+02 -4.007344e+01 -2.070000e+02
      endloop
   endfacet
   facet normal -7.071077e-01 -7.071059e-01 5.116712e-06
      outer loop
         vertex -1.679807e-01 -3.910427e+01 -2.088649e+02
         vertex 8.011970e-01 -4.007344e+01 -2.084641e+02
         vertex -1.010097e+00 -3.826215e+01 -2.089955e+02
      endloop
   endfacet
   facet normal -7.071069e-01 -7.071067e-01 -0.000000e+00
      outer loop
         vertex 8.011970e-01 -4.007344e+01 -2.084641e+02
         vertex 8.011970e-01 -4.007344e+01 -2.070000e+02
         vertex -1.010097e+00 -3.826215e+01 -2.089955e+02
      endloop
   endfacet
   facet normal -7.071054e-01 -7.071082e-01 -2.723391e-06
      outer loop
         vertex -1.010097e+00 -3.826215e+01 -2.089955e+02
         vertex 8.011970e-01 -4.007344e+01 -2.070000e+02
         vertex -1.198803e+00 -3.807344e+01 -2.090000e+02
      endloop
   endfacet
   facet normal -7.071068e-01 -7.071068e-01 3.512237e-08
      outer loop
         vertex 8.011970e-01 -4.007344e+01 -2.070000e+02
         vertex -2.198803e+00 -3.707344e+01 -2.070000e+02
         vertex -1.198803e+00 -3.807344e+01 -2.090000e+02
      endloop
   endfacet
   facet normal -7.071068e-01 -7.071067e-01 -0.000000e+00
      outer loop
         vertex -1.198803e+00 -3.807344e+01 -2.090000e+02
         vertex -2.198803e+00 -3.707344e+01 -2.070000e+02
         vertex -2.198803e+00 -3.707344e+01 -2.090000e+02
      endloop
   endfacet
   facet normal 7.071068e-01 -7.071068e-01 0.000000e+00
      outer loop
         vertex 1.478012e+02 -3.707344e+01 -2.090000e+02
         vertex 1.478012e+02 -3.707344e+01 -2.070000e+02
         vertex 1.468012e+02 -3.807344e+01 -2.090000e+02
      endloop
   endfacet
   facet normal 7.071068e-01 -7.071068e-01 0.000000e+00
      outer loop
         vertex 1.478012e+02 -3.707344e+01 -2.070000e+02
         vertex 1.448012e+02 -4.007344e+01 -2.070000e+02
         vertex 1.468012e+02 -3.807344e+01 -2.090000e+02
      endloop
   endfacet
   facet normal 7.071052e-01 -7.071084e-01 -3.173223e-06
      outer loop
         vertex 1.468012e+02 -3.807344e+01 -2.090000e+02
         vertex 1.448012e+02 -4.007344e+01 -2.070000e+02
         vertex 1.458319e+02 -3.904269e+01 -2.088808e+02
      endloop
   endfacet
   facet normal 7.071081e-01 -7.071055e-01 0.000000e+00
      outer loop
         vertex 1.448012e+02 -4.007344e+01 -2.070000e+02
         vertex 1.448012e+02 -4.007344e+01 -2.084641e+02
         vertex 1.458319e+02 -3.904269e+01 -2.088808e+02
      endloop
   endfacet
   facet normal 7.070922e-01 -7.071213e-01 -7.835467e-05
      outer loop
         vertex 1.458319e+02 -3.904269e+01 -2.088808e+02
         vertex 1.448012e+02 -4.007344e+01 -2.084641e+02
         vertex 1.450056e+02 -3.986905e+01 -2.085743e+02
      endloop
   endfacet
   facet normal -0.000000e+00 0.000000e+00 -1.000000e+00
      outer loop
         vertex -2.198803e+00 3.542656e+01 7.200000e+01
         vertex 1.478012e+02 3.542656e+01 7.200000e+01
         vertex -2.198803e+00 -3.707344e+01 7.200000e+01
      endloop
   endfacet
   facet normal 0.000000e+00 0.000000e+00 -1.000000e+00
      outer loop
         vertex 1.478012e+02 3.542656e+01 7.200000e+01
         vertex 1.478012e+02 -3.707344e+01 7.200000e+01
         vertex -2.198803e+00 -3.707344e+01 7.200000e+01
      endloop
   endfacet
   facet normal -0.000000e+00 0.000000e+00 -1.000000e+00
      outer loop
         vertex -2.198803e+00 -3.707344e+01 7.200000e+01
         vertex 1.478012e+02 -3.707344e+01 7.200000e+01
         vertex 8.011970e-01 -4.007344e+01 7.200000e+01
      endloop
   endfacet
   facet normal 0.000000e+00 0.000000e+00 -1.000000e+00
      outer loop
         vertex 1.478012e+02 -3.707344e+01 7.200000e+01
         vertex 1.580120e+01 -4.007344e+01 7.200000e+01
         vertex 8.011970e-01 -4.007344e+01 7.200000e+01
      endloop
   endfacet
   facet normal 0.000000e+00 0.000000e+00 -1.000000e+00
      outer loop
         vertex 1.580120e+01 -4.007344e+01 7.200000e+01
         vertex 1.478012e+02 -3.707344e+01 7.200000e+01
         vertex 1.580120e+01 -4.207344e+01 7.200000e+01
      endloop
   endfacet
   facet normal -0.000000e+00 0.000000e+00 -1.000000e+00
      outer loop
         vertex 1.478012e+02 -3.707344e+01 7.200000e+01
         vertex 1.298012e+02 -4.007344e+01 7.200000e+01
         vertex 1.580120e+01 -4.207344e+01 7.200000e+01
      endloop
   endfacet
   facet normal 0.000000e+00 -0.000000e+00 -1.000000e+00
      outer loop
         vertex 1.580120e+01 -4.207344e+01 7.200000e+01
         vertex 1.298012e+02 -4.007344e+01 7.200000e+01
         vertex 1.298012e+02 -4.207344e+01 7.200000e+01
      endloop
   endfacet
   facet normal 0.000000e+00 0.000000e+00 -1.000000e+00
      outer loop
         vertex 1.298012e+02 -4.007344e+01 7.200000e+01
         vertex 1.478012e+02 -3.707344e+01 7.200000e+01
         vertex 1.448012e+02 -4.007344e+01 7.200000e+01
      endloop
   endfacet
   facet normal 0.000000e+00 -1.000000e+00 0.000000e+00
      outer loop
         vertex 1.580120e+01 -4.207344e+01 7.200000e+01
         vertex 1.298012e+02 -4.207344e+01 7.200000e+01
         vertex 1.298012e+02 -4.207344e+01 7.400000e+01
      endloop
   endfacet
   facet normal -0.000000e+00 -1.000000e+00 0.000000e+00
      outer loop
         vertex 1.580120e+01 -4.207344e+01 7.200000e+01
         vertex 1.298012e+02 -4.207344e+01 7.400000e+01
         vertex 1.580120e+01 -4.207344e+01 7.400000e+01
      endloop
   endfacet
   facet normal 0.000000e+00 0.000000e+00 1.000000e+00
      outer loop
         vertex 1.298012e+02 -4.207344e+01 7.400000e+01
         vertex 1.298012e+02 -4.007344e+01 7.400000e+01
         vertex 1.580120e+01 -4.207344e+01 7.400000e+01
      endloop
   endfacet
   facet normal 0.000000e+00 0.000000e+00 1.000000e+00
      outer loop
         vertex 1.448012e+02 -4.007344e+01 7.400000e+01
         vertex 1.478012e+02 -3.707344e+01 7.400000e+01
         vertex 1.298012e+02 -4.007344e+01 7.400000e+01
      endloop
   endfacet
   facet normal 0.000000e+00 0.000000e+00 1.000000e+00
      outer loop
         vertex 1.298012e+02 -4.007344e+01 7.400000e+01
         vertex 1.478012e+02 -3.707344e+01 7.400000e+01
         vertex 1.580120e+01 -4.207344e+01 7.400000e+01
      endloop
   endfacet
   facet normal 0.000000e+00 0.000000e+00 1.000000e+00
      outer loop
         vertex 1.478012e+02 -3.707344e+01 7.400000e+01
         vertex 1.478012e+02 3.542656e+01 7.400000e+01
         vertex 1.580120e+01 -4.207344e+01 7.400000e+01
      endloop
   endfacet
   facet normal 0.000000e+00 0.000000e+00 1.000000e+00
      outer loop
         vertex 1.580120e+01 -4.207344e+01 7.400000e+01
         vertex 1.478012e+02 3.542656e+01 7.400000e+01
         vertex 1.580120e+01 -4.007344e+01 7.400000e+01
      endloop
   endfacet
   facet normal -0.000000e+00 0.000000e+00 1.000000e+00
      outer loop
         vertex 1.478012e+02 3.542656e+01 7.400000e+01
         vertex -2.198803e+00 3.542656e+01 7.400000e+01
         vertex 1.580120e+01 -4.007344e+01 7.400000e+01
      endloop
   endfacet
   facet normal 0.000000e+00 0.000000e+00 1.000000e+00
      outer loop
         vertex 1.580120e+01 -4.007344e+01 7.400000e+01
         vertex -2.198803e+00 3.542656e+01 7.400000e+01
         vertex 8.011970e-01 -4.007344e+01 7.400000e+01
      endloop
   endfacet
   facet normal -0.000000e+00 0.000000e+00 1.000000e+00
      outer loop
         vertex -2.198803e+00 3.542656e+01 7.400000e+01
         vertex -2.198803e+00 -3.707344e+01 7.400000e+01
         vertex 8.011970e-01 -4.007344e+01 7.400000e+01
      endloop
   endfacet
   facet normal 0.000000e+00 1.000000e+00 0.000000e+00
      outer loop
         vertex -2.198803e+00 3.542656e+01 7.400000e+01
         vertex 1.478012e+02 3.542656e+01 7.400000e+01
         vertex 1.478012e+02 3.542656e+01 7.200000e+01
      endloop
   endfacet
   facet normal 0.000000e+00 1.000000e+00 0.000000e+00
      outer loop
         vertex -2.198803e+00 3.542656e+01 7.400000e+01
         vertex 1.478012e+02 3.542656e+01 7.200000e+01
         vertex -2.198803e+00 3.542656e+01 7.200000e+01
      endloop
   endfacet
   facet normal -1.000000e+00 0.000000e+00 0.000000e+00
      outer loop
         vertex -2.198803e+00 3.542656e+01 7.400000e+01
         vertex -2.198803e+00 3.542656e+01 7.200000e+01
         vertex -2.198803e+00 -3.707344e+01 7.200000e+01
      endloop
   endfacet
   facet normal -1.000000e+00 0.000000e+00 0.000000e+00
      outer loop
         vertex -2.198803e+00 3.542656e+01 7.400000e+01
         vertex -2.198803e+00 -3.707344e+01 7.200000e+01
         vertex -2.198803e+00 -3.707344e+01 7.400000e+01
      endloop
   endfacet
   facet normal 1.000000e+00 0.000000e+00 -0.000000e+00
      outer loop
         vertex 1.478012e+02 -3.707344e+01 7.200000e+01
         vertex 1.478012e+02 3.542656e+01 7.200000e+01
         vertex 1.478012e+02 3.542656e+01 7.400000e+01
      endloop
   endfacet
   facet normal 1.000000e+00 0.000000e+00 0.000000e+00
      outer loop
         vertex 1.478012e+02 -3.707344e+01 7.400000e+01
         vertex 1.478012e+02 -3.707344e+01 7.200000e+01
         vertex 1.478012e+02 3.542656e+01 7.400000e+01
      endloop
   endfacet
   facet normal 0.000000e+00 -1.000000e+00 0.000000e+00
      outer loop
         vertex 8.011970e-01 -4.007344e+01 7.200000e+01
         vertex 1.580120e+01 -4.007344e+01 7.200000e+01
         vertex 1.580120e+01 -4.007344e+01 7.400000e+01
      endloop
   endfacet
   facet normal 0.000000e+00 -1.000000e+00 0.000000e+00
      outer loop
         vertex 8.011970e-01 -4.007344e+01 7.400000e+01
         vertex 8.011970e-01 -4.007344e+01 7.200000e+01
         vertex 1.580120e+01 -4.007344e+01 7.400000e+01
      endloop
   endfacet
   facet normal -1.000000e+00 0.000000e+00 0.000000e+00
      outer loop
         vertex 1.580120e+01 -4.207344e+01 7.200000e+01
         vertex 1.580120e+01 -4.207344e+01 7.400000e+01
         vertex 1.580120e+01 -4.007344e+01 7.400000e+01
      endloop
   endfacet
   facet normal -1.000000e+00 0.000000e+00 0.000000e+00
      outer loop
         vertex 1.580120e+01 -4.007344e+01 7.200000e+01
         vertex 1.580120e+01 -4.207344e+01 7.200000e+01
         vertex 1.580120e+01 -4.007344e+01 7.400000e+01
      endloop
   endfacet
   facet normal 1.000000e+00 0.000000e+00 0.000000e+00
      outer loop
         vertex 1.298012e+02 -4.007344e+01 7.200000e+01
         vertex 1.298012e+02 -4.007344e+01 7.400000e+01
         vertex 1.298012e+02 -4.207344e+01 7.400000e+01
      endloop
   endfacet
   facet normal 1.000000e+00 0.000000e+00 0.000000e+00
      outer loop
         vertex 1.298012e+02 -4.207344e+01 7.200000e+01
         vertex 1.298012e+02 -4.007344e+01 7.200000e+01
         vertex 1.298012e+02 -4.207344e+01 7.400000e+01
      endloop
   endfacet
   facet normal 0.000000e+00 -1.000000e+00 0.000000e+00
      outer loop
         vertex 1.298012e+02 -4.007344e+01 7.400000e+01
         vertex 1.298012e+02 -4.007344e+01 7.200000e+01
         vertex 1.448012e+02 -4.007344e+01 7.200000e+01
      endloop
   endfacet
   facet normal 0.000000e+00 -1.000000e+00 0.000000e+00
      outer loop
         vertex 1.448012e+02 -4.007344e+01 7.400000e+01
         vertex 1.298012e+02 -4.007344e+01 7.400000e+01
         vertex 1.448012e+02 -4.007344e+01 7.200000e+01
      endloop
   endfacet
   facet normal 7.071068e-01 -7.071068e-01 0.000000e+00
      outer loop
         vertex 1.448012e+02 -4.007344e+01 7.400000e+01
         vertex 1.448012e+02 -4.007344e+01 7.200000e+01
         vertex 1.478012e+02 -3.707344e+01 7.200000e+01
      endloop
   endfacet
   facet normal 7.071068e-01 -7.071068e-01 0.000000e+00
      outer loop
         vertex 1.478012e+02 -3.707344e+01 7.400000e+01
         vertex 1.448012e+02 -4.007344e+01 7.400000e+01
         vertex 1.478012e+02 -3.707344e+01 7.200000e+01
      endloop
   endfacet
   facet normal -7.071068e-01 -7.071068e-01 0.000000e+00
      outer loop
         vertex -2.198803e+00 -3.707344e+01 7.200000e+01
         vertex 8.011970e-01 -4.007344e+01 7.200000e+01
         vertex 8.011970e-01 -4.007344e+01 7.400000e+01
      endloop
   endfacet
   facet normal -7.071068e-01 -7.071068e-01 0.000000e+00
      outer loop
         vertex -2.198803e+00 -3.707344e+01 7.200000e+01
         vertex 8.011970e-01 -4.007344e+01 7.400000e+01
         vertex -2.198803e+00 -3.707344e+01 7.400000e+01
      endloop
   endfacet
endsolid
