solid 
   facet normal -9.709419e-01 2.393152e-01 0.000000e+00
      outer loop
         vertex 2.409910e+01 1.063735e+02 -2.300000e+01
         vertex 2.409910e+01 1.063735e+02 -2.100000e+01
         vertex 2.450000e+01 1.080000e+02 -2.100000e+01
      endloop
   endfacet
   facet normal -9.709419e-01 2.393152e-01 0.000000e+00
      outer loop
         vertex 2.450000e+01 1.080000e+02 -2.300000e+01
         vertex 2.409910e+01 1.063735e+02 -2.300000e+01
         vertex 2.450000e+01 1.080000e+02 -2.100000e+01
      endloop
   endfacet
   facet normal -7.485089e-01 6.631248e-01 0.000000e+00
      outer loop
         vertex 2.298823e+01 1.051196e+02 -2.300000e+01
         vertex 2.298823e+01 1.051196e+02 -2.100000e+01
         vertex 2.409910e+01 1.063735e+02 -2.100000e+01
      endloop
   endfacet
   facet normal -7.485089e-01 6.631248e-01 0.000000e+00
      outer loop
         vertex 2.409910e+01 1.063735e+02 -2.300000e+01
         vertex 2.298823e+01 1.051196e+02 -2.300000e+01
         vertex 2.409910e+01 1.063735e+02 -2.100000e+01
      endloop
   endfacet
   facet normal -3.546064e-01 9.350157e-01 0.000000e+00
      outer loop
         vertex 2.142188e+01 1.045255e+02 -2.300000e+01
         vertex 2.142188e+01 1.045255e+02 -2.100000e+01
         vertex 2.298823e+01 1.051196e+02 -2.100000e+01
      endloop
   endfacet
   facet normal -3.546064e-01 9.350157e-01 0.000000e+00
      outer loop
         vertex 2.298823e+01 1.051196e+02 -2.300000e+01
         vertex 2.142188e+01 1.045255e+02 -2.300000e+01
         vertex 2.298823e+01 1.051196e+02 -2.100000e+01
      endloop
   endfacet
   facet normal 1.205339e-01 9.927092e-01 0.000000e+00
      outer loop
         vertex 1.975888e+01 1.047274e+02 -2.300000e+01
         vertex 1.975888e+01 1.047274e+02 -2.100000e+01
         vertex 2.142188e+01 1.045255e+02 -2.100000e+01
      endloop
   endfacet
   facet normal 1.205339e-01 9.927092e-01 0.000000e+00
      outer loop
         vertex 2.142188e+01 1.045255e+02 -2.300000e+01
         vertex 1.975888e+01 1.047274e+02 -2.300000e+01
         vertex 2.142188e+01 1.045255e+02 -2.100000e+01
      endloop
   endfacet
   facet normal 5.680658e-01 8.229831e-01 0.000000e+00
      outer loop
         vertex 1.838021e+01 1.056791e+02 -2.300000e+01
         vertex 1.838021e+01 1.056791e+02 -2.100000e+01
         vertex 1.975888e+01 1.047274e+02 -2.100000e+01
      endloop
   endfacet
   facet normal 5.680658e-01 8.229831e-01 0.000000e+00
      outer loop
         vertex 1.975888e+01 1.047274e+02 -2.300000e+01
         vertex 1.838021e+01 1.056791e+02 -2.300000e+01
         vertex 1.975888e+01 1.047274e+02 -2.100000e+01
      endloop
   endfacet
   facet normal 8.854556e-01 4.647239e-01 0.000000e+00
      outer loop
         vertex 1.760170e+01 1.071624e+02 -2.300000e+01
         vertex 1.760170e+01 1.071624e+02 -2.100000e+01
         vertex 1.838021e+01 1.056791e+02 -2.100000e+01
      endloop
   endfacet
   facet normal 8.854556e-01 4.647239e-01 0.000000e+00
      outer loop
         vertex 1.838021e+01 1.056791e+02 -2.300000e+01
         vertex 1.760170e+01 1.071624e+02 -2.300000e+01
         vertex 1.838021e+01 1.056791e+02 -2.100000e+01
      endloop
   endfacet
   facet normal 1.000000e+00 0.000000e+00 0.000000e+00
      outer loop
         vertex 1.760170e+01 1.088376e+02 -2.300000e+01
         vertex 1.760170e+01 1.088376e+02 -2.100000e+01
         vertex 1.760170e+01 1.071624e+02 -2.100000e+01
      endloop
   endfacet
   facet normal 1.000000e+00 0.000000e+00 0.000000e+00
      outer loop
         vertex 1.760170e+01 1.071624e+02 -2.300000e+01
         vertex 1.760170e+01 1.088376e+02 -2.300000e+01
         vertex 1.760170e+01 1.071624e+02 -2.100000e+01
      endloop
   endfacet
   facet normal 8.854556e-01 -4.647239e-01 0.000000e+00
      outer loop
         vertex 1.838021e+01 1.103209e+02 -2.300000e+01
         vertex 1.838021e+01 1.103209e+02 -2.100000e+01
         vertex 1.760170e+01 1.088376e+02 -2.100000e+01
      endloop
   endfacet
   facet normal 8.854556e-01 -4.647239e-01 0.000000e+00
      outer loop
         vertex 1.760170e+01 1.088376e+02 -2.300000e+01
         vertex 1.838021e+01 1.103209e+02 -2.300000e+01
         vertex 1.760170e+01 1.088376e+02 -2.100000e+01
      endloop
   endfacet
   facet normal 5.680658e-01 -8.229831e-01 0.000000e+00
      outer loop
         vertex 1.975888e+01 1.112726e+02 -2.300000e+01
         vertex 1.975888e+01 1.112726e+02 -2.100000e+01
         vertex 1.838021e+01 1.103209e+02 -2.100000e+01
      endloop
   endfacet
   facet normal 5.680658e-01 -8.229831e-01 0.000000e+00
      outer loop
         vertex 1.838021e+01 1.103209e+02 -2.300000e+01
         vertex 1.975888e+01 1.112726e+02 -2.300000e+01
         vertex 1.838021e+01 1.103209e+02 -2.100000e+01
      endloop
   endfacet
   facet normal 1.205339e-01 -9.927092e-01 0.000000e+00
      outer loop
         vertex 2.142188e+01 1.114745e+02 -2.300000e+01
         vertex 2.142188e+01 1.114745e+02 -2.100000e+01
         vertex 1.975888e+01 1.112726e+02 -2.100000e+01
      endloop
   endfacet
   facet normal 1.205339e-01 -9.927092e-01 0.000000e+00
      outer loop
         vertex 1.975888e+01 1.112726e+02 -2.300000e+01
         vertex 2.142188e+01 1.114745e+02 -2.300000e+01
         vertex 1.975888e+01 1.112726e+02 -2.100000e+01
      endloop
   endfacet
   facet normal -3.546064e-01 -9.350157e-01 -0.000000e+00
      outer loop
         vertex 2.298823e+01 1.108804e+02 -2.300000e+01
         vertex 2.298823e+01 1.108804e+02 -2.100000e+01
         vertex 2.142188e+01 1.114745e+02 -2.100000e+01
      endloop
   endfacet
   facet normal -3.546064e-01 -9.350157e-01 0.000000e+00
      outer loop
         vertex 2.142188e+01 1.114745e+02 -2.300000e+01
         vertex 2.298823e+01 1.108804e+02 -2.300000e+01
         vertex 2.142188e+01 1.114745e+02 -2.100000e+01
      endloop
   endfacet
   facet normal -7.485089e-01 -6.631248e-01 -0.000000e+00
      outer loop
         vertex 2.409910e+01 1.096265e+02 -2.300000e+01
         vertex 2.409910e+01 1.096265e+02 -2.100000e+01
         vertex 2.298823e+01 1.108804e+02 -2.100000e+01
      endloop
   endfacet
   facet normal -7.485089e-01 -6.631248e-01 0.000000e+00
      outer loop
         vertex 2.298823e+01 1.108804e+02 -2.300000e+01
         vertex 2.409910e+01 1.096265e+02 -2.300000e+01
         vertex 2.298823e+01 1.108804e+02 -2.100000e+01
      endloop
   endfacet
   facet normal -9.709419e-01 -2.393152e-01 -0.000000e+00
      outer loop
         vertex 2.450000e+01 1.080000e+02 -2.300000e+01
         vertex 2.450000e+01 1.080000e+02 -2.100000e+01
         vertex 2.409910e+01 1.096265e+02 -2.100000e+01
      endloop
   endfacet
   facet normal -9.709419e-01 -2.393152e-01 0.000000e+00
      outer loop
         vertex 2.409910e+01 1.096265e+02 -2.300000e+01
         vertex 2.450000e+01 1.080000e+02 -2.300000e+01
         vertex 2.409910e+01 1.096265e+02 -2.100000e+01
      endloop
   endfacet
   facet normal 0.000000e+00 1.000000e+00 -0.000000e+00
      outer loop
         vertex 4.000000e+00 2.140000e+02 -2.100000e+01
         vertex 4.000000e+00 2.140000e+02 -2.300000e+01
         vertex 3.000000e+00 2.140000e+02 -2.073205e+01
      endloop
   endfacet
   facet normal -0.000000e+00 1.000000e+00 0.000000e+00
      outer loop
         vertex 4.000000e+00 2.140000e+02 -2.300000e+01
         vertex 2.469266e+00 2.140000e+02 -2.269552e+01
         vertex 3.000000e+00 2.140000e+02 -2.073205e+01
      endloop
   endfacet
   facet normal 0.000000e+00 1.000000e+00 -0.000000e+00
      outer loop
         vertex 3.000000e+00 2.140000e+02 -2.073205e+01
         vertex 2.469266e+00 2.140000e+02 -2.269552e+01
         vertex 2.267949e+00 2.140000e+02 -2.000000e+01
      endloop
   endfacet
   facet normal -0.000000e+00 1.000000e+00 0.000000e+00
      outer loop
         vertex 2.469266e+00 2.140000e+02 -2.269552e+01
         vertex 1.171573e+00 2.140000e+02 -2.182843e+01
         vertex 2.267949e+00 2.140000e+02 -2.000000e+01
      endloop
   endfacet
   facet normal 0.000000e+00 1.000000e+00 0.000000e+00
      outer loop
         vertex 2.267949e+00 2.140000e+02 -2.000000e+01
         vertex 1.171573e+00 2.140000e+02 -2.182843e+01
         vertex 2.000000e+00 2.140000e+02 -1.900000e+01
      endloop
   endfacet
   facet normal -0.000000e+00 1.000000e+00 0.000000e+00
      outer loop
         vertex 1.171573e+00 2.140000e+02 -2.182843e+01
         vertex 3.044819e-01 2.140000e+02 -2.053073e+01
         vertex 2.000000e+00 2.140000e+02 -1.900000e+01
      endloop
   endfacet
   facet normal 0.000000e+00 1.000000e+00 -0.000000e+00
      outer loop
         vertex 2.000000e+00 2.140000e+02 -1.900000e+01
         vertex 3.044819e-01 2.140000e+02 -2.053073e+01
         vertex 0.000000e+00 2.140000e+02 -1.900000e+01
      endloop
   endfacet
   facet normal 0.000000e+00 1.000000e+00 -0.000000e+00
      outer loop
         vertex 4.000000e+01 2.140000e+02 -2.100000e+01
         vertex 4.000000e+01 2.140000e+02 -2.300000e+01
         vertex 4.000000e+00 2.140000e+02 -2.300000e+01
      endloop
   endfacet
   facet normal 0.000000e+00 1.000000e+00 0.000000e+00
      outer loop
         vertex 4.000000e+01 2.140000e+02 -2.100000e+01
         vertex 4.000000e+00 2.140000e+02 -2.300000e+01
         vertex 4.000000e+00 2.140000e+02 -2.100000e+01
      endloop
   endfacet
   facet normal 0.000000e+00 -1.000000e+00 -2.967692e-31
      outer loop
         vertex 2.000000e+00 0.000000e+00 -1.900000e+01
         vertex 0.000000e+00 0.000000e+00 -1.900000e+01
         vertex 2.267949e+00 2.967692e-31 -2.000000e+01
      endloop
   endfacet
   facet normal 9.860761e-32 -1.000000e+00 -7.313218e-32
      outer loop
         vertex 0.000000e+00 0.000000e+00 -1.900000e+01
         vertex 3.044819e-01 1.419701e-31 -2.053073e+01
         vertex 2.267949e+00 2.967692e-31 -2.000000e+01
      endloop
   endfacet
   facet normal 9.860761e-32 -1.000000e+00 -7.313221e-32
      outer loop
         vertex 2.267949e+00 2.967692e-31 -2.000000e+01
         vertex 3.044819e-01 1.419701e-31 -2.053073e+01
         vertex 3.000000e+00 4.224914e-31 -2.073205e+01
      endloop
   endfacet
   facet normal 9.860762e-32 -1.000000e+00 -7.313215e-32
      outer loop
         vertex 3.044819e-01 1.419701e-31 -2.053073e+01
         vertex 1.171573e+00 3.223750e-31 -2.182843e+01
         vertex 3.000000e+00 4.224914e-31 -2.073205e+01
      endloop
   endfacet
   facet normal -2.750945e-31 -1.000000e+00 5.500910e-31
      outer loop
         vertex 3.000000e+00 4.224914e-31 -2.073205e+01
         vertex 1.171573e+00 3.223750e-31 -2.182843e+01
         vertex 4.000000e+00 0.000000e+00 -2.100000e+01
      endloop
   endfacet
   facet normal -3.429830e-32 -1.000000e+00 -2.720395e-31
      outer loop
         vertex 1.171573e+00 3.223750e-31 -2.182843e+01
         vertex 2.469266e+00 5.137496e-31 -2.269552e+01
         vertex 4.000000e+00 0.000000e+00 -2.100000e+01
      endloop
   endfacet
   facet normal -3.356231e-31 -1.000000e+00 0.000000e+00
      outer loop
         vertex 4.000000e+00 0.000000e+00 -2.100000e+01
         vertex 2.469266e+00 5.137496e-31 -2.269552e+01
         vertex 4.000000e+00 0.000000e+00 -2.300000e+01
      endloop
   endfacet
   facet normal 1.972152e-31 -1.000000e+00 -1.462643e-31
      outer loop
         vertex 2.000000e+00 -3.173452e-30 -2.000000e+00
         vertex 0.000000e+00 -3.567883e-30 -2.000000e+00
         vertex 0.000000e+00 -1.081390e-30 -1.900000e+01
      endloop
   endfacet
   facet normal 1.972152e-31 -1.000000e+00 -1.462643e-31
      outer loop
         vertex 2.000000e+00 -3.173452e-30 -2.000000e+00
         vertex 0.000000e+00 -1.081390e-30 -1.900000e+01
         vertex 2.000000e+00 -6.869590e-31 -1.900000e+01
      endloop
   endfacet
   facet normal 0.000000e+00 1.000000e+00 0.000000e+00
      outer loop
         vertex 1.695518e+00 2.140000e+02 -4.692663e-01
         vertex 2.000000e+00 2.140000e+02 -2.000000e+00
         vertex 8.284271e-01 2.140000e+02 8.284271e-01
      endloop
   endfacet
   facet normal 0.000000e+00 1.000000e+00 0.000000e+00
      outer loop
         vertex 2.000000e+00 2.140000e+02 -2.000000e+00
         vertex 0.000000e+00 2.140000e+02 -2.000000e+00
         vertex 8.284271e-01 2.140000e+02 8.284271e-01
      endloop
   endfacet
   facet normal 0.000000e+00 1.000000e+00 -0.000000e+00
      outer loop
         vertex 8.284271e-01 2.140000e+02 8.284271e-01
         vertex 0.000000e+00 2.140000e+02 -2.000000e+00
         vertex -4.692663e-01 2.140000e+02 1.695518e+00
      endloop
   endfacet
   facet normal -0.000000e+00 1.000000e+00 0.000000e+00
      outer loop
         vertex 0.000000e+00 2.140000e+02 -2.000000e+00
         vertex -5.857865e-01 2.140000e+02 -5.857865e-01
         vertex -4.692663e-01 2.140000e+02 1.695518e+00
      endloop
   endfacet
   facet normal 0.000000e+00 1.000000e+00 -0.000000e+00
      outer loop
         vertex -4.692663e-01 2.140000e+02 1.695518e+00
         vertex -5.857865e-01 2.140000e+02 -5.857865e-01
         vertex -2.000000e+00 2.140000e+02 2.000000e+00
      endloop
   endfacet
   facet normal -0.000000e+00 1.000000e+00 0.000000e+00
      outer loop
         vertex -5.857865e-01 2.140000e+02 -5.857865e-01
         vertex -2.000000e+00 2.140000e+02 0.000000e+00
         vertex -2.000000e+00 2.140000e+02 2.000000e+00
      endloop
   endfacet
   facet normal 0.000000e+00 1.000000e+00 0.000000e+00
      outer loop
         vertex 2.000000e+00 2.140000e+02 -1.900000e+01
         vertex 0.000000e+00 2.140000e+02 -1.900000e+01
         vertex 0.000000e+00 2.140000e+02 -2.000000e+00
      endloop
   endfacet
   facet normal -0.000000e+00 1.000000e+00 0.000000e+00
      outer loop
         vertex 2.000000e+00 2.140000e+02 -1.900000e+01
         vertex 0.000000e+00 2.140000e+02 -2.000000e+00
         vertex 2.000000e+00 2.140000e+02 -2.000000e+00
      endloop
   endfacet
   facet normal -3.744658e-32 -1.000000e+00 -2.767516e-31
      outer loop
         vertex -4.692663e-01 2.694512e-32 1.695518e+00
         vertex -2.000000e+00 0.000000e+00 2.000000e+00
         vertex 8.284271e-01 2.183198e-31 8.284271e-01
      endloop
   endfacet
   facet normal 7.718770e-32 -1.000000e+00 0.000000e+00
      outer loop
         vertex -2.000000e+00 0.000000e+00 2.000000e+00
         vertex -2.000000e+00 0.000000e+00 0.000000e+00
         vertex 8.284271e-01 2.183198e-31 8.284271e-01
      endloop
   endfacet
   facet normal 9.860761e-32 -1.000000e+00 -7.313215e-32
      outer loop
         vertex 8.284271e-01 2.183198e-31 8.284271e-01
         vertex -2.000000e+00 0.000000e+00 0.000000e+00
         vertex 1.695518e+00 3.987247e-31 -4.692663e-01
      endloop
   endfacet
   facet normal 9.860761e-32 -1.000000e+00 -7.313216e-32
      outer loop
         vertex -2.000000e+00 0.000000e+00 0.000000e+00
         vertex -1.000000e+00 1.182033e-31 -2.679492e-01
         vertex 1.695518e+00 3.987247e-31 -4.692663e-01
      endloop
   endfacet
   facet normal 1.253864e-31 -1.000000e+00 2.854204e-31
      outer loop
         vertex 1.695518e+00 3.987247e-31 -4.692663e-01
         vertex -1.000000e+00 1.182033e-31 -2.679492e-01
         vertex 2.000000e+00 0.000000e+00 -2.000000e+00
      endloop
   endfacet
   facet normal -3.278249e-31 -1.000000e+00 -4.995646e-31
      outer loop
         vertex -1.000000e+00 1.182033e-31 -2.679492e-01
         vertex -2.679492e-01 2.439255e-31 -1.000000e+00
         vertex 2.000000e+00 0.000000e+00 -2.000000e+00
      endloop
   endfacet
   facet normal 0.000000e+00 -1.000000e+00 2.439255e-31
      outer loop
         vertex 2.000000e+00 0.000000e+00 -2.000000e+00
         vertex -2.679492e-01 2.439255e-31 -1.000000e+00
         vertex 0.000000e+00 0.000000e+00 -2.000000e+00
      endloop
   endfacet
   facet normal 1.972152e-31 -1.000000e+00 -1.462644e-31
      outer loop
         vertex -2.000000e+01 -4.923792e-30 2.000000e+00
         vertex -2.000000e+01 -4.631263e-30 5.423419e-30
         vertex -2.000000e+00 -1.081390e-30 9.860761e-31
      endloop
   endfacet
   facet normal 1.972152e-31 -1.000000e+00 -1.462643e-31
      outer loop
         vertex -2.000000e+01 -4.923792e-30 2.000000e+00
         vertex -2.000000e+00 -1.081390e-30 9.860761e-31
         vertex -2.000000e+00 -1.373918e-30 2.000000e+00
      endloop
   endfacet
   facet normal 0.000000e+00 -0.000000e+00 1.000000e+00
      outer loop
         vertex 4.000000e+00 2.140000e+02 -2.100000e+01
         vertex 1.760170e+01 1.088376e+02 -2.100000e+01
         vertex 4.000000e+01 2.140000e+02 -2.100000e+01
      endloop
   endfacet
   facet normal 0.000000e+00 -0.000000e+00 1.000000e+00
      outer loop
         vertex 1.760170e+01 1.088376e+02 -2.100000e+01
         vertex 1.838021e+01 1.103209e+02 -2.100000e+01
         vertex 4.000000e+01 2.140000e+02 -2.100000e+01
      endloop
   endfacet
   facet normal -0.000000e+00 0.000000e+00 1.000000e+00
      outer loop
         vertex 4.000000e+01 2.140000e+02 -2.100000e+01
         vertex 2.450000e+01 1.080000e+02 -2.100000e+01
         vertex 4.000000e+01 0.000000e+00 -2.100000e+01
      endloop
   endfacet
   facet normal -0.000000e+00 0.000000e+00 1.000000e+00
      outer loop
         vertex 2.450000e+01 1.080000e+02 -2.100000e+01
         vertex 2.409910e+01 1.063735e+02 -2.100000e+01
         vertex 4.000000e+01 0.000000e+00 -2.100000e+01
      endloop
   endfacet
   facet normal 0.000000e+00 0.000000e+00 1.000000e+00
      outer loop
         vertex 4.000000e+01 0.000000e+00 -2.100000e+01
         vertex 2.409910e+01 1.063735e+02 -2.100000e+01
         vertex 4.000000e+00 0.000000e+00 -2.100000e+01
      endloop
   endfacet
   facet normal -0.000000e+00 0.000000e+00 1.000000e+00
      outer loop
         vertex 2.409910e+01 1.063735e+02 -2.100000e+01
         vertex 2.298823e+01 1.051196e+02 -2.100000e+01
         vertex 4.000000e+00 0.000000e+00 -2.100000e+01
      endloop
   endfacet
   facet normal 0.000000e+00 0.000000e+00 1.000000e+00
      outer loop
         vertex 4.000000e+00 0.000000e+00 -2.100000e+01
         vertex 1.760170e+01 1.071624e+02 -2.100000e+01
         vertex 4.000000e+00 2.140000e+02 -2.100000e+01
      endloop
   endfacet
   facet normal 0.000000e+00 0.000000e+00 1.000000e+00
      outer loop
         vertex 1.760170e+01 1.071624e+02 -2.100000e+01
         vertex 1.760170e+01 1.088376e+02 -2.100000e+01
         vertex 4.000000e+00 2.140000e+02 -2.100000e+01
      endloop
   endfacet
   facet normal 0.000000e+00 0.000000e+00 1.000000e+00
      outer loop
         vertex 1.760170e+01 1.071624e+02 -2.100000e+01
         vertex 4.000000e+00 0.000000e+00 -2.100000e+01
         vertex 1.838021e+01 1.056791e+02 -2.100000e+01
      endloop
   endfacet
   facet normal 0.000000e+00 0.000000e+00 1.000000e+00
      outer loop
         vertex 4.000000e+00 0.000000e+00 -2.100000e+01
         vertex 1.975888e+01 1.047274e+02 -2.100000e+01
         vertex 1.838021e+01 1.056791e+02 -2.100000e+01
      endloop
   endfacet
   facet normal 0.000000e+00 0.000000e+00 1.000000e+00
      outer loop
         vertex 1.975888e+01 1.047274e+02 -2.100000e+01
         vertex 4.000000e+00 0.000000e+00 -2.100000e+01
         vertex 2.142188e+01 1.045255e+02 -2.100000e+01
      endloop
   endfacet
   facet normal 0.000000e+00 0.000000e+00 1.000000e+00
      outer loop
         vertex 2.450000e+01 1.080000e+02 -2.100000e+01
         vertex 4.000000e+01 2.140000e+02 -2.100000e+01
         vertex 2.409910e+01 1.096265e+02 -2.100000e+01
      endloop
   endfacet
   facet normal -0.000000e+00 0.000000e+00 1.000000e+00
      outer loop
         vertex 4.000000e+01 2.140000e+02 -2.100000e+01
         vertex 2.298823e+01 1.108804e+02 -2.100000e+01
         vertex 2.409910e+01 1.096265e+02 -2.100000e+01
      endloop
   endfacet
   facet normal 0.000000e+00 0.000000e+00 1.000000e+00
      outer loop
         vertex 2.142188e+01 1.114745e+02 -2.100000e+01
         vertex 4.000000e+01 2.140000e+02 -2.100000e+01
         vertex 1.975888e+01 1.112726e+02 -2.100000e+01
      endloop
   endfacet
   facet normal 0.000000e+00 0.000000e+00 1.000000e+00
      outer loop
         vertex 4.000000e+01 2.140000e+02 -2.100000e+01
         vertex 1.838021e+01 1.103209e+02 -2.100000e+01
         vertex 1.975888e+01 1.112726e+02 -2.100000e+01
      endloop
   endfacet
   facet normal 0.000000e+00 0.000000e+00 1.000000e+00
      outer loop
         vertex 2.298823e+01 1.108804e+02 -2.100000e+01
         vertex 4.000000e+01 2.140000e+02 -2.100000e+01
         vertex 2.142188e+01 1.114745e+02 -2.100000e+01
      endloop
   endfacet
   facet normal 0.000000e+00 0.000000e+00 1.000000e+00
      outer loop
         vertex 2.142188e+01 1.045255e+02 -2.100000e+01
         vertex 4.000000e+00 0.000000e+00 -2.100000e+01
         vertex 2.298823e+01 1.051196e+02 -2.100000e+01
      endloop
   endfacet
   facet normal 1.000000e+00 -0.000000e+00 0.000000e+00
      outer loop
         vertex 4.000000e+01 2.140000e+02 -2.100000e+01
         vertex 4.000000e+01 0.000000e+00 -2.100000e+01
         vertex 4.000000e+01 0.000000e+00 -2.300000e+01
      endloop
   endfacet
   facet normal 1.000000e+00 0.000000e+00 0.000000e+00
      outer loop
         vertex 4.000000e+01 2.140000e+02 -2.100000e+01
         vertex 4.000000e+01 0.000000e+00 -2.300000e+01
         vertex 4.000000e+01 2.140000e+02 -2.300000e+01
      endloop
   endfacet
   facet normal 0.000000e+00 0.000000e+00 -1.000000e+00
      outer loop
         vertex 4.000000e+01 2.140000e+02 -2.300000e+01
         vertex 2.450000e+01 1.080000e+02 -2.300000e+01
         vertex 4.000000e+00 2.140000e+02 -2.300000e+01
      endloop
   endfacet
   facet normal 0.000000e+00 0.000000e+00 -1.000000e+00
      outer loop
         vertex 2.450000e+01 1.080000e+02 -2.300000e+01
         vertex 2.409910e+01 1.096265e+02 -2.300000e+01
         vertex 4.000000e+00 2.140000e+02 -2.300000e+01
      endloop
   endfacet
   facet normal -0.000000e+00 0.000000e+00 -1.000000e+00
      outer loop
         vertex 4.000000e+00 2.140000e+02 -2.300000e+01
         vertex 1.760170e+01 1.088376e+02 -2.300000e+01
         vertex 4.000000e+00 0.000000e+00 -2.300000e+01
      endloop
   endfacet
   facet normal -0.000000e+00 0.000000e+00 -1.000000e+00
      outer loop
         vertex 1.760170e+01 1.088376e+02 -2.300000e+01
         vertex 1.760170e+01 1.071624e+02 -2.300000e+01
         vertex 4.000000e+00 0.000000e+00 -2.300000e+01
      endloop
   endfacet
   facet normal 0.000000e+00 -0.000000e+00 -1.000000e+00
      outer loop
         vertex 4.000000e+00 0.000000e+00 -2.300000e+01
         vertex 1.760170e+01 1.071624e+02 -2.300000e+01
         vertex 4.000000e+01 0.000000e+00 -2.300000e+01
      endloop
   endfacet
   facet normal -0.000000e+00 -0.000000e+00 -1.000000e+00
      outer loop
         vertex 1.760170e+01 1.071624e+02 -2.300000e+01
         vertex 1.838021e+01 1.056791e+02 -2.300000e+01
         vertex 4.000000e+01 0.000000e+00 -2.300000e+01
      endloop
   endfacet
   facet normal 0.000000e+00 0.000000e+00 -1.000000e+00
      outer loop
         vertex 4.000000e+01 0.000000e+00 -2.300000e+01
         vertex 2.450000e+01 1.080000e+02 -2.300000e+01
         vertex 4.000000e+01 2.140000e+02 -2.300000e+01
      endloop
   endfacet
   facet normal 0.000000e+00 0.000000e+00 -1.000000e+00
      outer loop
         vertex 2.450000e+01 1.080000e+02 -2.300000e+01
         vertex 4.000000e+01 0.000000e+00 -2.300000e+01
         vertex 2.409910e+01 1.063735e+02 -2.300000e+01
      endloop
   endfacet
   facet normal 0.000000e+00 0.000000e+00 -1.000000e+00
      outer loop
         vertex 4.000000e+01 0.000000e+00 -2.300000e+01
         vertex 2.298823e+01 1.051196e+02 -2.300000e+01
         vertex 2.409910e+01 1.063735e+02 -2.300000e+01
      endloop
   endfacet
   facet normal 0.000000e+00 0.000000e+00 -1.000000e+00
      outer loop
         vertex 2.298823e+01 1.051196e+02 -2.300000e+01
         vertex 4.000000e+01 0.000000e+00 -2.300000e+01
         vertex 2.142188e+01 1.045255e+02 -2.300000e+01
      endloop
   endfacet
   facet normal 0.000000e+00 0.000000e+00 -1.000000e+00
      outer loop
         vertex 1.760170e+01 1.088376e+02 -2.300000e+01
         vertex 4.000000e+00 2.140000e+02 -2.300000e+01
         vertex 1.838021e+01 1.103209e+02 -2.300000e+01
      endloop
   endfacet
   facet normal -0.000000e+00 0.000000e+00 -1.000000e+00
      outer loop
         vertex 4.000000e+00 2.140000e+02 -2.300000e+01
         vertex 1.975888e+01 1.112726e+02 -2.300000e+01
         vertex 1.838021e+01 1.103209e+02 -2.300000e+01
      endloop
   endfacet
   facet normal 0.000000e+00 0.000000e+00 -1.000000e+00
      outer loop
         vertex 2.142188e+01 1.114745e+02 -2.300000e+01
         vertex 4.000000e+00 2.140000e+02 -2.300000e+01
         vertex 2.298823e+01 1.108804e+02 -2.300000e+01
      endloop
   endfacet
   facet normal 0.000000e+00 0.000000e+00 -1.000000e+00
      outer loop
         vertex 4.000000e+00 2.140000e+02 -2.300000e+01
         vertex 2.409910e+01 1.096265e+02 -2.300000e+01
         vertex 2.298823e+01 1.108804e+02 -2.300000e+01
      endloop
   endfacet
   facet normal 0.000000e+00 0.000000e+00 -1.000000e+00
      outer loop
         vertex 1.975888e+01 1.112726e+02 -2.300000e+01
         vertex 4.000000e+00 2.140000e+02 -2.300000e+01
         vertex 2.142188e+01 1.114745e+02 -2.300000e+01
      endloop
   endfacet
   facet normal 0.000000e+00 0.000000e+00 -1.000000e+00
      outer loop
         vertex 2.142188e+01 1.045255e+02 -2.300000e+01
         vertex 4.000000e+01 0.000000e+00 -2.300000e+01
         vertex 1.975888e+01 1.047274e+02 -2.300000e+01
      endloop
   endfacet
   facet normal 0.000000e+00 0.000000e+00 -1.000000e+00
      outer loop
         vertex 4.000000e+01 0.000000e+00 -2.300000e+01
         vertex 1.838021e+01 1.056791e+02 -2.300000e+01
         vertex 1.975888e+01 1.047274e+02 -2.300000e+01
      endloop
   endfacet
   facet normal -9.807853e-01 -0.000000e+00 -1.950904e-01
      outer loop
         vertex 0.000000e+00 2.140000e+02 -1.900000e+01
         vertex 3.044819e-01 2.140000e+02 -2.053073e+01
         vertex 3.044819e-01 0.000000e+00 -2.053073e+01
      endloop
   endfacet
   facet normal -9.807853e-01 0.000000e+00 -1.950904e-01
      outer loop
         vertex 0.000000e+00 2.140000e+02 -1.900000e+01
         vertex 3.044819e-01 0.000000e+00 -2.053073e+01
         vertex 0.000000e+00 0.000000e+00 -1.900000e+01
      endloop
   endfacet
   facet normal -8.314696e-01 -0.000000e+00 -5.555703e-01
      outer loop
         vertex 3.044819e-01 2.140000e+02 -2.053073e+01
         vertex 1.171573e+00 2.140000e+02 -2.182843e+01
         vertex 1.171573e+00 0.000000e+00 -2.182843e+01
      endloop
   endfacet
   facet normal -8.314696e-01 0.000000e+00 -5.555703e-01
      outer loop
         vertex 3.044819e-01 2.140000e+02 -2.053073e+01
         vertex 1.171573e+00 0.000000e+00 -2.182843e+01
         vertex 3.044819e-01 0.000000e+00 -2.053073e+01
      endloop
   endfacet
   facet normal -5.555708e-01 -0.000000e+00 -8.314693e-01
      outer loop
         vertex 1.171573e+00 2.140000e+02 -2.182843e+01
         vertex 2.469266e+00 2.140000e+02 -2.269552e+01
         vertex 2.469266e+00 0.000000e+00 -2.269552e+01
      endloop
   endfacet
   facet normal -5.555708e-01 0.000000e+00 -8.314693e-01
      outer loop
         vertex 1.171573e+00 2.140000e+02 -2.182843e+01
         vertex 2.469266e+00 0.000000e+00 -2.269552e+01
         vertex 1.171573e+00 0.000000e+00 -2.182843e+01
      endloop
   endfacet
   facet normal -1.950901e-01 -0.000000e+00 -9.807853e-01
      outer loop
         vertex 2.469266e+00 2.140000e+02 -2.269552e+01
         vertex 4.000000e+00 2.140000e+02 -2.300000e+01
         vertex 4.000000e+00 0.000000e+00 -2.300000e+01
      endloop
   endfacet
   facet normal -1.950901e-01 0.000000e+00 -9.807853e-01
      outer loop
         vertex 2.469266e+00 2.140000e+02 -2.269552e+01
         vertex 4.000000e+00 0.000000e+00 -2.300000e+01
         vertex 2.469266e+00 0.000000e+00 -2.269552e+01
      endloop
   endfacet
   facet normal -1.000000e+00 1.972152e-31 2.465190e-31
      outer loop
         vertex -4.683862e-30 2.140000e+02 -1.900000e+01
         vertex -4.688792e-29 0.000000e+00 -1.900000e+01
         vertex -4.269710e-29 0.000000e+00 -2.000000e+00
      endloop
   endfacet
   facet normal -1.000000e+00 1.972152e-31 2.465190e-31
      outer loop
         vertex -4.683862e-30 2.140000e+02 -1.900000e+01
         vertex -4.269710e-29 0.000000e+00 -2.000000e+00
         vertex -4.930381e-31 2.140000e+02 -2.000000e+00
      endloop
   endfacet
   facet normal -9.659258e-01 -0.000000e+00 -2.588190e-01
      outer loop
         vertex -2.679492e-01 2.439255e-31 -1.000000e+00
         vertex 0.000000e+00 2.140000e+02 -2.000000e+00
         vertex 0.000000e+00 0.000000e+00 -2.000000e+00
      endloop
   endfacet
   facet normal -9.238793e-01 -6.314516e-04 -3.826834e-01
      outer loop
         vertex -2.679492e-01 2.439255e-31 -1.000000e+00
         vertex -5.857865e-01 2.140000e+02 -5.857865e-01
         vertex 0.000000e+00 2.140000e+02 -2.000000e+00
      endloop
   endfacet
   facet normal -3.826834e-01 -6.314516e-04 -9.238793e-01
      outer loop
         vertex -1.000000e+00 1.182033e-31 -2.679492e-01
         vertex -2.000000e+00 2.140000e+02 0.000000e+00
         vertex -5.857865e-01 2.140000e+02 -5.857865e-01
      endloop
   endfacet
   facet normal -2.588190e-01 0.000000e+00 -9.659258e-01
      outer loop
         vertex -1.000000e+00 1.182033e-31 -2.679492e-01
         vertex -2.000000e+00 0.000000e+00 0.000000e+00
         vertex -2.000000e+00 2.140000e+02 0.000000e+00
      endloop
   endfacet
   facet normal -7.071067e-01 3.184500e-04 -7.071067e-01
      outer loop
         vertex -5.857865e-01 2.140000e+02 -5.857865e-01
         vertex -2.679492e-01 2.439255e-31 -1.000000e+00
         vertex -1.000000e+00 1.182033e-31 -2.679492e-01
      endloop
   endfacet
   facet normal 2.465190e-31 1.462643e-31 -1.000000e+00
      outer loop
         vertex -2.000000e+00 2.140000e+02 4.437343e-30
         vertex -2.000000e+00 0.000000e+00 -2.686322e-29
         vertex -2.000000e+01 0.000000e+00 -3.130056e-29
      endloop
   endfacet
   facet normal 2.465190e-31 1.462643e-31 -1.000000e+00
      outer loop
         vertex -2.000000e+00 2.140000e+02 4.437343e-30
         vertex -2.000000e+01 0.000000e+00 -3.130056e-29
         vertex -2.000000e+01 2.140000e+02 0.000000e+00
      endloop
   endfacet
   facet normal -1.000000e+00 0.000000e+00 0.000000e+00
      outer loop
         vertex -2.000000e+01 2.140000e+02 2.220446e-16
         vertex -2.000000e+01 0.000000e+00 -3.130056e-29
         vertex -2.000000e+01 0.000000e+00 2.000000e+00
      endloop
   endfacet
   facet normal -1.000000e+00 0.000000e+00 0.000000e+00
      outer loop
         vertex -2.000000e+01 2.140000e+02 2.220446e-16
         vertex -2.000000e+01 0.000000e+00 2.000000e+00
         vertex -2.000000e+01 2.140000e+02 2.000000e+00
      endloop
   endfacet
   facet normal 0.000000e+00 0.000000e+00 1.000000e+00
      outer loop
         vertex -2.000000e+01 2.140000e+02 2.000000e+00
         vertex -2.000000e+01 0.000000e+00 2.000000e+00
         vertex -2.000000e+00 0.000000e+00 2.000000e+00
      endloop
   endfacet
   facet normal -0.000000e+00 0.000000e+00 1.000000e+00
      outer loop
         vertex -2.000000e+00 2.140000e+02 2.000000e+00
         vertex -2.000000e+01 2.140000e+02 2.000000e+00
         vertex -2.000000e+00 0.000000e+00 2.000000e+00
      endloop
   endfacet
   facet normal 9.807853e-01 0.000000e+00 1.950903e-01
      outer loop
         vertex 2.000000e+00 2.140000e+02 -2.000000e+00
         vertex 1.695518e+00 2.140000e+02 -4.692663e-01
         vertex 1.695518e+00 0.000000e+00 -4.692663e-01
      endloop
   endfacet
   facet normal 9.807853e-01 0.000000e+00 1.950903e-01
      outer loop
         vertex 2.000000e+00 2.140000e+02 -2.000000e+00
         vertex 1.695518e+00 0.000000e+00 -4.692663e-01
         vertex 2.000000e+00 0.000000e+00 -2.000000e+00
      endloop
   endfacet
   facet normal 8.314696e-01 0.000000e+00 5.555702e-01
      outer loop
         vertex 1.695518e+00 2.140000e+02 -4.692663e-01
         vertex 8.284271e-01 2.140000e+02 8.284271e-01
         vertex 8.284271e-01 0.000000e+00 8.284271e-01
      endloop
   endfacet
   facet normal 8.314696e-01 0.000000e+00 5.555702e-01
      outer loop
         vertex 1.695518e+00 2.140000e+02 -4.692663e-01
         vertex 8.284271e-01 0.000000e+00 8.284271e-01
         vertex 1.695518e+00 0.000000e+00 -4.692663e-01
      endloop
   endfacet
   facet normal 5.555702e-01 0.000000e+00 8.314696e-01
      outer loop
         vertex 8.284271e-01 2.140000e+02 8.284271e-01
         vertex -4.692663e-01 2.140000e+02 1.695518e+00
         vertex -4.692663e-01 0.000000e+00 1.695518e+00
      endloop
   endfacet
   facet normal 5.555702e-01 0.000000e+00 8.314696e-01
      outer loop
         vertex 8.284271e-01 2.140000e+02 8.284271e-01
         vertex -4.692663e-01 0.000000e+00 1.695518e+00
         vertex 8.284271e-01 0.000000e+00 8.284271e-01
      endloop
   endfacet
   facet normal 1.950903e-01 0.000000e+00 9.807853e-01
      outer loop
         vertex -4.692663e-01 2.140000e+02 1.695518e+00
         vertex -2.000000e+00 2.140000e+02 2.000000e+00
         vertex -2.000000e+00 0.000000e+00 2.000000e+00
      endloop
   endfacet
   facet normal 1.950903e-01 0.000000e+00 9.807853e-01
      outer loop
         vertex -4.692663e-01 2.140000e+02 1.695518e+00
         vertex -2.000000e+00 0.000000e+00 2.000000e+00
         vertex -4.692663e-01 0.000000e+00 1.695518e+00
      endloop
   endfacet
   facet normal 1.000000e+00 -0.000000e+00 0.000000e+00
      outer loop
         vertex 2.000000e+00 2.140000e+02 -2.000000e+00
         vertex 2.000000e+00 0.000000e+00 -2.000000e+00
         vertex 2.000000e+00 0.000000e+00 -1.900000e+01
      endloop
   endfacet
   facet normal 1.000000e+00 0.000000e+00 0.000000e+00
      outer loop
         vertex 2.000000e+00 2.140000e+02 -1.900000e+01
         vertex 2.000000e+00 2.140000e+02 -2.000000e+00
         vertex 2.000000e+00 0.000000e+00 -1.900000e+01
      endloop
   endfacet
   facet normal 9.659258e-01 0.000000e+00 2.588190e-01
      outer loop
         vertex 2.267949e+00 0.000000e+00 -2.000000e+01
         vertex 2.267949e+00 2.140000e+02 -2.000000e+01
         vertex 2.000000e+00 2.140000e+02 -1.900000e+01
      endloop
   endfacet
   facet normal 9.659258e-01 0.000000e+00 2.588190e-01
      outer loop
         vertex 2.000000e+00 0.000000e+00 -1.900000e+01
         vertex 2.267949e+00 0.000000e+00 -2.000000e+01
         vertex 2.000000e+00 2.140000e+02 -1.900000e+01
      endloop
   endfacet
   facet normal 7.071063e-01 0.000000e+00 7.071072e-01
      outer loop
         vertex 3.000000e+00 0.000000e+00 -2.073205e+01
         vertex 3.000000e+00 2.140000e+02 -2.073205e+01
         vertex 2.267949e+00 2.140000e+02 -2.000000e+01
      endloop
   endfacet
   facet normal 7.071063e-01 0.000000e+00 7.071072e-01
      outer loop
         vertex 2.267949e+00 0.000000e+00 -2.000000e+01
         vertex 3.000000e+00 0.000000e+00 -2.073205e+01
         vertex 2.267949e+00 2.140000e+02 -2.000000e+01
      endloop
   endfacet
   facet normal 2.588198e-01 0.000000e+00 9.659256e-01
      outer loop
         vertex 4.000000e+00 0.000000e+00 -2.100000e+01
         vertex 4.000000e+00 2.140000e+02 -2.100000e+01
         vertex 3.000000e+00 2.140000e+02 -2.073205e+01
      endloop
   endfacet
   facet normal 2.588198e-01 0.000000e+00 9.659256e-01
      outer loop
         vertex 3.000000e+00 0.000000e+00 -2.073205e+01
         vertex 4.000000e+00 0.000000e+00 -2.100000e+01
         vertex 3.000000e+00 2.140000e+02 -2.073205e+01
      endloop
   endfacet
   facet normal -0.000000e+00 1.000000e+00 0.000000e+00
      outer loop
         vertex -2.000000e+01 2.140000e+02 0.000000e+00
         vertex -2.000000e+01 2.140000e+02 2.000000e+00
         vertex -2.000000e+00 2.140000e+02 2.000000e+00
      endloop
   endfacet
   facet normal 0.000000e+00 1.000000e+00 0.000000e+00
      outer loop
         vertex -2.000000e+00 2.140000e+02 0.000000e+00
         vertex -2.000000e+01 2.140000e+02 0.000000e+00
         vertex -2.000000e+00 2.140000e+02 2.000000e+00
      endloop
   endfacet
   facet normal -1.972152e-31 -1.000000e+00 1.462642e-31
      outer loop
         vertex 4.000000e+01 -7.684805e-30 -2.300000e+01
         vertex 4.000000e+01 -7.392277e-30 -2.100000e+01
         vertex 4.000000e+00 -2.925286e-31 -2.100000e+01
      endloop
   endfacet
   facet normal -1.972152e-31 -1.000000e+00 1.462643e-31
      outer loop
         vertex 4.000000e+01 -7.684805e-30 -2.300000e+01
         vertex 4.000000e+00 -2.925286e-31 -2.100000e+01
         vertex 4.000000e+00 -5.850572e-31 -2.300000e+01
      endloop
   endfacet
endsolid
