solid 
   facet normal 0.000000e+00 0.000000e+00 -1.000000e+00
      outer loop
         vertex 1.350000e+01 1.500000e+01 -1.500000e+00
         vertex 1.500000e+00 3.000000e+00 -1.500000e+00
         vertex 1.500000e+00 2.330000e+02 -1.500000e+00
      endloop
   endfacet
   facet normal 0.000000e+00 0.000000e+00 -1.000000e+00
      outer loop
         vertex 1.350000e+01 1.500000e+01 -1.500000e+00
         vertex 1.500000e+00 2.330000e+02 -1.500000e+00
         vertex 1.350000e+01 2.450000e+02 -1.500000e+00
      endloop
   endfacet
   facet normal 0.000000e+00 0.000000e+00 1.000000e+00
      outer loop
         vertex 1.350000e+01 1.500000e+01 0.000000e+00
         vertex 1.350000e+01 2.450000e+02 0.000000e+00
         vertex 1.500000e+00 2.330000e+02 0.000000e+00
      endloop
   endfacet
   facet normal 0.000000e+00 0.000000e+00 1.000000e+00
      outer loop
         vertex 1.500000e+00 3.000000e+00 0.000000e+00
         vertex 1.350000e+01 1.500000e+01 0.000000e+00
         vertex 1.500000e+00 2.330000e+02 0.000000e+00
      endloop
   endfacet
   facet normal -2.736147e-01 -4.552810e-04 9.618393e-01
      outer loop
         vertex -8.015746e-02 2.209921e+00 -4.498819e-01
         vertex 1.500000e+00 3.000000e+00 0.000000e+00
         vertex 9.176860e-01 2.324177e+02 -5.705752e-02
      endloop
   endfacet
   facet normal -9.751712e-02 0.000000e+00 9.952338e-01
      outer loop
         vertex 1.500000e+00 3.000000e+00 0.000000e+00
         vertex 1.500000e+00 2.330000e+02 0.000000e+00
         vertex 9.176860e-01 2.324177e+02 -5.705752e-02
      endloop
   endfacet
   facet normal -3.899744e-01 1.190692e-04 9.208257e-01
      outer loop
         vertex 9.176860e-01 2.324177e+02 -5.705752e-02
         vertex -2.078740e-01 2.312921e+02 -5.335924e-01
         vertex -8.015746e-02 2.209921e+00 -4.498819e-01
      endloop
   endfacet
   facet normal -7.131650e-01 -6.032253e-05 7.009962e-01
      outer loop
         vertex -2.078740e-01 2.312921e+02 -5.335924e-01
         vertex -9.955733e-01 2.305044e+02 -1.335033e+00
         vertex -1.033449e+00 1.733275e+00 -1.393253e+00
      endloop
   endfacet
   facet normal -9.025959e-01 3.988089e-05 4.304888e-01
      outer loop
         vertex -9.955733e-01 2.305044e+02 -1.335033e+00
         vertex -1.364451e+00 2.301355e+02 -2.108416e+00
         vertex -1.033449e+00 1.733275e+00 -1.393253e+00
      endloop
   endfacet
   facet normal -9.886427e-01 1.348477e-04 1.502847e-01
      outer loop
         vertex -1.364451e+00 2.301355e+02 -2.108416e+00
         vertex -1.500000e+00 2.300000e+02 -3.000000e+00
         vertex -1.441680e+00 1.529160e+00 -2.411343e+00
      endloop
   endfacet
   facet normal -9.951281e-01 0.000000e+00 9.858992e-02
      outer loop
         vertex -1.500000e+00 2.300000e+02 -3.000000e+00
         vertex -1.500000e+00 1.500000e+00 -3.000000e+00
         vertex -1.441680e+00 1.529160e+00 -2.411343e+00
      endloop
   endfacet
   facet normal -9.281510e-01 -1.796532e-04 3.722038e-01
      outer loop
         vertex -1.441680e+00 1.529160e+00 -2.411343e+00
         vertex -1.033449e+00 1.733275e+00 -1.393253e+00
         vertex -1.364451e+00 2.301355e+02 -2.108416e+00
      endloop
   endfacet
   facet normal -7.033652e-01 -1.323870e-04 7.108287e-01
      outer loop
         vertex -1.033449e+00 1.733275e+00 -1.393253e+00
         vertex -8.015746e-02 2.209921e+00 -4.498819e-01
         vertex -2.078740e-01 2.312921e+02 -5.335924e-01
      endloop
   endfacet
   facet normal 9.847173e-01 2.848712e-19 -1.741603e-01
      outer loop
         vertex 9.099547e-02 2.301820e+02 -2.485504e+00
         vertex -5.204170e-15 1.500000e+00 -3.000000e+00
         vertex -5.270274e-15 2.300000e+02 -3.000000e+00
      endloop
   endfacet
   facet normal 9.838072e-01 1.176750e-05 -1.792298e-01
      outer loop
         vertex 9.099547e-02 2.301820e+02 -2.485504e+00
         vertex 9.636769e-02 1.596368e+00 -2.471023e+00
         vertex -5.204170e-15 1.500000e+00 -3.000000e+00
      endloop
   endfacet
   facet normal 8.191937e-01 1.723000e-04 -5.735169e-01
      outer loop
         vertex 3.619422e-01 2.307239e+02 -2.022849e+00
         vertex 5.224637e-01 2.022464e+00 -1.862273e+00
         vertex 9.636769e-02 1.596368e+00 -2.471023e+00
      endloop
   endfacet
   facet normal 3.471546e-01 3.951150e-04 -9.378078e-01
      outer loop
         vertex 8.929710e-01 2.317859e+02 -1.628316e+00
         vertex 1.500000e+00 3.000000e+00 -1.500000e+00
         vertex 5.224637e-01 2.022464e+00 -1.862273e+00
      endloop
   endfacet
   facet normal 2.068142e-01 0.000000e+00 -9.783802e-01
      outer loop
         vertex 8.929710e-01 2.317859e+02 -1.628316e+00
         vertex 1.500000e+00 2.330000e+02 -1.500000e+00
         vertex 1.500000e+00 3.000000e+00 -1.500000e+00
      endloop
   endfacet
   facet normal 5.965630e-01 -1.447808e-04 -8.025662e-01
      outer loop
         vertex 5.224637e-01 2.022464e+00 -1.862273e+00
         vertex 3.619422e-01 2.307239e+02 -2.022849e+00
         vertex 8.929710e-01 2.317859e+02 -1.628316e+00
      endloop
   endfacet
   facet normal 8.629194e-01 -1.173235e-05 -5.053415e-01
      outer loop
         vertex 9.636769e-02 1.596368e+00 -2.471023e+00
         vertex 9.099547e-02 2.301820e+02 -2.485504e+00
         vertex 3.619422e-01 2.307239e+02 -2.022849e+00
      endloop
   endfacet
   facet normal -1.000000e+00 -0.000000e+00 -0.000000e+00
      outer loop
         vertex -1.500000e+00 1.500000e+00 -3.000000e+00
         vertex -1.500000e+00 2.300000e+02 -3.000000e+00
         vertex -1.500000e+00 2.300000e+02 -1.500000e+01
      endloop
   endfacet
   facet normal -1.000000e+00 0.000000e+00 0.000000e+00
      outer loop
         vertex -1.500000e+00 1.500000e+00 -1.500000e+01
         vertex -1.500000e+00 1.500000e+00 -3.000000e+00
         vertex -1.500000e+00 2.300000e+02 -1.500000e+01
      endloop
   endfacet
   facet normal 1.000000e+00 0.000000e+00 -3.491481e-15
      outer loop
         vertex -1.047444e-14 1.500000e+00 -3.000000e+00
         vertex -5.237222e-14 1.500000e+00 -1.500000e+01
         vertex -5.237222e-14 2.300000e+02 -1.500000e+01
      endloop
   endfacet
   facet normal 1.000000e+00 0.000000e+00 -3.491481e-15
      outer loop
         vertex -1.047444e-14 1.500000e+00 -3.000000e+00
         vertex -5.237222e-14 2.300000e+02 -1.500000e+01
         vertex -1.047444e-14 2.300000e+02 -3.000000e+00
      endloop
   endfacet
   facet normal 0.000000e+00 0.000000e+00 -1.000000e+00
      outer loop
         vertex -4.973799e-14 1.500000e+00 -1.500000e+01
         vertex -1.500000e+00 1.500000e+00 -1.500000e+01
         vertex -1.500000e+00 2.300000e+02 -1.500000e+01
      endloop
   endfacet
   facet normal 0.000000e+00 0.000000e+00 -1.000000e+00
      outer loop
         vertex -4.707346e-14 2.300000e+02 -1.500000e+01
         vertex -4.973799e-14 1.500000e+00 -1.500000e+01
         vertex -1.500000e+00 2.300000e+02 -1.500000e+01
      endloop
   endfacet
   facet normal 9.886427e-01 -1.348518e-04 1.502851e-01
      outer loop
         vertex 1.636445e+01 1.786445e+01 -2.108416e+00
         vertex 1.650000e+01 1.800000e+01 -3.000000e+00
         vertex 1.644168e+01 2.464708e+02 -2.411343e+00
      endloop
   endfacet
   facet normal 9.951283e-01 0.000000e+00 9.858872e-02
      outer loop
         vertex 1.650000e+01 1.800000e+01 -3.000000e+00
         vertex 1.650000e+01 2.465000e+02 -3.000000e+00
         vertex 1.644168e+01 2.464708e+02 -2.411343e+00
      endloop
   endfacet
   facet normal 9.281508e-01 1.796496e-04 3.722042e-01
      outer loop
         vertex 1.644168e+01 2.464708e+02 -2.411343e+00
         vertex 1.603345e+01 2.462667e+02 -1.393253e+00
         vertex 1.636445e+01 1.786445e+01 -2.108416e+00
      endloop
   endfacet
   facet normal 7.033651e-01 1.323885e-04 7.108288e-01
      outer loop
         vertex 1.603345e+01 2.462667e+02 -1.393253e+00
         vertex 1.508016e+01 2.457901e+02 -4.498819e-01
         vertex 1.520787e+01 1.670787e+01 -5.335924e-01
      endloop
   endfacet
   facet normal 2.736148e-01 4.552805e-04 9.618393e-01
      outer loop
         vertex 1.508016e+01 2.457901e+02 -4.498819e-01
         vertex 1.350000e+01 2.450000e+02 0.000000e+00
         vertex 1.408231e+01 1.558231e+01 -5.705752e-02
      endloop
   endfacet
   facet normal 9.751719e-02 -1.876582e-18 9.952338e-01
      outer loop
         vertex 1.350000e+01 2.450000e+02 0.000000e+00
         vertex 1.350000e+01 1.500000e+01 -4.336809e-16
         vertex 1.408231e+01 1.558231e+01 -5.705752e-02
      endloop
   endfacet
   facet normal 3.899742e-01 -1.190685e-04 9.208258e-01
      outer loop
         vertex 1.408231e+01 1.558231e+01 -5.705752e-02
         vertex 1.520787e+01 1.670787e+01 -5.335924e-01
         vertex 1.508016e+01 2.457901e+02 -4.498819e-01
      endloop
   endfacet
   facet normal 7.131653e-01 6.032111e-05 7.009959e-01
      outer loop
         vertex 1.520787e+01 1.670787e+01 -5.335924e-01
         vertex 1.599557e+01 1.749557e+01 -1.335033e+00
         vertex 1.603345e+01 2.462667e+02 -1.393253e+00
      endloop
   endfacet
   facet normal 9.025959e-01 -3.988255e-05 4.304888e-01
      outer loop
         vertex 1.599557e+01 1.749557e+01 -1.335033e+00
         vertex 1.636445e+01 1.786445e+01 -2.108416e+00
         vertex 1.603345e+01 2.462667e+02 -1.393253e+00
      endloop
   endfacet
   facet normal -2.068142e-01 0.000000e+00 -9.783802e-01
      outer loop
         vertex 1.410703e+01 1.621406e+01 -1.628316e+00
         vertex 1.350000e+01 1.500000e+01 -1.500000e+00
         vertex 1.350000e+01 2.450000e+02 -1.500000e+00
      endloop
   endfacet
   facet normal -5.965631e-01 1.447807e-04 -8.025662e-01
      outer loop
         vertex 1.447754e+01 2.459775e+02 -1.862273e+00
         vertex 1.463806e+01 1.727612e+01 -2.022849e+00
         vertex 1.410703e+01 1.621406e+01 -1.628316e+00
      endloop
   endfacet
   facet normal -8.629196e-01 1.173300e-05 -5.053412e-01
      outer loop
         vertex 1.490363e+01 2.464036e+02 -2.471023e+00
         vertex 1.490900e+01 1.781801e+01 -2.485504e+00
         vertex 1.463806e+01 1.727612e+01 -2.022849e+00
      endloop
   endfacet
   facet normal -9.847172e-01 0.000000e+00 -1.741609e-01
      outer loop
         vertex 1.500000e+01 2.465000e+02 -3.000000e+00
         vertex 1.500000e+01 1.800000e+01 -3.000000e+00
         vertex 1.490900e+01 1.781801e+01 -2.485504e+00
      endloop
   endfacet
   facet normal -9.838072e-01 -1.176672e-05 -1.792300e-01
      outer loop
         vertex 1.490900e+01 1.781801e+01 -2.485504e+00
         vertex 1.490363e+01 2.464036e+02 -2.471023e+00
         vertex 1.500000e+01 2.465000e+02 -3.000000e+00
      endloop
   endfacet
   facet normal -8.191938e-01 -1.723000e-04 -5.735168e-01
      outer loop
         vertex 1.463806e+01 1.727612e+01 -2.022849e+00
         vertex 1.447754e+01 2.459775e+02 -1.862273e+00
         vertex 1.490363e+01 2.464036e+02 -2.471023e+00
      endloop
   endfacet
   facet normal -3.471546e-01 -3.951151e-04 -9.378078e-01
      outer loop
         vertex 1.410703e+01 1.621406e+01 -1.628316e+00
         vertex 1.350000e+01 2.450000e+02 -1.500000e+00
         vertex 1.447754e+01 2.459775e+02 -1.862273e+00
      endloop
   endfacet
   facet normal 1.000000e+00 0.000000e+00 0.000000e+00
      outer loop
         vertex 1.650000e+01 1.800000e+01 -3.000000e+00
         vertex 1.650000e+01 1.800000e+01 -1.500000e+01
         vertex 1.650000e+01 2.465000e+02 -1.500000e+01
      endloop
   endfacet
   facet normal 1.000000e+00 -0.000000e+00 0.000000e+00
      outer loop
         vertex 1.650000e+01 2.465000e+02 -3.000000e+00
         vertex 1.650000e+01 1.800000e+01 -3.000000e+00
         vertex 1.650000e+01 2.465000e+02 -1.500000e+01
      endloop
   endfacet
   facet normal -1.000000e+00 -0.000000e+00 -0.000000e+00
      outer loop
         vertex 1.500000e+01 1.800000e+01 -3.000000e+00
         vertex 1.500000e+01 2.465000e+02 -3.000000e+00
         vertex 1.500000e+01 2.465000e+02 -1.500000e+01
      endloop
   endfacet
   facet normal -1.000000e+00 0.000000e+00 0.000000e+00
      outer loop
         vertex 1.500000e+01 1.800000e+01 -3.000000e+00
         vertex 1.500000e+01 2.465000e+02 -1.500000e+01
         vertex 1.500000e+01 1.800000e+01 -1.500000e+01
      endloop
   endfacet
   facet normal 0.000000e+00 0.000000e+00 -1.000000e+00
      outer loop
         vertex 1.650000e+01 1.800000e+01 -1.500000e+01
         vertex 1.500000e+01 1.800000e+01 -1.500000e+01
         vertex 1.500000e+01 2.465000e+02 -1.500000e+01
      endloop
   endfacet
   facet normal 0.000000e+00 0.000000e+00 -1.000000e+00
      outer loop
         vertex 1.650000e+01 2.465000e+02 -1.500000e+01
         vertex 1.650000e+01 1.800000e+01 -1.500000e+01
         vertex 1.500000e+01 2.465000e+02 -1.500000e+01
      endloop
   endfacet
   facet normal 7.071068e-01 -7.071068e-01 0.000000e+00
      outer loop
         vertex 1.500000e+00 3.000000e+00 0.000000e+00
         vertex 1.500000e+00 3.000000e+00 -1.500000e+00
         vertex 1.350000e+01 1.500000e+01 -1.500000e+00
      endloop
   endfacet
   facet normal 7.071068e-01 -7.071068e-01 0.000000e+00
      outer loop
         vertex 1.350000e+01 1.500000e+01 -4.336809e-16
         vertex 1.500000e+00 3.000000e+00 0.000000e+00
         vertex 1.350000e+01 1.500000e+01 -1.500000e+00
      endloop
   endfacet
   facet normal 0.000000e+00 -1.000000e+00 0.000000e+00
      outer loop
         vertex 1.650000e+01 1.800000e+01 -3.000000e+00
         vertex 1.500000e+01 1.800000e+01 -3.000000e+00
         vertex 1.500000e+01 1.800000e+01 -1.500000e+01
      endloop
   endfacet
   facet normal 0.000000e+00 -1.000000e+00 -0.000000e+00
      outer loop
         vertex 1.650000e+01 1.800000e+01 -1.500000e+01
         vertex 1.650000e+01 1.800000e+01 -3.000000e+00
         vertex 1.500000e+01 1.800000e+01 -1.500000e+01
      endloop
   endfacet
   facet normal -0.000000e+00 -9.638708e-01 -2.663703e-01
      outer loop
         vertex 1.543933e+01 1.800000e+01 -3.000000e+00
         vertex 1.650000e+01 1.800000e+01 -3.000000e+00
         vertex 1.556465e+01 1.775286e+01 -2.105719e+00
      endloop
   endfacet
   facet normal 1.366103e-01 -9.822469e-01 -1.285641e-01
      outer loop
         vertex 1.650000e+01 1.800000e+01 -3.000000e+00
         vertex 1.636445e+01 1.786445e+01 -2.108416e+00
         vertex 1.556465e+01 1.775286e+01 -2.105719e+00
      endloop
   endfacet
   facet normal 1.267305e-01 -9.174433e-01 -3.771433e-01
      outer loop
         vertex 1.636445e+01 1.786445e+01 -2.108416e+00
         vertex 1.599557e+01 1.749557e+01 -1.335033e+00
         vertex 1.556465e+01 1.775286e+01 -2.105719e+00
      endloop
   endfacet
   facet normal 4.085979e-01 -8.188286e-01 -4.031965e-01
      outer loop
         vertex 1.599557e+01 1.749557e+01 -1.335033e+00
         vertex 1.520787e+01 1.670787e+01 -5.335924e-01
         vertex 1.498201e+01 1.697601e+01 -1.307028e+00
      endloop
   endfacet
   facet normal 6.221117e-01 -7.356057e-01 -2.680694e-01
      outer loop
         vertex 1.520787e+01 1.670787e+01 -5.335924e-01
         vertex 1.408231e+01 1.558231e+01 -5.705752e-02
         vertex 1.431684e+01 1.608912e+01 -9.035085e-01
      endloop
   endfacet
   facet normal 6.765318e-01 -6.991842e-01 -2.311843e-01
      outer loop
         vertex 1.408231e+01 1.558231e+01 -5.705752e-02
         vertex 1.350000e+01 1.500000e+01 -4.336809e-16
         vertex 1.431684e+01 1.608912e+01 -9.035085e-01
      endloop
   endfacet
   facet normal 8.000002e-01 -5.999998e-01 0.000000e+00
      outer loop
         vertex 1.350000e+01 1.500000e+01 -4.336809e-16
         vertex 1.350000e+01 1.500000e+01 -1.060671e+00
         vertex 1.431684e+01 1.608912e+01 -9.035085e-01
      endloop
   endfacet
   facet normal 8.944272e-01 -4.472136e-01 0.000000e+00
      outer loop
         vertex 1.350000e+01 1.500000e+01 -1.060671e+00
         vertex 1.350000e+01 1.500000e+01 -1.500000e+00
         vertex 1.410703e+01 1.621406e+01 -1.628316e+00
      endloop
   endfacet
   facet normal 8.944272e-01 -4.472136e-01 0.000000e+00
      outer loop
         vertex 1.410703e+01 1.621406e+01 -1.628316e+00
         vertex 1.463806e+01 1.727612e+01 -2.022849e+00
         vertex 1.350000e+01 1.500000e+01 -1.060671e+00
      endloop
   endfacet
   facet normal -5.983551e-01 -3.257907e-01 -7.320052e-01
      outer loop
         vertex 1.463806e+01 1.727612e+01 -2.022849e+00
         vertex 1.490900e+01 1.781801e+01 -2.485504e+00
         vertex 1.543933e+01 1.800000e+01 -3.000000e+00
      endloop
   endfacet
   facet normal 0.000000e+00 -9.427574e-01 -3.334795e-01
      outer loop
         vertex 1.490900e+01 1.781801e+01 -2.485504e+00
         vertex 1.500000e+01 1.800000e+01 -3.000000e+00
         vertex 1.543933e+01 1.800000e+01 -3.000000e+00
      endloop
   endfacet
   facet normal 3.895872e-01 -7.858931e-01 -4.802020e-01
      outer loop
         vertex 1.498201e+01 1.697601e+01 -1.307028e+00
         vertex 1.556465e+01 1.775286e+01 -2.105719e+00
         vertex 1.599557e+01 1.749557e+01 -1.335033e+00
      endloop
   endfacet
   facet normal 6.289039e-01 -6.592206e-01 -4.121991e-01
      outer loop
         vertex 1.431684e+01 1.608912e+01 -9.035085e-01
         vertex 1.498201e+01 1.697601e+01 -1.307028e+00
         vertex 1.520787e+01 1.670787e+01 -5.335924e-01
      endloop
   endfacet
   facet normal 3.596173e-01 -7.862769e-01 -5.024381e-01
      outer loop
         vertex 1.556465e+01 1.775286e+01 -2.105719e+00
         vertex 1.498201e+01 1.697601e+01 -1.307028e+00
         vertex 1.463806e+01 1.727612e+01 -2.022849e+00
      endloop
   endfacet
   facet normal 4.159609e-01 -8.598873e-01 -2.959230e-01
      outer loop
         vertex 1.543933e+01 1.800000e+01 -3.000000e+00
         vertex 1.556465e+01 1.775286e+01 -2.105719e+00
         vertex 1.463806e+01 1.727612e+01 -2.022849e+00
      endloop
   endfacet
   facet normal 8.000001e-01 -5.999998e-01 5.844582e-07
      outer loop
         vertex 1.431684e+01 1.608912e+01 -9.035085e-01
         vertex 1.350000e+01 1.500000e+01 -1.060671e+00
         vertex 1.498201e+01 1.697601e+01 -1.307028e+00
      endloop
   endfacet
   facet normal 6.409945e-01 -5.477767e-01 -5.376492e-01
      outer loop
         vertex 1.350000e+01 1.500000e+01 -1.060671e+00
         vertex 1.463806e+01 1.727612e+01 -2.022849e+00
         vertex 1.498201e+01 1.697601e+01 -1.307028e+00
      endloop
   endfacet
   facet normal 0.000000e+00 -1.000000e+00 0.000000e+00
      outer loop
         vertex -1.500000e+00 1.500000e+00 -3.000000e+00
         vertex -1.500000e+00 1.500000e+00 -1.500000e+01
         vertex -4.705437e-14 1.500000e+00 -1.500000e+01
      endloop
   endfacet
   facet normal 0.000000e+00 -1.000000e+00 0.000000e+00
      outer loop
         vertex -7.855833e-15 1.500000e+00 -3.000000e+00
         vertex -1.500000e+00 1.500000e+00 -3.000000e+00
         vertex -4.705437e-14 1.500000e+00 -1.500000e+01
      endloop
   endfacet
   facet normal 0.000000e+00 -9.987753e-01 4.947563e-02
      outer loop
         vertex -1.441680e+00 1.529160e+00 -2.411343e+00
         vertex -1.500000e+00 1.500000e+00 -3.000000e+00
         vertex -1.060671e+00 1.500000e+00 -3.000000e+00
      endloop
   endfacet
   facet normal 0.000000e+00 -9.960312e-01 8.900505e-02
      outer loop
         vertex -1.060671e+00 1.500000e+00 -3.000000e+00
         vertex -5.204170e-15 1.500000e+00 -3.000000e+00
         vertex -6.705773e-01 1.552948e+00 -2.407468e+00
      endloop
   endfacet
   facet normal 6.948388e-02 -9.835853e-01 1.665288e-01
      outer loop
         vertex -5.204170e-15 1.500000e+00 -3.000000e+00
         vertex 9.636769e-02 1.596368e+00 -2.471023e+00
         vertex -6.705773e-01 1.552948e+00 -2.407468e+00
      endloop
   endfacet
   facet normal -7.071066e-01 7.071070e-01 -4.057627e-07
      outer loop
         vertex 9.636769e-02 1.596368e+00 -2.471023e+00
         vertex 5.224637e-01 2.022464e+00 -1.862273e+00
         vertex 1.500000e+00 3.000000e+00 -1.060671e+00
      endloop
   endfacet
   facet normal 7.071067e-01 -7.071068e-01 0.000000e+00
      outer loop
         vertex 5.224637e-01 2.022464e+00 -1.862273e+00
         vertex 1.500000e+00 3.000000e+00 -1.500000e+00
         vertex 1.500000e+00 3.000000e+00 -1.060671e+00
      endloop
   endfacet
   facet normal 5.547002e-01 -8.320503e-01 0.000000e+00
      outer loop
         vertex 1.500000e+00 3.000000e+00 -1.060671e+00
         vertex 1.500000e+00 3.000000e+00 0.000000e+00
         vertex 4.083977e-01 2.272265e+00 -1.032539e+00
      endloop
   endfacet
   facet normal 3.834955e-01 -8.955297e-01 2.257383e-01
      outer loop
         vertex 1.500000e+00 3.000000e+00 0.000000e+00
         vertex -8.015746e-02 2.209921e+00 -4.498819e-01
         vertex 4.083977e-01 2.272265e+00 -1.032539e+00
      endloop
   endfacet
   facet normal 3.378435e-01 -9.322338e-01 1.296225e-01
      outer loop
         vertex -8.015746e-02 2.209921e+00 -4.498819e-01
         vertex -1.033449e+00 1.733275e+00 -1.393253e+00
         vertex -1.060671e+00 1.500000e+00 -3.000000e+00
      endloop
   endfacet
   facet normal 1.411350e-01 -9.800558e-01 1.398982e-01
      outer loop
         vertex -1.033449e+00 1.733275e+00 -1.393253e+00
         vertex -1.441680e+00 1.529160e+00 -2.411343e+00
         vertex -1.060671e+00 1.500000e+00 -3.000000e+00
      endloop
   endfacet
   facet normal 3.870411e-01 -8.931828e-01 2.289624e-01
      outer loop
         vertex -3.564533e-01 1.762365e+00 -1.728748e+00
         vertex 4.083977e-01 2.272265e+00 -1.032539e+00
         vertex -8.015746e-02 2.209921e+00 -4.498819e-01
      endloop
   endfacet
   facet normal 7.615147e-02 -9.621605e-01 2.616261e-01
      outer loop
         vertex -3.564533e-01 1.762365e+00 -1.728748e+00
         vertex -6.705773e-01 1.552948e+00 -2.407468e+00
         vertex 9.636769e-02 1.596368e+00 -2.471023e+00
      endloop
   endfacet
   facet normal -6.536434e-01 -5.831034e-01 4.824321e-01
      outer loop
         vertex -1.060671e+00 1.500000e+00 -3.000000e+00
         vertex -6.705773e-01 1.552948e+00 -2.407468e+00
         vertex -3.564533e-01 1.762365e+00 -1.728748e+00
      endloop
   endfacet
   facet normal 3.926996e-01 -8.169914e-01 4.222701e-01
      outer loop
         vertex 9.636769e-02 1.596368e+00 -2.471023e+00
         vertex 1.500000e+00 3.000000e+00 -1.060671e+00
         vertex -3.564533e-01 1.762365e+00 -1.728748e+00
      endloop
   endfacet
   facet normal 5.547002e-01 -8.320503e-01 1.339897e-07
      outer loop
         vertex 1.500000e+00 3.000000e+00 -1.060671e+00
         vertex 4.083977e-01 2.272265e+00 -1.032539e+00
         vertex -3.564533e-01 1.762365e+00 -1.728748e+00
      endloop
   endfacet
   facet normal -3.622722e-01 -8.525843e-01 3.766416e-01
      outer loop
         vertex -8.015746e-02 2.209921e+00 -4.498819e-01
         vertex -1.060671e+00 1.500000e+00 -3.000000e+00
         vertex -3.564533e-01 1.762365e+00 -1.728748e+00
      endloop
   endfacet
   facet normal 0.000000e+00 1.000000e+00 0.000000e+00
      outer loop
         vertex -1.500000e+00 2.300000e+02 -3.000000e+00
         vertex -5.329071e-15 2.300000e+02 -3.000000e+00
         vertex -4.973799e-14 2.300000e+02 -1.500000e+01
      endloop
   endfacet
   facet normal 0.000000e+00 1.000000e+00 0.000000e+00
      outer loop
         vertex -1.500000e+00 2.300000e+02 -1.500000e+01
         vertex -1.500000e+00 2.300000e+02 -3.000000e+00
         vertex -4.973799e-14 2.300000e+02 -1.500000e+01
      endloop
   endfacet
   facet normal -7.071068e-01 7.071068e-01 0.000000e+00
      outer loop
         vertex 1.500000e+00 2.330000e+02 0.000000e+00
         vertex 1.350000e+01 2.450000e+02 0.000000e+00
         vertex 1.350000e+01 2.450000e+02 -1.500000e+00
      endloop
   endfacet
   facet normal -7.071068e-01 7.071068e-01 0.000000e+00
      outer loop
         vertex 1.500000e+00 2.330000e+02 -1.500000e+00
         vertex 1.500000e+00 2.330000e+02 0.000000e+00
         vertex 1.350000e+01 2.450000e+02 -1.500000e+00
      endloop
   endfacet
   facet normal 0.000000e+00 1.000000e+00 -0.000000e+00
      outer loop
         vertex 1.650000e+01 2.465000e+02 -3.000000e+00
         vertex 1.650000e+01 2.465000e+02 -1.500000e+01
         vertex 1.500000e+01 2.465000e+02 -1.500000e+01
      endloop
   endfacet
   facet normal 0.000000e+00 1.000000e+00 0.000000e+00
      outer loop
         vertex 1.500000e+01 2.465000e+02 -3.000000e+00
         vertex 1.650000e+01 2.465000e+02 -3.000000e+00
         vertex 1.500000e+01 2.465000e+02 -1.500000e+01
      endloop
   endfacet
   facet normal 0.000000e+00 9.987754e-01 4.947502e-02
      outer loop
         vertex 1.644168e+01 2.464708e+02 -2.411343e+00
         vertex 1.650000e+01 2.465000e+02 -3.000000e+00
         vertex 1.606067e+01 2.465000e+02 -3.000000e+00
      endloop
   endfacet
   facet normal -0.000000e+00 9.960312e-01 8.900425e-02
      outer loop
         vertex 1.606067e+01 2.465000e+02 -3.000000e+00
         vertex 1.500000e+01 2.465000e+02 -3.000000e+00
         vertex 1.567058e+01 2.464471e+02 -2.407468e+00
      endloop
   endfacet
   facet normal -6.949393e-02 9.835829e-01 1.665392e-01
      outer loop
         vertex 1.500000e+01 2.465000e+02 -3.000000e+00
         vertex 1.490363e+01 2.464036e+02 -2.471023e+00
         vertex 1.567058e+01 2.464471e+02 -2.407468e+00
      endloop
   endfacet
   facet normal -3.152114e-01 8.669091e-01 3.861483e-01
      outer loop
         vertex 1.490363e+01 2.464036e+02 -2.471023e+00
         vertex 1.447754e+01 2.459775e+02 -1.862273e+00
         vertex 1.535645e+01 2.462376e+02 -1.728748e+00
      endloop
   endfacet
   facet normal -6.151123e-01 7.276327e-01 3.036241e-01
      outer loop
         vertex 1.447754e+01 2.459775e+02 -1.862273e+00
         vertex 1.350000e+01 2.450000e+02 -1.500000e+00
         vertex 1.459160e+01 2.457277e+02 -1.032539e+00
      endloop
   endfacet
   facet normal -5.547015e-01 8.320494e-01 0.000000e+00
      outer loop
         vertex 1.350000e+01 2.450000e+02 -1.500000e+00
         vertex 1.350000e+01 2.450000e+02 -4.393292e-01
         vertex 1.459160e+01 2.457277e+02 -1.032539e+00
      endloop
   endfacet
   facet normal -4.472164e-01 8.944258e-01 0.000000e+00
      outer loop
         vertex 1.350000e+01 2.450000e+02 -4.393292e-01
         vertex 1.350000e+01 2.450000e+02 0.000000e+00
         vertex 1.508016e+01 2.457901e+02 -4.498819e-01
      endloop
   endfacet
   facet normal -4.472165e-01 8.944258e-01 -1.039731e-05
      outer loop
         vertex 1.508016e+01 2.457901e+02 -4.498819e-01
         vertex 1.603345e+01 2.462667e+02 -1.393253e+00
         vertex 1.350000e+01 2.450000e+02 -4.393292e-01
      endloop
   endfacet
   facet normal -1.411365e-01 9.800555e-01 1.398987e-01
      outer loop
         vertex 1.603345e+01 2.462667e+02 -1.393253e+00
         vertex 1.644168e+01 2.464708e+02 -2.411343e+00
         vertex 1.606067e+01 2.465000e+02 -3.000000e+00
      endloop
   endfacet
   facet normal -1.532686e-01 9.620210e-01 2.258856e-01
      outer loop
         vertex 1.567058e+01 2.464471e+02 -2.407468e+00
         vertex 1.535645e+01 2.462376e+02 -1.728748e+00
         vertex 1.603345e+01 2.462667e+02 -1.393253e+00
      endloop
   endfacet
   facet normal -3.129210e-01 8.967266e-01 3.129887e-01
      outer loop
         vertex 1.459160e+01 2.457277e+02 -1.032539e+00
         vertex 1.535645e+01 2.462376e+02 -1.728748e+00
         vertex 1.447754e+01 2.459775e+02 -1.862273e+00
      endloop
   endfacet
   facet normal -7.615992e-02 9.621624e-01 2.616165e-01
      outer loop
         vertex 1.535645e+01 2.462376e+02 -1.728748e+00
         vertex 1.567058e+01 2.464471e+02 -2.407468e+00
         vertex 1.490363e+01 2.464036e+02 -2.471023e+00
      endloop
   endfacet
   facet normal 8.579873e-02 9.857674e-01 1.445727e-01
      outer loop
         vertex 1.606067e+01 2.465000e+02 -3.000000e+00
         vertex 1.567058e+01 2.464471e+02 -2.407468e+00
         vertex 1.603345e+01 2.462667e+02 -1.393253e+00
      endloop
   endfacet
   facet normal 5.547007e-01 -8.320500e-01 -2.257540e-06
      outer loop
         vertex 1.459160e+01 2.457277e+02 -1.032539e+00
         vertex 1.350000e+01 2.450000e+02 -4.393292e-01
         vertex 1.535645e+01 2.462376e+02 -1.728748e+00
      endloop
   endfacet
   facet normal -2.589424e-01 8.555263e-01 4.483566e-01
      outer loop
         vertex 1.350000e+01 2.450000e+02 -4.393292e-01
         vertex 1.603345e+01 2.462667e+02 -1.393253e+00
         vertex 1.535645e+01 2.462376e+02 -1.728748e+00
      endloop
   endfacet
   facet normal 0.000000e+00 9.638686e-01 -2.663780e-01
      outer loop
         vertex -4.393292e-01 2.300000e+02 -3.000000e+00
         vertex -1.500000e+00 2.300000e+02 -3.000000e+00
         vertex -5.646455e-01 2.302471e+02 -2.105719e+00
      endloop
   endfacet
   facet normal -1.366265e-01 9.822458e-01 -1.285552e-01
      outer loop
         vertex -1.500000e+00 2.300000e+02 -3.000000e+00
         vertex -1.364451e+00 2.301355e+02 -2.108416e+00
         vertex -5.646455e-01 2.302471e+02 -2.105719e+00
      endloop
   endfacet
   facet normal -1.267456e-01 9.174425e-01 -3.771402e-01
      outer loop
         vertex -1.364451e+00 2.301355e+02 -2.108416e+00
         vertex -9.955733e-01 2.305044e+02 -1.335033e+00
         vertex -5.646455e-01 2.302471e+02 -2.105719e+00
      endloop
   endfacet
   facet normal -7.071059e-01 7.071077e-01 -6.234238e-06
      outer loop
         vertex -9.955733e-01 2.305044e+02 -1.335033e+00
         vertex -2.078740e-01 2.312921e+02 -5.335924e-01
         vertex 1.500000e+00 2.330000e+02 -4.393292e-01
      endloop
   endfacet
   facet normal -7.071065e-01 7.071071e-01 1.432596e-05
      outer loop
         vertex -2.078740e-01 2.312921e+02 -5.335924e-01
         vertex 9.176860e-01 2.324177e+02 -5.705752e-02
         vertex 1.500000e+00 2.330000e+02 -4.393292e-01
      endloop
   endfacet
   facet normal -7.071112e-01 7.071024e-01 0.000000e+00
      outer loop
         vertex 9.176860e-01 2.324177e+02 -5.705752e-02
         vertex 1.500000e+00 2.330000e+02 0.000000e+00
         vertex 1.500000e+00 2.330000e+02 -4.393292e-01
      endloop
   endfacet
   facet normal -7.999986e-01 6.000019e-01 0.000000e+00
      outer loop
         vertex 1.500000e+00 2.330000e+02 -4.393292e-01
         vertex 1.500000e+00 2.330000e+02 -1.500000e+00
         vertex 6.831625e-01 2.319109e+02 -9.035085e-01
      endloop
   endfacet
   facet normal -8.337726e-01 4.506074e-01 -3.190239e-01
      outer loop
         vertex 1.500000e+00 2.330000e+02 -1.500000e+00
         vertex 8.929710e-01 2.317859e+02 -1.628316e+00
         vertex 6.831625e-01 2.319109e+02 -9.035085e-01
      endloop
   endfacet
   facet normal -6.573775e-01 5.282991e-01 -5.373592e-01
      outer loop
         vertex 8.929710e-01 2.317859e+02 -1.628316e+00
         vertex 3.619422e-01 2.307239e+02 -2.022849e+00
         vertex 1.799224e-02 2.310240e+02 -1.307028e+00
      endloop
   endfacet
   facet normal 5.983532e-01 3.257955e-01 -7.320046e-01
      outer loop
         vertex 3.619422e-01 2.307239e+02 -2.022849e+00
         vertex 9.099547e-02 2.301820e+02 -2.485504e+00
         vertex -4.393292e-01 2.300000e+02 -3.000000e+00
      endloop
   endfacet
   facet normal 0.000000e+00 9.427574e-01 -3.334795e-01
      outer loop
         vertex 9.099547e-02 2.301820e+02 -2.485504e+00
         vertex -5.270274e-15 2.300000e+02 -3.000000e+00
         vertex -4.393292e-01 2.300000e+02 -3.000000e+00
      endloop
   endfacet
   facet normal -3.895890e-01 7.858966e-01 -4.801948e-01
      outer loop
         vertex 1.799224e-02 2.310240e+02 -1.307028e+00
         vertex -5.646455e-01 2.302471e+02 -2.105719e+00
         vertex -9.955733e-01 2.305044e+02 -1.335033e+00
      endloop
   endfacet
   facet normal -3.596062e-01 7.862805e-01 -5.024404e-01
      outer loop
         vertex -5.646455e-01 2.302471e+02 -2.105719e+00
         vertex 1.799224e-02 2.310240e+02 -1.307028e+00
         vertex 3.619422e-01 2.307239e+02 -2.022849e+00
      endloop
   endfacet
   facet normal -6.865128e-01 6.568055e-01 -3.119404e-01
      outer loop
         vertex 1.799224e-02 2.310240e+02 -1.307028e+00
         vertex 6.831625e-01 2.319109e+02 -9.035085e-01
         vertex 8.929710e-01 2.317859e+02 -1.628316e+00
      endloop
   endfacet
   facet normal -4.159483e-01 8.598911e-01 -2.959295e-01
      outer loop
         vertex -4.393292e-01 2.300000e+02 -3.000000e+00
         vertex -5.646455e-01 2.302471e+02 -2.105719e+00
         vertex 3.619422e-01 2.307239e+02 -2.022849e+00
      endloop
   endfacet
   facet normal -2.564383e-01 5.433497e-01 -7.993813e-01
      outer loop
         vertex -9.955733e-01 2.305044e+02 -1.335033e+00
         vertex 1.500000e+00 2.330000e+02 -4.393292e-01
         vertex 1.799224e-02 2.310240e+02 -1.307028e+00
      endloop
   endfacet
   facet normal 7.999385e-01 -6.000820e-01 2.937087e-04
      outer loop
         vertex 1.500000e+00 2.330000e+02 -4.393292e-01
         vertex 6.831625e-01 2.319109e+02 -9.035085e-01
         vertex 1.799224e-02 2.310240e+02 -1.307028e+00
      endloop
   endfacet
endsolid
